<?xml version="1.0" encoding="UTF-8"?>
<svg id="uuid-b81a4c23-a9ab-4b32-af6c-228f29464bab" data-name="Capa 1" xmlns="http://www.w3.org/2000/svg" xmlns:xlink="http://www.w3.org/1999/xlink" viewBox="0 0 1000.12 657.19">
  <defs>
    <clipPath id="uuid-8fc45c5a-262f-4300-a6f9-402e8af65ffe">
      <path d="M145.52,358.51c-2.43,0-4.39,4.78-4.39,10.68s1.97,10.68,4.39,10.68,4.39-4.78,4.39-10.68-1.97-10.68-4.39-10.68ZM144.22,373.45c-1.53,0-2.77-2.31-2.77-5.16s1.24-5.16,2.77-5.16,2.77,2.31,2.77,5.16-1.24,5.16-2.77,5.16Z" fill="none"/>
    </clipPath>
    <clipPath id="uuid-00cc533b-0865-467f-b5df-27963f302571">
      <path d="M122.54,349.09c-2.43,0-4.39,4.78-4.39,10.68s1.97,10.68,4.39,10.68,4.39-4.78,4.39-10.68-1.97-10.68-4.39-10.68ZM121.24,364.03c-1.53,0-2.77-2.31-2.77-5.16s1.24-5.16,2.77-5.16,2.77,2.31,2.77,5.16-1.24,5.16-2.77,5.16Z" fill="none"/>
    </clipPath>
    <clipPath id="uuid-4e326278-a590-460a-b949-eb8866e8a02e">
      <path d="M128.9,346.01c-.97.96-2.47,2.23-4.55,3.29-1.95,1-3.75,1.49-5.05,1.73-.27-.22-3.49-2.93-3.06-7,.34-3.27,2.94-6.57,6.04-6.64,3.32-.07,6.91,3.58,6.62,8.62Z" fill="none"/>
    </clipPath>
    <clipPath id="uuid-d06f154a-26f7-433f-920a-a81f1d126925">
      <path d="M292.2,484.04s.45.33.45.33v.63c-.13,6.14-.29,12.28-.89,18.4,0,0-.07.74-.07.74l-.57.26c-3.67,1.63-7.39,3.15-11.04,4.82,0,0-.26-.24-.26-.24-3.36-3.14-6.85-6.13-10.43-9.02,0,0-.17-.13-.17-.13l-.04-.25c-.96-6.31-2.1-12.6-2.91-18.93.76.11,11.12,1.06,12.21,1.2,0,0,.6.06.6.06l.43.51c2.52,3.05,5,6.14,7.39,9.29-1.07,2.87-2.64,6.96-3.76,9.81-2.55-.84-5.11-1.74-7.64-2.63,0,0-.07-.7-.07-.7-.29-2.79-.56-5.59-.79-8.39l.68-.1c1.08-.17,2.16-.35,3.25-.48.71,1.96,1.46,3.9,2.13,5.88,0,0-2.16-3.26-3.1-4.95l.69.35c-.87.27-1.75.51-2.63.76l.62-.89c.52,2.49,1.02,4.99,1.49,7.49l-.82-.96c1.93.51,3.86,1.01,5.79,1.55l-1.72.86c.63-1.97,1.95-5.91,2.63-7.87,0,0,.25,1.51.25,1.51-2.32-2.82-4.59-5.7-6.81-8.6,0,0,1.03.57,1.03.57l-10.45-1.44,1.49-1.48c.54,5.8.78,11.64,1.22,17.45,0,0-.2-.38-.2-.38,3.36,3.14,6.81,6.18,10.39,9.07,0,0-.62-.08-.62-.08,3.41-1.86,6.74-3.86,10.14-5.75l-.65.99c0-3.07.11-6.14.29-9.21.18-3.06.39-6.13.64-9.19l.44.96c-3.99-3.34-7.93-6.74-11.68-10.36,0,0,8.87,5.5,13.09,8.55Z" fill="none"/>
    </clipPath>
  </defs>
  <path d="M572.22,107.43c-5.73-6.13-3.02-11.71-2.35-45.45.51-25.46-.95-32.52,4.54-43.74,2.34-4.79,7.67-15.67,17.96-17.61,6.73-1.26,12.21,1.94,13.04,2.44,3.27,1.98,8.4,6.46,11.48,21.17,2.5,11.94,1.63,20.93-1.62,44.07-4.93,35.17-6.35,38.89-10.49,41.95-9.1,6.7-24.85,5.38-32.55-2.84Z" fill="#2d8d64"/>
  <path d="M616.89,24.26c-3.08-14.72-8.21-19.2-11.48-21.17-.63-.38-3.96-2.33-8.49-2.68,3.27,2.14,8.04,6.88,10.97,20.85,2.5,11.94,1.63,20.93-1.62,44.07-4.93,35.17-6.35,38.89-10.49,41.95-5.01,3.69-12.04,4.94-18.63,3.95,8.3,4.64,20.19,4.54,27.63-.95,4.14-3.05,5.56-6.78,10.49-41.95,3.25-23.15,4.12-32.13,1.62-44.07Z" fill="#1d624d"/>
  <path d="M560.14,380.07c6.95-2.72,17.62-6.83,30.8-11.7,8.83-3.26,13.88-5.04,15.79-5.74,47.24-17.31,70.58-51.82,70.58-51.82,2.87-4.24,13.68-20.87,18.11-45.11,7.81-42.71-10.1-76.95-22.64-100.92-16.07-30.71-37.63-71.94-77.07-77.74-19.43-2.86-35.17,4.06-44.23,8.04-25.96,11.41-42.46,37.47-74.39,89.13-27.08,43.81-31.23,58.27-30.83,73.72.37,14.28,4.38,20.37,8.38,40.51,5.91,29.77,4.77,54.96,2.89,71.54" fill="#2d8d64"/>
  <path d="M574.71,258.91c3.77-6.5.19-15.79-.68-18.07-4.02-10.45-12.38-14.42-10.75-18.25,1.01-2.38,4.33-1.13,10.79-4.89,2.9-1.69,7.6-4.43,8.71-9.08.84-3.54-.76-6.64-2.45-9.81-5.24-9.81-13.44-13.42-12.52-15.4.69-1.49,5.15.84,11.3-1,1.78-.53,8.29-2.79,10-8.31,1.54-4.99-1.7-9.85-3.15-12.03-4.86-7.3-12.8-10.01-12.3-11.12.4-.89,5.04,1.64,9.17-.43,3.08-1.54,3.85-4.86,4.07-5.77,1.23-5.27-2.83-9.76-3.68-10.65-3.11-3.27-6.86-4.9-6.54-5.4.38-.59,5.24,2.35,8.5.74,1.97-.97,2.88-3.36,2.74-5.28-.37-4.87-7.68-8.22-7.28-8.68.31-.36,4.12,2.51,6.73,1.43,1.62-.67,2.03-2.55,2.05-2.66.85-4.23-6.24-8.57-5.74-9.04.34-.32,3.11,2.19,5.12,1.47,1.43-.51,2.1-2.54,1.9-4.13-.36-2.93-3.7-4.83-3.31-5.22.32-.33,2.37,1.38,3.98.78,1.05-.4,1.64-1.69,1.56-2.75-.17-2.11-3.01-3.44-2.7-3.81.15-.17.69.21,1.91.27,1.7.08,3.09-.79,3.35-.97.02-.02.03-.02.05-.03.87-.61.62-2.22.14-3.04-.3-.52-1.08-1.38-3.92-1.87-6.66-1.15-13.02,1.69-13,2.41.02.8,2.89.94,2.9,1.74.02,1.6-11.43,2.83-11.35,3.73.06.63,6.12.31,6.29,1.22.29,1.49-15.6,4.67-15.3,6.33.19,1.04,6.7.69,6.81,1.63.1.86-5.27,1.33-10.94,4.61-2.35,1.36-6.4,4.16-5.75,5.52.85,1.77,9.03-.18,9.5,1.11.44,1.2-6.64,3.09-12.78,9.09-.72.71-5.71,5.59-4.35,7.27,1.64,2.04,11.46-1.94,11.95-1.01.53,1.01-11.29,4.99-19,14.86-1.74,2.23-4.35,5.64-2.98,7.46,2.6,3.45,17.22-1.33,17.72-.06.43,1.1-10.42,4.8-20.76,13.07-2.33,1.87-5.63,4.76-5.8,8.69-.03.84-.12,2.96,1.41,4.66,3.56,3.94,11.99,1.29,12.97,3.35,1.03,2.16-8.19,5.27-14.77,13.96-2.73,3.6-6.47,8.65-5.22,14.06,1.41,6.08,8.5,9.87,10.53,10.95,4.76,2.54,7.57,2.18,7.89,3.7.74,3.55-14.64,5.59-17.38,14.06-2.55,7.87,7.54,19.03,17.38,24.03,12.74,6.47,31.58,5.92,37-3.43Z" fill="#ed7376"/>
  <path d="M586.58,92.48c-3.17,5.43-10.44,18.01-14.98,33.33-2.67,9.02-3.46,16.1-4.05,20.19-3.18,22.19-8.4,58.86-13.28,105.96l-7.75-8.59.56-22.3,5.16-43.26,4.71-31.72,6.05-25.89,6.72-11.43,4.03-8.52,4.26-3.59,2-3.57,1.3.12,5.27-4.58,3.48-1.88c-.86,1.36-2.09,3.32-3.49,5.72Z" fill="#c55976"/>
  <path d="M540.63,239.7c.11-.69.25-1.81.2-3.18-.23-6.39-4.15-9.04-3.12-12.27.73-2.28,2.95-1.8,5.18-4.2,2.52-2.71,2.87-6.67,1.55-17.35-1.82-14.66-4.12-21.03-1.23-23.14,2.1-1.53,4.51.64,6.86-.91,1.35-.9,2.04-3.19.51-13.71-1.38-9.5-3.03-15.06-1.04-16.25,1.34-.8,3.08,1.14,4.66.2,1.44-.86,1.43-3.34,1.15-7.73-.63-10.04-1.62-13.98-.03-14.94.54-.33,1.58-.43,3.76.97.33-.52.86-1.42,1.31-2.62,2.46-6.5-1.01-12.05,1.1-13.74.57-.46,1.75-.8,4.53.41.19-.32.46-.79.74-1.39,2.44-5.2.72-9.4,2.53-10.49.52-.32,1.45-.43,3.21.5.11,0,.3,0,.53-.05,2.37-.59,1.62-5.63,4.25-7.02,1.66-.88,2.8.69,4.38-.4,1.49-1.02,1.19-2.91,2.99-3.74.58-.26.62-.07,1.77-.34,2.45-.57,4.04-1.83,4.06-1.8.02.04-1.49.94-1.49.94-1.78,1.07-1.82,1.03-2.14,1.29-.96.76-.95,1.3-1.85,2.46-.48.61-1.26,1.47-2.52,2.3-1.27-.62-1.92-.48-2.28-.28-1.64.92-.28,5-2.78,7.22-.17.15-.32.26-.4.31-1.3-.73-2.04-.62-2.44-.45-2.18.92-.78,6.12-4.34,10.43-.27.33-.51.58-.64.71-.37-.13-.63-.09-.78-.04-2.2.68.06,8.35-3.87,15.48-.32.59-.62,1.04-.81,1.32-1.14-.68-1.79-.61-2.18-.44-1.09.5-1.46,2.59-.88,12.28.31,5.2.65,8.39-.81,9.11-.91.45-1.67-.5-2.51-.11-1.84.85-.7,6.51.06,13.15.54,4.69,1.81,16.32-1.2,17.44-1.35.5-2.15-.59-3.31,0-2.75,1.38-.19,9.34.39,22.74.55,12.72-1.34,16.1-2.85,18-.92,1.16-1.95,2.03-2.63,3.95-1.26,3.53.18,6.32.85,10.15.45,2.59.68,6.46-.62,11.52-2.61-2.09-5.21-4.18-7.82-6.27Z" fill="#eb5976"/>
  <g id="uuid-8e394da2-581f-44c7-93a9-bb12b2b76348" data-name="Cap esquerra">
    <g id="uuid-9628463a-b7ca-4c68-9e8f-3c0270650cbb" data-name="Coll">
      <path d="M450.82,272.97c-11.86,12.39-23.55,18.36-31.03,21.36-14.3,5.75-17.47-2.87-34.05-2.81-36.17.13-54.83-.06-62.63,0-17.26.14-42.18,2.04-72.82,10.49l-12.46,8.21,5.82,27.16-20.1,6.88c-2.11-2.08-7.64-6.92-16.05-8.11-5.84-.83-10.62.4-13.05,1.41-1.01.42-2.78,1.18-4.51,2.9-1.09,1.09-1.78,2.18-2.21,2.96-5.58-4.1-10.7-6.58-14.41-8.09-7.08-2.88-12.05-4.9-17.47-3.09-4.84,1.62-7.68,5.5-8.99,7.63.3-.68.6-1.36.9-2.04-2.27.08-5.69.01-9.72-.89-4.5-1.01-6.07-2.24-8.53-1.45-3.66,1.17-6.26,5.8-5.22,8.05.6,1.31,2.24,1,3.24,2.4,1.38,1.93.21,5.21-1.36,8.15-2.18,1.41-6.21,3.6-11.7,4.28-8.01.99-14.18-1.85-16.54-3.08,1.2-2.5,2.16-5.42,2.51-8.76.27-2.57,1.38-12.95-5.07-17.81-7.14-5.39-18.3-.02-22.06,1.8-9.73,4.69-14.69,12.69-16.67,16.42-.98-4.49-4.81-7.8-9.31-8.09-4.71-.31-9.09,2.75-10.46,7.35-4.63-7.2-12.71-10.97-20.42-9.64-6.42,1.11-11.34,5.54-13.73,10.38-4.13,8.37-1.47,19.62,7.03,27.21-1.35,1.07-3.44,3.02-5.07,6.05-2.97,5.54-2.27,10.82-1.96,12.91.48,3.26,1.39,9.47,5.88,11.27,2.1.85,4.23.42,5.56,0-.16,4.8.04,12.13,2.12,20.75,1.23,5.1,1.92,7.94,3.57,10.27,4.31,6.05,15.84,5.49,38.26,4.44,33.89-1.58,34.91-1.65,38.63-1.13,5.39.75,13.96,2.39,26.89,2.77,4.46.13,8.14.07,10.62,0,1.73,1.3,4.25,2.97,7.54,4.41,3.68,1.61,11.8,4.47,21.58,2.7,8.67-1.57,19.22-6.88,18.77-11.29-.21-2.06-2.76-3.5-4.82-4.38,5.65-2,9.97-2.81,13-3.17,1.16-.14,2.95-.35,4.96-1.43,2.66-1.42,4.14-3.8,4.95-5.5,47.42-.5,62.47-11.04,67.13-20.98,2.26-4.83,3.85-13.31,11.69-22.48h0c6.31-12.62,25.03-16.92,29.74-17.9,30.29-6.35,52.67-2.68,81.75.1,20.29,1.94,39.79,11.91,77.01,1.79-5.58-30.12-11.15-60.23-16.73-90.35Z" fill="#2d8d64"/>
      <path d="M393.51,340.05c-19.35.39-22.06,5.19-39.23,4.27-12.53-.68-22.82-3.15-30.04-5.38,2.06-.26,9.66-1.46,15.47-8.07,3.95-4.49,5.17-9.31,5.6-11.63-.27.19-5.6,3.95-10.76,1.54-1.98-.93-3.18-2.41-3.81-3.36.83-1.25,3.56-5,8.74-6.73,3.98-1.33,7.41-.79,8.97-.45-1.17-1.72-3.72-4.88-8.07-6.73-9.2-3.9-18,1.66-18.86,2.23,3.9-.98,9.83-3.03,15.73-7.61,2.9-2.26,5.13-4.61,6.81-6.69-10.85-.79-23.68-.97-38,.29-14,1.23-26.35,3.57-36.74,6.17l-21.07,4.93-15.69,8.29-36.76,33.85,1.34,14.76,4.26,8.11,4.93,1.33c.57,1.47,1.52,3.42,3.14,5.39.92,1.12,1.85,2,2.69,2.69.11-1.22.38-2.87,1.06-4.71.68-1.84,1.55-3.27,2.26-4.27.27.73,1.42,3.62,4.53,5.16,1.74.86,3.36.93,4.26.9-.22-.24-1.48-1.71-1.24-3.79.16-1.43.93-2.37,1.24-2.71,1.54-.17,4.33-.22,6.95,1.33,3.87,2.29,4.95,6.62,5.6,9.42,1.79,7.67,1.4,22.78-10.31,31.38-9.13,6.71-19.52,5.33-21.97,4.93.91-1.52,2.13-4.02,2.51-7.29.29-2.53-.02-4.71-.72-7.5-.87-3.46-2.57-8.73-6.09-15.02,2.65,8.23,2.21,14.93,1.68,18.58-.68,4.68-1.54,10.63-6.13,14.6-2.69,2.32-4.91,2.45-10.09,4.13-4.14,1.34-10.08,3.64-17.03,7.75,3.05.85,6.1,1.7,9.16,2.55,1.25-.45,3.19-1.09,5.63-1.61,5.24-1.11,7.28-.51,10.09-1.61,1.95-.76,4.56-2.46,6.9-6.7,2.89-.18,8.92-.55,11.74-.73,13.05-.81,14.83-.94,17.9-1.37,2.85-.4,8.45-1.31,15.28-3.29,5.32-1.55,7.99-2.32,10.88-4.04,6.29-3.73,9.68-8.88,10.71-10.55,2.49-4.04,1.86-5.16,5.47-12.54,0,0,2.13-4.35,4.45-8.1,7.87-12.68,26.54-19.33,27.63-19.7,8.86-3.06,16.83-3.15,32.76-3.34,10.27-.12,18.83.38,24.86.88,0,0,0,0,0,0,13.37.35,26.75.69,40.12,1.04,4.77,2.03,11.02,4.16,18.09,5.16,5.46.77,9.12.55,10.5.44,3.29-.26,5.64-.84,6.72-1.08,4.08-.92,10.34-1.74,19.75-1.23-.32-10.04-.64-20.09-.95-30.13-5.2,2.45-13.52,5.77-24.15,7.29-15.71,2.26-19.67-1.82-38.7-1.44Z" fill="#1d624d"/>
      <path d="M124.01,434.73c-2.11.6-5.29,1.36-9.19,1.73-7.92.75-12.81-.92-19.3-1.73-4.12-.51-9.49-.17-20.22.52-11.91.76-32.73,2.54-32.73,2.54-7.09.61-11.78,1.03-16.79-1.71-4.44-2.42-7.03-6.18-8.47-8.82.15,2.16.82,7.12,4.63,10.17,2.25,1.8,4.67,2.16,9.26,2.87,2.7.42,6.61.82,11.41.62,6.21-.42,12.42-.84,18.63-1.26l12.95-.59,19.3-.66,19.65,2.21,15.74.56-4.87-6.45Z" fill="#1d624d"/>
      <path d="M18.13,400.86c.49-.47,1.22-1.12,2.17-1.78,1.35-.93,2.9-2.01,5-2.26,1.56-.19,2.77.17,3.86.49,2.55.77,4.14,2.04,5.45,2.99,0,0,3.55,2.59,7.95,4.72,1.08.52,5.29,2.48,11,2.92,1.2.09,5.21.33,10.5-1.01,4.21-1.06,8.55-3.59,17.06-8.6,4.73-2.79,8.02-4.87,13.24-6.73,2.52-.9,4.8-1.5,7.58-1.5,3.48,0,6.06.94,8.25,1.77,2.55.96,6.52,2.82,10.67,6.47-.12.47-.24.95-.36,1.42-.33.25-.67.5-1,.75-2.1-2.21-7.33-7.09-14.84-7.57-3.32-.21-5.79.52-8.65,1.37-6.37,1.89-7.79,4.04-18.74,10.03-6.21,3.4-8.79,4.37-11.53,5.03-4.49,1.08-8.1,1-9.08.96-9.11-.32-16.34-4.62-19.27-6.4-5.61-3.42-6.94-5.81-10.94-5.98-3.45-.14-6.35,1.47-8.31,2.9Z" fill="#1d624d"/>
      <path d="M100.39,338.28c-.15-.55-1.03-3.22-1.52-3.12-.8.15,1.62,7.09-.53,14.58-2.15,7.48-7.86,12.1-9.08,13.05-4.63,3.59-8.24,3.79-8.08,4.84.26,1.69,10,3.65,16.66-.93,4.5-3.1,6.66-8.52,6.25-9.04-.18-.23-.57-.02-1.75-.35-.46-.13-.82-.27-1.66-.67-.71-.33-1.63-.77-2.71-1.33.95-1.56,2.25-4.12,2.85-7.52.74-4.18.08-7.62-.43-9.51Z" fill="#1d624d"/>
      <path d="M.83,354.59c-.17,3.86.9,6.67,1.6,8.5.38,1.01,2.48,6.54,4.45,6.29.88-.11,1.38-1.33,1.42-1.42,1.02-2.59-2.55-4.53-3.73-9.07-1.17-4.49.76-8.58,1.34-9.81.59-1.25,2-4.16,5.12-6.21,5.07-3.33,12.72-3.14,16.57.12.73.62,5.27,4.7,6.62,6.19.1.11.45.5,1.01.86.79.52,1.61.74,2.01.79,1.89.23,2.68-2.36,5.87-3.91.92-.45,2.11-1.03,3.66-.94,1.43.08,2.18.67,6.4,3.1,2.56,1.48,2.93,1.63,3.48,1.59,2.18-.16,3.29-3.1,4.68-5.41,3.79-6.29,12.4-12.46,19.84-13.55,1.66-.25,4.75-.46,5.78-2.47.4-.78.63-2.12,0-2.86-1.97-2.3-11.5,2.27-17.47,6.28-3.84,2.58-6.57,5.17-8.16,6.81-1.03,1.58-2.06,3.16-3.1,4.74l-1.77,2-1.68-3.34-6.74-4.05-5.12,1.23-3.23,2.11-2.09,3.12c-.24.31-.48.62-.72.92-.92-1.37-2.37-3.18-4.54-4.85-3.32-2.57-6.66-3.55-8.6-3.95-1.63-.49-6.23-1.63-11.32.37-3.26,1.28-5.22,3.26-6.15,4.21-5.03,5.18-5.4,11.52-5.44,12.63Z" fill="#68b669"/>
      <path d="M21.48,375.47c-5.64.65-8.51,1.02-11.16,3.19-4.26,3.49-6.32,9.94-4.43,14.52.26.62,1.31,3.18,3.09,3.36,2.07.21,3.15-2.98,6.3-6.43,2.48-2.72,5.73-4.45,12.22-7.92,7.66-4.09,10.78-4.64,10.63-5.67-.26-1.77-9.72-1.86-16.65-1.06Z" fill="#68b669"/>
      <path d="M154.89,340.05c-.73,2.33,1.06,4.69,2.21,6.17.85,1.09,3.41,4.1,9.89,6.68,5.38,2.14,9.87,3.93,13.33,1.7,1.93-1.24,3.6-3.76,3.16-5.99-.23-1.17-1.01-2.07-6.95-5.34-6.19-3.41-9.06-4.49-10.9-5.11-5.2-1.75-7.04-1.49-8.37-.77-.29.16-1.85.99-2.37,2.66Z" fill="#68b669"/>
      <path d="M177.83,432.72c3.79-2.14,8-3.38,12.3-3.98,4.24-.27,7.67-2.4,10.11-5.95-.95,4.47-5.37,7.67-9.86,7.93-4.22.5-8.31,1.39-12.55,2h0Z" fill="#0d565b"/>
      <path d="M14.16,404.36c-.02,9.24,1.63,18.37,4.5,27.1,1.98,6.65,8.23,7.6,14.24,7.96,9.18.42,18.4-.34,27.59-.72,8.55-.34,23.94-1.16,32.37-1.14,7.72.52,15.25,2.49,22.96,2.99,6.12.68,12.28.67,18.43.9-6.16.22-12.34.44-18.51.08-6.17-.31-12.33-1.1-18.41-1.97-3.04-.48-6.02-.31-9.08-.2-14.32.62-31.89,1.72-46.17,2.02-3.09.04-6.2.02-9.31-.21-4.21-.35-9.06-.95-12.35-4.04-2.65-2.58-3.37-6.35-4.19-9.77-1.81-7.5-2.62-15.32-2.08-23h0Z" fill="#0d565b"/>
      <path d="M200.24,422.79c18.22-.71,48.89-2.27,62.33-15.56,4.04-3.86,5.27-9.2,7.3-14.26,2.06-5.17,4.93-10.08,8.58-14.33,6.36-7.46,14.83-12.97,24.01-16.31,6.52-2.37,13.57-3.49,20.42-4.01,15.95-1.03,33.53.81,49.52,1.73,5.48.34,10.96.57,16.45.69,4.14.18,8.29-.2,12.42.28,4.13.54,8.02,2.23,11.95,3.41,7.84,2.59,16.25,2.72,24.34,1.13-8.03,1.93-16.59,1.99-24.55-.4-3.98-1.08-7.79-2.6-11.87-3.09-4.07-.4-8.21.05-12.3-.06-5.51-.03-11.01-.17-16.51-.42-16.46-.63-32.87-2.49-49.3-1.36-7.09.54-14.18,1.88-20.86,4.28-8.48,3.32-16.39,8.36-22.33,15.32-5.56,6.14-8.48,13.81-11.34,21.5-9.08,20.55-48.73,21.44-68.25,21.46h0Z" fill="#0d565b"/>
      <path d="M250.29,302.02c22.46-6.8,45.83-10.76,69.3-11.35,20.26-.3,44.15.06,64.44.03,6.04-.49,11.54,3.13,17.02,4.65,3.68,1.05,7.57,1.18,11.37.55,7.63-1.32,14.84-4.75,21.77-8.16-6.82,3.82-13.89,7.43-21.6,9.1-3.88.78-7.98.72-11.85-.29-5.78-1.44-10.69-4.77-16.69-4.19-20.27.24-44.19.11-64.41.13-23.39.43-46.65,3.88-69.34,9.53h0Z" fill="#0d565b"/>
    </g>
    <g id="uuid-c9060c5e-501e-4d69-9a75-28a464e9887c" data-name="Llengua">
      <path d="M18.09,400.83c2.35-2.57,5.75-4.53,9.34-4.14,3.58.41,6.41,2.92,9.3,4.8,7.55,5.42,17.39,7.45,26.44,5.32,2.22-.56,4.28-1.64,6.35-2.72,8.22-4.44,16.34-9.06,24.86-13.04,8.99-3.88,19.31.99,26.15,6.92-6.47-4.63-14.37-8.6-22.55-7.12-5.51,1.62-10.5,4.88-15.68,7.41-4.51,2.17-14.19,8.05-18.95,9.24-9.25,2.08-19.24-.07-26.84-5.69-3.29-2.22-6.59-5.31-10.83-4.91-2.92.2-5.52,1.91-7.52,3.98-.04.05-.12-.02-.07-.07h0Z" fill="#0d565b"/>
      <path d="M180.37,434.31c1.15,1.35,2.21,3.11,2.1,5.09-.39,6.62-13.57,10.83-20.98,11.99-4.06.63-12.46,1.29-21.58-2.7-3.97-1.74-6.67-3.74-7.54-4.41-17.62-13.54-14.13-39.39-13.77-42,.57-4.26,1.92-6.31,3.7-7.62,5.44-4,16.86-.53,19.49,5.68,2.38,5.63-3.67,9.2-1.55,16.4.69,2.35,3,5.14,7.62,10.71,1.08,1.31,2.02,2.37,2.67,3.1,3.56-.82,9.33-1.7,16.3-.65,5.91.89,10.52,2.84,13.53,4.4Z" fill="#bb6590"/>
      <path d="M150.54,430.56c-.66-.73-1.59-1.79-2.67-3.1-4.62-5.57-6.92-8.36-7.62-10.71-2.12-7.2,3.93-10.76,1.55-16.4-2.46-5.82-12.62-9.22-18.38-6.36,5.6-.36,12.42,2.73,14.38,7.36,2.31,5.47-3.91,9.74-1.55,16.4,2.18,6.13,10.69,11.76,9.97,12.68-.09.12-.47.33-.7.86-.15.33-.17.65-.17.87,1.73-.53,3.46-1.06,5.19-1.59Z" fill="#8f4c66"/>
      <path d="M180.37,434.31c-1.83-.95-4.25-2.03-7.18-2.94.21.65.32,1.33.28,2.04-.39,6.62-13.57,10.83-20.98,11.99-4.06.63-12.46,1.29-21.58-2.7-.3-.13-.58-.27-.87-.4.74.69,1.5,1.36,2.33,1.99.87.66,3.57,2.67,7.54,4.41,9.12,3.99,17.52,3.33,21.58,2.7,7.41-1.15,20.59-5.37,20.98-11.99.12-1.99-.94-3.75-2.1-5.09Z" fill="#8f4c66"/>
      <path d="M145.33,432.1c6.19-2.18,12.84-3.24,19.41-2.72,5.4.62,11.36,1.01,15.73,4.61,2.81,2.44,3.41,6.58.73,9.39-1.51,1.75-3.43,2.96-5.38,4-7.91,3.94-16.94,5.81-25.72,4.61-13.4-1.69-25-10.75-29.25-23.65-2.89-8.3-3.5-17.26-2.55-25.96.27-2.17.75-4.43,2.09-6.31,4.38-5.63,13.42-3.78,18.45,0,4.27,3.29,4.79,7.38,2.59,12.12-1.25,2.98-1.86,6.26-.6,9.29,2.29,4.67,6.86,9.1,9.66,13.1-3.54-4.16-7.59-8.02-10.21-12.87-1.4-3.13-.84-6.78.43-9.8.75-2.02,1.58-4.1,1.08-6.13-1.7-6.17-9.64-8.98-15.51-8.25-4.71.52-6.99,4.51-7.44,8.91-.61,4.3-.73,8.69-.37,13.03,1.27,18.72,12.67,33.11,31.73,35.58,8.57,1.09,17.43-.82,25.12-4.6,11.64-5.86,6.46-13.77-4.21-15.52-4.26-.84-8.61-1.34-12.95-1.08-4.34.23-8.66,1.02-12.82,2.33-.06.02-.09-.07-.03-.09h0Z" fill="#854c78"/>
    </g>
    <g id="uuid-140c098b-c728-46bb-b6e3-4ce366a61cf7" data-name="Cabell">
      <path d="M166.99,332.86c1.81-.11,5.27-.58,8.69-2.89,6.49-4.39,7.48-11.78,7.63-13.01.77.24,3.04,1.04,4.69,3.35,1.23,1.72,1.52,3.44,1.61,4.28,1.83-1.35,4.35-3.57,6.26-6.96,1.69-2.99,1.68-4.72,2.93-7.1,1.3-2.49,3.96-5.66,9.96-8.13-.13.87-.37,3.32,1,5.86.9,1.67,2.12,2.67,2.85,3.18,1.57-.94,4.9-3.22,7.2-7.53,2.92-5.47,2.29-10.68,2.01-12.39,2.25.86,6.12,2.7,9.54,6.53,1.88,2.1,3.08,4.2,3.85,5.86,1.08-2.09,4.85-8.77,13.06-12.39,6.24-2.75,11.89-2.35,14.4-2.01-.5.27-4.12,2.28-5.02,6.7-.97,4.74,2.02,8.18,2.34,8.54,3.11-1.87,9.8-6.47,14.28-15.15,3.19-6.18,3.95-11.9,4.13-15.31,1.64.53,5.8,2.12,8.87,6.36,1.75,2.42,2.5,4.81,2.85,6.36,1.56-.93,5.02-3.27,7.4-7.74,2.07-3.9,2.31-7.53,2.31-9.33,1.82,1.19,6,4.3,8.54,10.04,1.99,4.51,2.06,8.57,1.94,10.71,3.09-2.5,7.25-5.39,12.51-7.89,3.77-1.79,7.29-3,10.33-3.83-.02,2.05-.24,4.79-1.08,7.91-.86,3.17-2.09,5.69-3.13,7.48,2.39-.15,6.39-.08,10.88,1.63,6.99,2.67,10.83,7.69,12.25,9.77-4.64-.95-8.41-.69-10.91-.29-1.2.19-10.33,1.65-10.69,5.15-.14,1.31,1,2.44,1.89,3.32,2.63,2.61,6.08,2.69,7.04,2.68-.38.88-.8,1.69-1.26,2.45-6.2,10.12-20.32,11.66-25.57,11.98.79.57,1.94,1.58,2.68,3.18,1.99,4.31-.9,8.74-1.13,9.09-1.53-1.31-2.96-1.73-3.72-1.89-4.37-.9-8,2.38-8.54,2.86-.94.84-1.81,1.98-1.93,2.13-.77,1.01-1.31,1.93-1.67,2.63-1.47-.02-4.23-.27-7.21-1.82-2.44-1.27-4.03-2.89-4.93-3.96-1.08.76-2.66,1.68-4.73,2.32-1.37.42-2.62.61-3.64.69.46,1.16,2.14,5.75,0,10.38-.67,1.46-1.56,2.56-2.34,3.35-1.73-1.43-3.68-2.89-5.88-4.31-4.75-3.09-9.32-5.16-13.21-6.57.18,1.71.25,4.33-.5,7.37-.61,2.45-1.56,4.37-2.34,5.69-1.36-1.98-4.5-5.96-10.04-8.54-.59-.28-5.05-2.87-5.88-1.88-.54.64,1.01,2.09,1.12,4.4.12,2.45-1.43,4.51-2.71,5.83.04-.94-.02-2.83-1.22-4.61-.12-.18-2.07-2.99-3.78-2.51-1.07.3-1.52,1.72-1.81,2.65-1.11,3.64-.11,7.36.98,9.96-2.97-.71-7.86-2.43-10.54-6.84-.23-.37-.43-.75-.61-1.13-.94.64-2.56,1.92-3.85,4.08-1.2,2.01-1.58,3.89-1.71,5-.82-1.08-2.03-2.96-2.57-5.5-1.99-9.39,7.99-15.22,5.73-21.16-1.98-5.2-11.65-6.09-16.2-5.79-2.24.15-7.33.49-10.61,4.34-.96,1.13-1.51,2.27-1.83,3.09-1.15-.77-2.29-1.54-3.44-2.31-2.74-1.71-5.91-3.48-9.5-5.15-2.81-1.3-5.5-2.36-7.99-3.23Z" fill="#1c1d1f"/>
      <path d="M166.99,332.76c8.74-.43,15.33-7.82,15.98-16.31,3.76.89,6.78,4.21,7.13,8.09,0,0-.79-.35-.79-.35,1.98-1.48,3.73-3.26,5.11-5.29,1.47-2.07,2.25-4.31,3.01-6.74.84-2.48,2.43-4.73,4.41-6.43,2.29-2.01,5.02-3.35,7.79-4.48,0,0-.17,1.25-.17,1.25-.47,3.18.92,6.5,3.58,8.31,0,0-.83-.03-.83-.03,7.05-4.1,10.39-12.7,8.55-20.55,3.5,1.21,6.82,3,9.55,5.54,2.39,2.18,4.33,4.84,5.7,7.76l-1.59-.03c5.87-11.48,18.35-17.02,30.87-14.48,0,0-2.23,1.22-2.23,1.22-5.15,2.72-6.36,9.65-2.52,14,0,0-.93-.14-.93-.14,10.56-6.13,17.69-17.63,18.33-29.86,0,0,.04-.61.04-.61,0,0,.57.19.57.19,5.91,1.9,10.68,6.98,11.94,13.09,0,0-.55-.24-.55-.24,5.86-3.39,9.64-9.98,9.59-16.76,0,0,0-.58,0-.58l.48.32c6.94,4.51,11.19,12.75,10.65,21.03,0,0-.56-.29-.56-.29,6.88-5.59,14.94-9.73,23.52-12.05.09,5.66-1.35,11.34-4.19,16.27,0,0-.51-.83-.51-.83,9.91-.84,19.61,4.57,24.74,12.98-6.12-1.49-12.66-1.16-18.57,1.02-1.53.67-3.95,1.52-3.73,3.33.61,1.67,2.49,3.1,4.12,3.83,1.68.74,3.62.79,5.44.73,0,0-.68,1.27-.68,1.27-4.57,10.6-16.97,14.41-27.6,15.05,0,0,.52-1.79.52-1.79,5.04,3.48,4.58,10.09,1.2,14.61,0,0-.9-.76-.9-.76-5.06-4.49-11.86.39-14.26,5.44,0,0-.3.58-.3.58-2.68.02-5.36-.52-7.79-1.69-2.22-1.06-4.21-2.6-5.78-4.49,0,0,1.4.18,1.4.18-2.61,1.83-5.71,2.95-8.89,3.19,0,0,.88-1.42.88-1.42,2.03,4.88,1.36,11.07-2.58,14.83,0,0-.66.65-.66.65,0,0-.71-.59-.71-.59-5.58-4.62-11.97-8.25-18.77-10.74l1.32-1.04c.58,5.23-.89,10.53-3.78,14.87-1.6-2.49-3.53-4.8-5.88-6.62-1.96-1.59-4.25-2.68-6.49-3.83-.86-.45-2.35-1.03-3-1.08.02-.03.06-.07.09-.14.06-.12,0-.16.04-.07.29.81.8,1.75,1.01,2.69.37,1.42.19,3-.4,4.29-.82,1.96-2.41,3.42-3.83,4.88,0,0,.11-2.07.11-2.07.2-2.48-1.24-5.37-3.5-6.35-.73-.21-1.08.28-1.41.92-1.54,3.37-.97,7.35.44,10.71,0,0,.47,1.14.47,1.14,0,0-1.18-.29-1.18-.29-4.69-1.12-9.38-3.81-11.47-8.35,0,0,.75.2.75.2-2.94,1.94-4.96,5.19-5.43,8.7l-.14,1.03s-.61-.83-.61-.83c-3.05-3.9-3.65-9.45-1.49-13.89,1.41-3.33,3.85-6.09,4.94-9.53.31-1.13.33-2.33-.04-3.46l.19-.07c.9,2.37-.15,4.85-1.27,6.94-2.26,4.06-5.1,8.34-4.36,13.17.25,2.32,1.29,4.5,2.71,6.33,0,0-.75.2-.75.2.4-3.76,2.54-7.3,5.69-9.45,0,0,.48-.33.48-.33,0,0,.27.53.27.53,2.03,4.21,6.41,6.59,10.83,7.58,0,0-.72.85-.72.85-.78-1.82-1.35-3.76-1.52-5.78-.45-4.55,1.85-11.3,6.69-5.79,1.43,1.57,2.12,3.8,2,5.88,0,0-1.34-.58-1.34-.58,1.7-1.73,2.93-4.02,2.31-6.2-.2-.97-.76-1.68-1.05-2.72-.05-.21-.11-.6.08-1.01,1.2-2.1,5.36.58,6.9,1.28,4.22,1.93,7.95,5.04,10.6,8.87,0,0-1.56.05-1.56.05,2.53-4.2,3.26-9.26,2.48-14.05,7.58,2.56,14.72,6.46,20.9,11.56,0,0-1.37.07-1.37.07,1.61-1.6,2.65-3.69,2.97-5.91.44-2.69-.29-5.52-1.38-8.02,3.28-.11,6.56-1.01,9.24-2.95,0,0,.78-.55.78-.55l.62.73c2.77,3.33,7.02,5.34,11.35,5.39,0,0-.96.57-.96.57,3-6.32,11.35-11.47,17.47-6.02,0,0-1.51.2-1.51.2,2.29-3.35,2.42-8.45-1.27-10.89,0,0-2.28-1.62-2.28-1.62,10.87-.36,24-3.08,28.86-13.96,0,0,.84,1.26.84,1.26-3.96.03-8.27-2.09-9.71-6.01-.83-5.27,9.89-6.65,13.59-7.06,2.99-.23,6.01,0,8.93.62l-.73,1.09c-5.06-7.69-14.38-12.15-23.55-11.19,2.99-4.77,4.7-10.35,4.76-16,0,0,.58.44.58.44-8.27,2.19-16.08,6.15-22.74,11.54l-.61.49c.36-4.25-.4-8.59-2.34-12.4-1.8-3.57-4.56-6.67-7.91-8.86l.48-.26c.02,3.48-.88,6.96-2.6,10-1.79,3.19-4.49,5.85-7.67,7.66,0,0-.11-.5-.11-.5-1.23-5.84-5.82-10.64-11.5-12.36,0,0,.61-.42.61-.42-.46,12.61-7.68,24.59-18.5,31.08,0,0-.53.32-.53.32-3.56-3.61-4.33-9.68-1.16-13.77.96-1.29,2.16-2.36,3.59-3.16l.28,1.57c-11.63-1.63-22.61,5-27.39,15.57-2.45-6.18-7.37-11.29-13.64-13.62,0,0,1.11-.91,1.11-.91.63,4,.09,8.18-1.61,11.86-1.77,3.83-4.79,7.03-8.45,9.11-3.33-2.08-5.18-6.18-4.52-10.05,0,0,.98.76.98.76-2.28.93-4.47,2.1-6.32,3.67-3.11,2.38-4.14,5.9-5.45,9.42-1.59,3.55-4.23,6.58-7.35,8.84,0,0-.71.52-.71.52,0,0-.08-.87-.08-.87-.27-3.35-2.7-6.32-5.91-7.31,0,0,.51-.33.51-.33-1.01,8.51-7.97,15.75-16.7,15.96,0,0-.01-.2-.01-.2h0Z" fill="#1d1d1b"/>
    </g>
    <g id="uuid-16424e2d-377b-4c86-af85-a8e027241502" data-name="Orella">
      <path d="M186.69,348.27c.05-1.39.32-3.32,1.38-5.24,4.15-7.54,16.92-7.01,20.31-6.88,17.65.67,28.25,13.94,29.77,15.91,3.42,4.43,7.67,11.9,5.58,13.96-2.06,2.03-8.07-.9-8.51-1.12-4.58-2.28-4.43-4.94-7.98-6.03-2.75-.84-5.34.09-10.5,1.96-6.05,2.19-6.88,3.79-10.23,4.05-2.37.18-5.63-.34-9.68-3.25" fill="#2d8d64"/>
      <path d="M193.43,339.3c-.72.68-3.21,3.02-2.52,4.91.56,1.55,3.06,2.28,5,2,2.75-.39,3.14-2.62,6.06-4.09,3.02-1.52,6.14-.9,8.85-.36,2.71.54,4.35,1.4,10.74,5.21,8.06,4.8,12.12,7.24,13.9,8.86,4.39,3.99,6.61,7.72,7.42,7.26.65-.37-.19-3.11-1.01-5.41l-11.78-13.48-13.61-6.82-8.97-1.24c-2.72-.4-9.61-1.04-14.06,3.15Z" fill="#68b669"/>
      <path d="M186.69,347.86c0-11.13,13.67-12.98,22.32-12.38,12.45.54,24.15,7.69,31.26,17.8,2.22,3.55,4.86,7.18,4.94,11.63-1.01,6.4-13-.42-15.28-3.17-2.78-3.38-6.53-2.67-10.36-1.25-3.96,1.16-7.43,3.05-11.28,4.47-4.11,1-8.32-.82-11.46-3.31,4.73,3.2,9.91,4.22,14.82.85,2.41-1.28,4.96-2.26,7.48-3.24,3.21-1.3,7.27-2.43,10.36-.11,2.58,2.31,4.84,4.28,8.16,5.46,1.63.6,3.53,1.39,5.13.89,1.19-.52.1-3.11-.3-4.23-4.15-9.65-12.4-17.45-22.06-21.56-9.39-4.09-32.71-6.17-33.73,8.17h0Z" fill="#0d565b"/>
      <path d="M213.18,348.48c-3.39-3.24-8.61-4.21-12.79-2.03-1.58.76-2.63,1.96-2.77,3.68-.15.86-.48,2.59-.66,3.45-.11.61-.27,1.33-.74,1.79-.95.96-2.42,1.24-3.51,1.02,1.72-.42,3.38-.92,3.4-2.94,0,0,.21-1.76.21-1.76.21-1.08.29-2.6.84-3.57,2.1-3.1,6.54-3.85,9.98-3.22,2.35.54,4.46,1.82,6.11,3.51.04.04-.02.12-.07.07h0Z" fill="#0d565b"/>
      <path d="M187.6,343.31c-5.97-3.67-12.23-6.47-18.8-8.76-4.1-1.46-8.63-3.07-12.8-1.34-2.03.78-3.59,2.64-5.36,3.95-1.83,1.47-3.73,2.85-5.7,4.1-1.99,1.23-3.97,2.46-6,3.61,3.54-3.01,7.28-5.74,10.68-8.9,0,0,2.54-2.37,2.54-2.37,2.6-2.71,6.88-3.59,10.47-2.9,9.14,2.2,17.85,6.51,24.97,12.62h0Z" fill="#0d565b"/>
    </g>
    <path d="M142.79,368.3c-1.88,2.75-.99,6.52-.73,7.46.93,3.37,3.26,5.18,4.49,6.14,3.75,2.92,7.82,3.07,9.31,3.04,2.02-.04,4.57-.09,6.44-1.97,1.74-1.74,2.09-4.23,2.15-4.65.05-.4.06-1.09,0-2.15-.16-2.82-1.66-5.66-2.68-6.98-3.99-5.14-15.46-6.04-18.97-.89Z" fill="#1d624d"/>
    <g id="uuid-17db77ab-7cc2-47bd-a5e1-2e0ee255c79f" data-name="Ull dret">
      <path d="M144.65,355.84c-.93,1.31-3.4,5.16-3.19,10.49.07,1.77.25,6.3,3.84,9.82.52.51,4.91,4.69,10.16,3.5,4.92-1.11,8.77-6.51,8.51-13.06-1.95.06-6.59-.07-11.47-2.89-4.51-2.61-6.87-6.17-7.85-7.87Z" fill="#fff"/>
      <g clip-path="url(#uuid-8fc45c5a-262f-4300-a6f9-402e8af65ffe)">
        <path d="M144.65,355.84c-.93,1.31-3.4,5.16-3.19,10.49.07,1.77.25,6.3,3.84,9.82.52.51,4.91,4.69,10.16,3.5,4.92-1.11,8.77-6.51,8.51-13.06" fill="#ec7376"/>
      </g>
      <path d="M143.03,352.89c4.87,9.21,15.31,14.63,25.65,13.33-1.26.35-2.56.52-3.86.63-9.28.68-18.59-5.18-21.78-13.96h0Z" fill="#0d565b"/>
      <path d="M144.69,355.87c-3.51,5.07-4.14,12.19-1.08,17.58,2.99,5.09,10.49,8.09,15.39,3.9,2.38-1.83,3.93-4.72,4.54-7.67.25-1,.31-2.04.37-3.08,0-.06.1-.06.1,0,.83,6.17-3.54,13.84-10.45,13.76-4.35-.19-8.37-2.88-10.52-6.59-3.03-5.46-2.19-13.43,1.64-17.9h0Z" fill="#0d565b"/>
    </g>
    <g id="uuid-c0224bb0-84ac-450b-8d70-c7bed21fdb4a" data-name="ull esquerra">
      <path d="M122,358.18l5.8-2.45,2.89-1.92c.64-2.34.5-4.77-.79-6.52-.24-.32-1.24-1.69-2.92-1.97-3.58-.61-7.61,4.16-8.53,8.74-.1.5-.57,2.86-.07,4.84l3.62-.72Z" fill="#fff"/>
      <g clip-path="url(#uuid-00cc533b-0865-467f-b5df-27963f302571)">
        <path d="M121.67,346.42c-.93,1.31-3.4,5.16-3.19,10.49.07,1.77.25,6.3,3.84,9.82.52.51,4.91,4.69,10.16,3.5,4.92-1.11,8.77-6.51,8.51-13.06" fill="#ec7376"/>
      </g>
      <g clip-path="url(#uuid-4e326278-a590-460a-b949-eb8866e8a02e)">
        <path d="M122,358.18l5.8-2.45,2.89-1.92c.64-2.34.5-4.77-.79-6.52-.24-.32-1.24-1.69-2.92-1.97-3.58-.61-7.61,4.16-8.53,8.74-.1.5-.57,2.86-.07,4.84l3.62-.72Z" fill="#4aa367"/>
      </g>
      <path d="M118.38,358.89c-.5-1.98-.03-4.34.07-4.84.92-4.57,4.95-9.35,8.53-8.74,1.67.29,2.68,1.65,2.92,1.97,1.29,1.75,1.43,4.18.79,6.52" fill="none" stroke="#0d565b" stroke-linecap="round" stroke-linejoin="round"/>
      <path d="M127.14,354.08l4.57-3.4c.34,1.31.61,2.93.58,4.78-.09,5.47-2.73,9.46-4.03,11.17-.15.72-.29,1.45-.44,2.17l-4.37,2.31-3.94-7.08c-1-1.88-2-3.76-3.01-5.64,3.54-1.44,7.09-2.87,10.63-4.31Z" fill="#2d8d64"/>
      <path d="M128.88,346.21c-.51.37-1.21.87-2.07,1.43-.87.57-1.44.94-2.28,1.39-.55.29-1.43.74-2.57,1.17-.9.35-1.73.6-2.45.79" fill="none" stroke="#0d565b" stroke-linecap="round" stroke-linejoin="round"/>
      <polygon points="127.5 343.27 127.71 346.21 128.02 349.54 126.32 354.29 128.02 356.08 133.67 350.68 133.67 346.42 127.5 343.27" fill="#2d8d64"/>
      <path d="M148.91,337.58c-5.32,1.34-11.2.35-16.32-1.27-3.53-1.09-8.08,3.35-7.53,6.77.25.7.97.79,1.66,1.21,4.05,2.35,1.16,7.71-.81,10.49.88-2.53,3.29-7.51.11-9.1-.89-.33-2.22-.83-2.58-1.95-1.25-4,2.71-8.54,6.45-9.38,2.96-.6,5.69,1.19,8.34,1.81,3.42.97,7.01,1.39,10.68,1.41h0Z" fill="#0d565b"/>
      <path d="M131.71,350.68c-8.02,9.52-23.57,11.64-33.78,4.59,11.39,4.19,23.91,2.46,33.78-4.59h0Z" fill="#0d565b"/>
    </g>
    <g id="uuid-fd3683b8-6a19-447c-84ed-42745b0951d2" data-name="Nas">
      <path d="M9.75,374.13c-4.71,4.69-7.05,11.19-6.18,17.73.64,4.42,1.1,10.28,5.78,12.24,1.46.58,3.16.56,4.81.26-1.52.72-3.31,1.06-5.09.68-5.61-1.4-6.84-8.05-7.49-12.96-.92-6.86,2.16-14.39,8.17-17.95h0Z" fill="#0d565b"/>
      <path d="M36.88,346.19c-8.31-11.52-25.07-12.52-32.67.07-5.33,9.12-1.6,20.67,5.55,27.87-9.92-7.43-13.76-23.09-4.41-32.63,9.36-9.96,25.18-6.98,31.54,4.69h0Z" fill="#0d565b"/>
      <path d="M56.65,346.93c-3.7-9.09-15.4-9.5-19.77-.74.24-2.29,1.5-4.51,3.38-6.04,5.94-5.13,16.07-1.16,16.39,6.78h0Z" fill="#0d565b"/>
      <path d="M91.23,363.1c5.18-4.94,8.46-11.68,8.64-18.68.36-6.48-1.4-14.68-8.47-16.55-6.66-1.73-13.8,1.45-19.76,4.4-6.23,3.36-11.31,8.59-14.98,14.65,3.68-8.19,10.65-15.01,19.06-18.49,5.06-2.21,10.59-3.97,16.23-2.48,9.99,2.85,10.9,15.56,8.49,23.98-1.57,5.21-4.91,9.9-9.2,13.17h0Z" fill="#0d565b"/>
      <path d="M15.65,366.64c-3.67-.85-6.93-4.26-7.47-8.18-.55-4.01,1.1-8.6,4.96-10.39,4.37-2.17,10.33.02,11.78,4.73-3.06-4.91-10.83-5.42-13.69-.37-2.96,5.02-.73,11.45,4.43,14.21h0Z" fill="#0d565b"/>
      <path d="M70.15,346.67c3.12-6.33,14-13.17,18.91-4.99,2.65,4.41.13,10.11-4.76,11.36,3.78-2.25,5.54-6.75,3.13-10.4-4.39-6.52-13.29-.04-17.29,4.03h0Z" fill="#0d565b"/>
    </g>
  </g>
  <g id="uuid-2e89cdd6-5c02-4e4a-bd05-40ba8ee572b6" data-name="Cap dreta">
    <path d="M495.28,347.85c-4.08-9.38-3.78-20.65-3.76-41.38.01-14.02,1.64-24.6,3.16-31.93,5.17-24.83,12.22-31.88,14.29-33.72,2.42-2.16,7.83-6.86,15.57-7.24,4.19-.21,7.38.93,9.84,1.84,2.35.87,11.78,4.5,18.23,14.18,5.44,8.17,3.79,11.42,10.22,25.37,1.1,2.4,2.62,4.97,4.86,7.84,2.68,3.44,8.21,10.85,17.74,14.57,2.06.8,14.29,5.58,26.17-.38,11.68-5.86,18.46-19.8,17.32-30.79-.09-.88.02-1.19-8.09-27.98-1.49-4.94-8.26-27.63-5.35-54.57,1.81-16.78,3.2-29.64,12.98-36.73,8.23-5.96,17.23-4.14,19.07-9.71,1.44-4.34-2.92-9.42-11.3-18.96-10.52-11.97-18.61-17.63-17.91-18.68.66-.98,8.96,2.23,16.65,8.22,5.99,4.66,10,9.75,19.99,25.31,5.9,9.18,8.89,13.75,12.41,19.96,6.05,10.68,13.54,25.43,20.59,44.08,2.87.26,6.96.97,11.28,3.11,17.39,8.6,21.44,31.78,23.89,45.42,3.05,17.06,1.44,31.47-.27,40.56,3.85,14.85,7.7,29.7,11.54,44.54-9.99,7.08-19.98,14.17-29.98,21.25-14.31,6.23-28.63,12.46-42.94,18.69-4.85-1.77-9.69-3.54-14.54-5.32-8.15-2.06-16.29-4.12-24.44-6.18-4.34.5-9.02,1.27-13.95,2.43-12.83,3.02-23.39,7.7-31.5,12.18-5.64,2.08-11.28,4.16-16.92,6.23-6.73-.48-52.73-4.31-64.87-32.22Z" fill="#1d624d"/>
    <path d="M742.05,416.85c-1.35-7.94-1.93-14.63-2.21-19.34,3.6-3.57,8.71-9.48,12.64-17.95,2.88-6.19,9.49-23.15,3.63-42.11-2.54-8.21-5.89-20.55-16.18-25.26-12.75-5.85-27.78,3.66-39.66,11.17-6.83,4.32-28.51,18.47-39.26,47.2-2.59,6.92-7.48,20.46-5.6,38.16,3,28.28,21.06,46.08,26.75,51.27,0,0,21.29,20.44,53.57,27.27,10.2,2.16,18.79.87,18.79.87,2.91-.64,5.82-1.29,8.73-1.93-5.87-15.92-10.36-29.5-13.64-39.96-3.9-12.44-5.96-20.02-7.55-29.38Z" fill="#1d624d"/>
    <path d="M558.33,380.07c18.92-6.61,37.84-13.22,56.76-19.83,2.47-.34,4.94-.68,7.42-1.01l14.81,3.18c7.81,2.65,15.62,5.31,23.43,7.96,1.77-3.78,3.46-6.92,4.85-9.33,2.02-3.51,3.6-5.85,4.01-6.45.97-1.43,1.94-2.77,2.91-4.04-1.97,1.18-5.29,2.84-9.59,3.45-9.01,1.26-15.01-3.35-27.94-8.08-10.84-3.96-16.25-5.94-19.33-5.88-15.48.33-20.59,14.65-36.93,13.96-1.99-.09-6.25-.32-10.75-2.84-9.9-5.56-12.19-17.31-12.67-20.12l3.64,21.58c.8,8.02.81,16.55-.34,25.47-.09.67-.18,1.33-.28,1.99Z" fill="#115666"/>
    <path d="M673.08,361.91c4.09-7.49,10.14-18.59,18.58-18.7,3.61-.05,7.94,1.91,8.75,4.79.66,2.38-1.44,4.98-4.29,8.58-3.05,3.85-3.74,3.22-5.15,5.57-2.15,3.58-1.22,6.14-2.12,13.07-.29,2.24-.85,5.54-2.04,9.55-.96.29-2.4.9-3.35,2.24-2.44,3.44.62,8.53,2.33,16.05.7,3.07,1.43,7.69,1.15,13.64-1.15,1.01-4.14,3.24-3.76,6.52.46,3.93,6.49,5.53,9.63,13.4h0c2.11,4.31,5.01,9.34,8.99,14.55,2.77,3.62,5.56,6.68,8.15,9.24-2.51,6.65-2.15,9.01-1.13,9.79,1.36,1.04,3.74-.84,7.95-.12,1.92.33,3.44,1.06,4.47,1.68,5.86,8.23,15,12.6,23.54,11.07,5.41-.97,9.14-4.06,11.02-5.91.62,1.36,1.44,2.87,2.54,4.42,2.25,3.16,3.88,3.96,3.74,4.33-.72,1.95-53.89,3.33-82.12-35.43-3.42-4.69-20.36-28.95-16.47-59.59,1.75-13.82,6.66-23.38,9.57-28.71Z" fill="#2d8d64"/>
    <path d="M681,260.42c.75,11.14,3.7,26.81,15.05,39,8.3,8.92,12.62,6.87,19.5,14.71,15.23,17.36,12.2,48.05,5.47,67.4-5.55,15.96-11.22,17.3-10.95,28.4.39,16,12.64,32.79,28.05,36.61,2.05.51,12.39,3.07,17.79-2.39,5.73-5.8,2.98-17.7,0-24.29-4.5-9.95-10.66-10.27-11.83-17.83-1.03-6.66,3.13-10.49,7.39-19.46,0,0,0,0,0,0,3.36-6.29,8.36-17.91,7.18-32.16-2.08-25.12-22.05-42.27-28.52-47.83-12.46-10.7-20.34-11.56-35.69-26.77-6.15-6.09-10.63-11.65-13.45-15.39Z" fill="#1d624d"/>
    <g id="uuid-6d347e9c-cd10-4e0a-b567-24b20161097b" data-name="Coll">
      <path d="M560.11,379.98c8.05-4.3,16.65-7.21,25.3-9.98,7.56-2.57,18.34-6.02,25.76-8.66.11-.05.2.14.08.18-7.21,3.1-17.86,7.12-25.3,9.98-8.42,3.4-16.95,6.41-25.76,8.66-.11.04-.18-.13-.08-.18h0Z" fill="#0d565b"/>
      <path d="M608.48,362.56c8.5-4.77,18.13-4.48,27.19-1.66,8.87,2.53,17.58,5.67,25.82,9.82-7.78-2.37-18.64-5.77-26.36-7.9-4.39-1.24-8.79-2.36-13.27-2.44-4.49-.07-9.01.73-13.39,2.17h0Z" fill="#0d565b"/>
      <path d="M704.26,326.03c-37.31,16.64-58.23,61.81-43.7,100.52,9.12,25.73,31.08,43.17,55.48,53.82,12.08,5.06,25.31,9.05,38.45,7.61,0,0,6.83-1.41,6.83-1.41,0,0-6.77,1.68-6.77,1.68-3.27.48-6.65.56-9.98.44-6.46-.19-13.42-1.9-19.6-3.76-9.56-2.97-18.71-7.21-27.27-12.4-23.47-13.75-41.36-37.57-43.3-65.24-3.16-34.08,18.2-68.55,49.87-81.25h0Z" fill="#0d565b"/>
      <path d="M680.32,258.66c8.62,12.14,19.72,22.33,32.44,29.89,6.36,3.94,12.33,8.48,17.97,13.38,24.41,21.24,39.2,48.61,21.34,79.36-3.71,6.48-8.38,12.38-13.6,17.69,4.88-5.6,9.36-11.58,12.75-18.16,5.25-9.66,8.11-20.77,6.81-31.77-3.59-25.58-25.73-45.36-46.09-59.21-12.64-7.91-23.68-18.55-31.62-31.18h0Z" fill="#0d565b"/>
    </g>
    <path d="M760.8,400.4c-2.93,1.85-7.18,5-11.17,9.92-3.93,4.86-8.71,10.77-8.29,18.73.37,7.04,4.61,12.1,6.83,14.36-3.73,1.88-12.5,5.67-23.99,4.66-14.61-1.29-24-9.51-26.83-12.19,2.18-.62,4.58-1.43,7.12-2.52,1.46-.63,2.81-1.28,4.06-1.93-3-.12-8.92-.77-14.74-4.49-10.04-6.42-11.98-16.96-12.33-19.14,1.49,1,5.17,3.18,10.38,3.21,3.13.02,5.66-.73,7.24-1.35-3-3.48-6.73-8.58-9.66-15.4-2.32-5.4-3.49-10.35-4.11-14.27.41.46,2.33,2.52,5.68,2.81,3.01.25,5.24-1.09,5.84-1.48-3.63-8.59-2.64-13.98-1.01-17.34,2.5-5.17,7.01-6.57,8.6-11.93,1.42-4.77-.45-9.36-2.2-12.44,1.11.06,2.97.31,4.98,1.28,2.12,1.03,3.44,2.4,4.13,3.23-2.22-4-4.48-9.8-2.54-15.64,2.19-6.57,8.06-8.18,12.08-14.05,3.19-4.66,5.56-12.51,1.27-26.4,2.13.95,12.23,5.76,15.8,17.02,1.91,6.02,1.15,11.35.5,14.23.82-.16,4.42-.97,7-4.26,2.86-3.66,2.28-7.59,2.17-8.26,1.28,2.03,3.05,5.4,3.94,9.9.66,3.34,1.62,8.24-.79,13.72-1.97,4.47-5.29,7.29-7.49,8.81,2.11-.3,4.38-.54,6.79-.69,1.62-.1,3.17-.15,4.65-.16-.43,1.61-1.47,4.59-4.07,7.54-2.18,2.47-4.54,3.88-6.02,4.61l4.79,2.17c-.15,1.58-.67,4.63-2.76,7.86-2.46,3.79-5.73,5.73-7.23,6.5.62.79,1.47,2.09,2.01,3.88.54,1.79.55,3.34.48,4.35.13-.34.75-1.86,2.47-2.75,2-1.03,3.9-.37,4.18-.27-.85,1.08-1.83,2.6-2.48,4.55-1.76,5.3.23,9.84.91,11.25.12.05,3.01,1.12,5.59-.74,2.59-1.87,2.34-4.87,2.33-5,.55.8,1.31,2.05,1.86,3.7,1.33,3.95-.86,6.41.15,9.72.4,1.29,1.34,3.02,3.85,4.72Z" fill="#1c1d1f"/>
    <path d="M725.65,308.99c2.58-2.7,4.06-5.52,4.91-7.57.8,2.25,2.11,6.86,1.31,12.66-.84,6.05-3.53,10.26-4.95,12.19,1.61.27,3.57.47,5.79.42,1.64-.04,3.11-.2,4.4-.42-.46,3.28-1.41,7.57-3.46,12.29-1.48,3.4-3.17,6.18-4.72,8.36,1.8.23,4.42.33,7.44-.41,1.54-.37,2.85-.89,3.92-1.4-.03.78-.21,3.39-2.2,5.76-1.92,2.29-4.33,2.94-5.11,3.12l7.31,1.56c-.83.92-3.02,3.11-6.64,4.05-3.01.78-5.52.31-6.72,0-.37,1.58-.86,4.65,0,8.35.85,3.66,2.62,6.17,3.64,7.42.05.92.04,2.9-1.05,5.03-.82,1.6-1.91,2.62-2.59,3.17-4.14.64-7.92-1.23-9.26-4.3-1.06-2.41-.28-4.79,0-5.54-3.72,1.3-5.85,5.04-5.14,8.5.58,2.8,2.95,5.06,5.98,5.65-.33.64-1.05,1.83-2.42,2.83-1.43,1.05-2.85,1.36-3.56,1.47.67.95,1.95,2.49,4.02,3.74,1.81,1.09,3.51,1.53,4.6,1.73-.33,4.48-2.91,8.25-6.6,9.6-2.79,1.02-5.34.35-6.39,0,.87,1.03,3.31,3.6,7.37,4.61,5.9,1.46,10.6-1.55,11.4-2.08-.25,1.06-1.42,5.51-5.78,8.43-5.4,3.62-11.24,1.91-12.02,1.67,1.03,1.21,3.82,4.18,8.54,5.49,5.83,1.62,10.62-.42,11.92-1.02-.09.7-.83,5.56-5.36,8.49-4.23,2.73-8.61,1.74-9.35,1.55,1.74,1.63,6.59,5.73,14.06,6.72,5.2.68,9.39-.44,11.64-1.23-.83,1.08-1.87,2.22-3.2,3.28-6.35,5.11-14.64,3.78-14.65,4.41,0,.48,4.8,1.44,12.09,1.33,6.61-.1,12.03-1.02,15.71-1.84l9.38-29.17c.93-5.61,1.86-11.22,2.79-16.83-.77-.47-1.62-1.06-2.49-1.8-1.45-1.24-2.5-2.52-3.23-3.59.37-1.48.82-4.09.28-7.25-.48-2.81-1.54-4.91-2.3-6.17-.09,2.59-1.53,4.83-3.68,5.72-1.92.79-3.71.22-4.24.02-.48-1.55-.97-3.1-1.45-4.65,1.01-3.71,2.01-7.43,3.02-11.14-.49-.18-1.68-.55-3.09-.19-2.45.63-3.44,2.91-3.56,3.2.07-.97.07-2.54-.48-4.35-.55-1.81-1.41-3.11-2.01-3.88,1.13-.36,4.95-1.71,7.61-5.69,2.48-3.71,2.45-7.44,2.38-8.67-1.6-.72-3.19-1.44-4.79-2.16,1.27-.38,4.08-1.43,6.52-4.14,2.86-3.19,3.43-6.73,3.57-8.01l-9.32.33c1.6-1.45,4.22-4.23,5.85-8.5,2.24-5.87,1.23-11.02.73-13.43-.93-4.46-2.83-7.82-4.35-9.99.01,1.16-.1,4.3-2.22,7.43-2.43,3.58-5.91,4.78-6.95,5.1.4-1.79,2.67-12.97-4.56-22.55-4.04-5.35-9.18-7.73-11.74-8.7,1.19,3.8,2.44,9.61,1.69,16.56-.3,2.75-.85,5.2-1.49,7.28,1.04-.75,2.17-1.69,3.3-2.87Z" fill="#050607"/>
    <path d="M760.8,400.4c-2.93,1.85-7.18,5-11.17,9.92-3.93,4.86-8.71,10.77-8.29,18.73.37,7.04,4.61,12.1,6.83,14.36-3.73,1.88-12.5,5.67-23.99,4.66-14.61-1.29-24-9.51-26.83-12.19,2.18-.62,4.58-1.43,7.12-2.52,1.46-.63,2.81-1.28,4.06-1.93-3-.12-8.92-.77-14.74-4.49-10.04-6.42-11.98-16.96-12.33-19.14,1.49,1,5.17,3.18,10.38,3.21,3.13.02,5.66-.73,7.24-1.35-3-3.48-6.73-8.58-9.66-15.4-2.32-5.4-3.49-10.35-4.11-14.27.41.46,2.33,2.52,5.68,2.81,3.01.25,5.24-1.09,5.84-1.48-3.63-8.59-2.64-13.98-1.01-17.34,2.5-5.17,7.01-6.57,8.6-11.93,1.42-4.77-.45-9.36-2.2-12.44,1.11.06,2.97.31,4.98,1.28,2.12,1.03,3.44,2.4,4.13,3.23-2.22-4-4.48-9.8-2.54-15.64,2.19-6.57,8.06-8.18,12.08-14.05,3.19-4.66,5.56-12.51,1.27-26.4,2.13.95,12.23,5.76,15.8,17.02,1.91,6.02,1.15,11.35.5,14.23.82-.16,4.42-.97,7-4.26,2.86-3.66,2.28-7.59,2.17-8.26,1.28,2.03,3.05,5.4,3.94,9.9.66,3.34,1.62,8.24-.79,13.72-1.97,4.47-5.29,7.29-7.49,8.81,2.11-.3,4.38-.54,6.79-.69,1.62-.1,3.17-.15,4.65-.16-.43,1.61-1.47,4.59-4.07,7.54-2.18,2.47-4.54,3.88-6.02,4.61l4.79,2.17c-.15,1.58-.67,4.63-2.76,7.86-2.46,3.79-5.73,5.73-7.23,6.5.62.79,1.47,2.09,2.01,3.88.54,1.79.55,3.34.48,4.35.13-.34.75-1.86,2.47-2.75,2-1.03,3.9-.37,4.18-.27-.85,1.08-1.83,2.6-2.48,4.55-1.76,5.3.23,9.84.91,11.25.12.05,3.01,1.12,5.59-.74,2.59-1.87,2.34-4.87,2.33-5,.55.8,1.31,2.05,1.86,3.7,1.33,3.95-.86,6.41.15,9.72.4,1.29,1.34,3.02,3.85,4.72Z" fill="none" stroke="#1d1d1b" stroke-miterlimit="10" stroke-width="2"/>
    <path d="M758.36,481.31c.9,1.3,2.31,3.3,4.74,5.3,8.06,6.63,17.79,5.41,25.94,5.86,14.56.81,25.39,7.04,32.08,10.88,16.89,9.71,14.86,18.66,32.92,30.69,9.9,6.59,18.5,9.23,28.45,12.27,9.76,2.99,27.77,8.31,50.49,5.58,10.34-1.24,22.86-2.92,32.36-12.55,2.51-2.54,7.07-7.3,7.81-14.51,1.02-9.84-5.79-17.29-8.09-19.53-1.07-1.05-3.94-3.66-17.3-8.37-12.3-4.34-16.74-4.75-24.27-7.25-12.42-4.12-21.12-9.67-25.87-12.75-7.64-4.95-18.8-13.47-29.48-27.37,5.93-25.22,13.92-45.39,20.68-59.9,0,0,14.69-31.55,37.73-58.26,4.27-4.95,7.57-7.37,7.57-7.37,3.81-2.79,5.06-2.59,6.66-4.64,2.94-3.76,2.7-9.51,1.12-13.54-2.91-7.44-10.58-9.54-11.44-9.76.4-3.55.52-9.86-3.07-15.62-7.23-11.59-23.59-11.48-29.29-11.44-17.35.12-29.56,10.07-33.75,13.85-19.84-2.94-34.83.31-43.24,2.89-9.62,2.95-21.8,6.98-25.94,17.57-1.25,3.19-1.44,6.15-1.4,8.18.02,2.68.41,8.04,3.54,13.75,2.5,4.57,5.7,7.45,7.72,9-.48.8-2.44,4.33-1.41,8.75.72,3.09,2.52,5.04,3.34,5.82.44,2.91.85,8.16-.89,14.33-1.68,5.93-4.59,10.07-6.44,12.32-3.9,4.54-9.57,10.23-17.32,15.58-7.59,5.24-14.77,8.49-20.33,10.52-7.19,2.64-10.33,6.32-14.17,10.92-3.26,3.9-8.08,9.66-7.48,16.89.4,4.75,2.99,8.44,7.04,14.19,2.23,3.17,4.39,5.61,6,7.29-1.03,5.61-2.71,19.33,4.98,30.42Z" fill="#2d8d64"/>
    <g id="uuid-4331d9a0-c6ff-4667-848e-8aa45622170e" data-name="Boca">
      <path d="M868.15,449.56l7.88-28.32,10.29-26.04,19.98-36.6,26.22-34.02-6.43,1.36-14.52.65-12.69-.49-14.91-2-7.6-1.33-5.99-.32-7.54,1.98-7.48,4.84-5.21,5.49-4.06,6.64-2.38,7.46-.5,4.23.5,16.29-.5,7.98-1.97,8.78-2.69,6.61-2.68,4.22-4.97,5.94-7.19,10.56-3.84,9.41-2.29,10.11-.77,13.47,1.1,12.24,1.44,5.8,3.12,5.99,4.69,5.26,5.68,3.54,3.46,1.76,5.32,3.76,4.22,4.98,2.75,5.53,4.35,5.6c1.27,1.2,2.94,2.59,5.07,3.88,1.65,1,3.2,1.72,4.56,2.25,2.94.79,5.88,1.59,8.82,2.38h8.84l9.43-1.74,17.39-3.58,14.56-2.88,13.21-1.81,10.51-.52,8.65.85-6.2-2.86-10.01-3.14-7.04-1.82-9.92-3.23-10.85-4.78-9.76-5.43-9.17-6.33-8.51-6.97-8.87-9.03-5.48-6.64Z" fill="#603e4d"/>
      <path d="M965.07,505.3c-1.07-1.05-3.94-3.66-17.3-8.37-12.24-4.31-14.31-3.7-24.27-7.25-8.66-3.09-15.18-6.32-21.48-10.04-16.27-9.62-27.6-22.17-33.87-30.08,5.16-23.1,15.12-54.28,35.47-86.78,9.48-15.13,19.49-27.79,28.9-38.2" fill="none" stroke="#3d1c3f" stroke-miterlimit="10"/>
      <path d="M832.64,425.41c-3.29.65-4.67,15.3-.67,28.26,3.07,9.94,8.65,16.81,12.4,20.69l5.87,4.61c-.11.58-.31,1.5-.75,2.57-.61,1.49-1.02,1.71-.95,2.17.23,1.52,5.08,1.06,8.23,2.72,2.35,1.24,4.92,4.28,5.77,12.23,1.31,3.67,3.03,4.95,4.35,5.44,2.1.77,3.29-.42,8.49-1.1,3.01-.39,5.18-.67,7.6,0,1.56.44,4.16,1.53,6.68,4.72l51.42-7.68c-.37-1.7-1.11-3.72-2.73-4.36-1.65-.65-2.85.69-6.08,1.22-3.78.62-7.47-.35-7.56-1.22-.09-.88,3.51-1.32,3.61-2.72.09-1.2-2.42-2.39-4.82-3.27-2.43.56-6.6,1.19-11.61.27-6.01-1.1-10.2-3.86-12.27-5.46l-7.42-7.36-11.11-10.34c-8.01-.8-18.19-3.19-27.06-10.22-15.79-12.52-17.53-31.92-21.38-31.16Z" fill="#442835"/>
      <path d="M851.88,356.87c2.34,3.48,5.74,1.87,9.3,5.25.26.25,4.1,4.01,3.26,8.27-.54,2.73-2.75,4.38-3.19,4.7-3.71,2.67-7.46.59-10.36,3.57-.44.45-1.48,1.52-1.19,2.4.68,2.04,7.45-.25,9.16,2.24,2.17,3.16-4.31,13.33-9.4,12.91-2.39-.2-3.98-2.69-5.42-1.91-1.35.73-1.11,3.56-1.09,3.79.3,3.1,2.89,3.7,2.71,5.81-.24,2.83-3.11,3.92-6.07,7.12-1.78,1.93-4.04,5.09-5.44,10.27l-1.12,7.98c-.89-.43-1.78-.87-2.67-1.3.12,1.25.86,7.62,5.8,10.51,2.17,1.27,4.27,1.35,6.54,1.42,2.81.08,7.95-.22,14.08-3.33l9.04-5.26c2.13-2.7,3.68-5.11,4.75-6.94,1.9-3.23,1.65-3.9,3.7-8.41,4.3-9.49,6.53-9.92,6.33-13.93-.1-2.11-.83-4.21.47-6.12.67-.98,1.54-1.43,2.52-3.02.71-1.16,1.06-2.24,1.24-2.96-2.38-3.12-2.84-7.25-1.18-10.64,2.11-4.3,6.6-5.28,7.14-5.38-.04-.74-.06-1.87.08-3.22.21-2.14,1.11-8.06,5.73-12.88,1.72-1.79,3.36-2.81,4.92-3.79,4.94-3.08,8.77-3.53,8.61-4.61-.28-1.87-7.09-.84-8.61-4.36-.77-1.78.12-3.77.68-4.99,2.8-6.08,10.12-7.97,12.03-8.41-.39-.6-1.04-1.46-2.04-2.24-4.88-3.84-12.44-1.51-15.46-.57-7.3,2.25-6.48,3.91-11.3,5.63-7.24,2.59-10.34-4.4-20.9-2.61-5.65.96-8.68,3.62-9.32,4.21-2.91,2.66-4.1,5.74-4.55,7.15-1.08,3.39-.75,6.21-.57,7.68.26,2.03.51,4.08,1.79,5.99Z" fill="#442835"/>
    </g>
    <path d="M930.67,302.02c3.17,2.11,4.99,6.34,4.77,9.3-.31,4-11.7,6.13-12.37,6.25-16.34,2.94-25.67.27-41.99-.1-17.45-.4-26.32-.47-33.33,5.83-7.65,6.86-9.34,17.93-9.79,20.91-1.33,8.73,1.57,9.15.62,20.96-.83,10.3-3.64,18.46-5,22-6.34,16.53-11.28,21.09-14.94,29.79-3.74,8.89-6.36,22.63-.44,43.31-1.3-5.96-2.31-14.06-1.29-23.5,1.1-10.19,4.09-17.47,4.83-19.21,2.82-6.66,6.14-11.33,8.01-13.94,4.62-6.43,5.61-5.8,8.18-9.75,4.6-7.06,4.94-14.44,5.54-27.58.48-10.57-.61-11.72.89-17.85,2.17-8.87,6.33-14.1,7.5-15.51,1.9-2.28,4.95-5.88,10.26-8.24,4.57-2.04,8.59-2.18,11.19-2.24,5.87-.15,9.83,1.16,13.62,2.13,9.77,2.5,18.14,2.29,34.87,1.86,1.22-.03,6.43-.21,12.45-2.51,4.2-1.61,5.56-3.01,6.05-3.56,3.22-3.61,2.98-8.43,2.76-10.31-.02-.15-.05-.38-.09-.66-.84-5.25-4.34-8.53-5.33-9.45-2.64-2.41-5.46-3.47-7.17-3.95.07-.59.16-1.46.19-2.52.06-2.19.1-6.51-2.09-11-1.67-3.43-4.6-6.84-5.36-6.43-.99.53,5.9,8.45,3.57,16.37-.82,2.78-2.51,4.68-1.53,6.58.89,1.75,2.9,1.34,5.42,3.01Z" fill="#1d624d"/>
    <path d="M864.53,283.73c-.02.45-10.7-.72-26.53,1.97-9.66,1.65-14.63,3.61-18.94,6.28-4.19,2.6-9.68,5.94-11.04,11.98-1.28,5.68,1.34,11.39,2.57,14.02,2.77,5.91,5.89,7.42,5.49,11.35-.28,2.74-2.17,5.71-4.75,6.5-5.15,1.59-10.9-6.12-12.28-7.97-1.75-2.34-4.88-7.4-5.06-14.46-.05-1.89-.12-8.19,3.99-14.19,1.12-1.63,3.66-4.86,11.92-8.99,10.06-5.04,18.98-6.6,22.29-7.12,17.71-2.76,32.37.08,32.35.61Z" fill="#68b669"/>
    <path d="M807.3,334.31c.58.97-1.5,2.24-1.83,4.93-.22,1.8.48,3.32.67,3.81.27.66.84,1.45,1.96,3.03.79,1.12,1.17,1.59,1.38,1.9,1.63,2.33,1.3,5.62.93,8.86-.16,1.37-.47,3.44-1.35,6.58-1.41,5.03-3.11,8.67-3.49,9.47-1.44,3.04-4.49,9.45-10.59,15.2-3.99,3.76-7.54,5.69-14.05,9.24-8.44,4.6-10.66,4.45-16.55,8.66-5.07,3.62-7.6,5.43-9.24,8.66-2.29,4.51-1.51,8.25-5.2,15.01-.97,1.77-2.07,3.45-3.83,3.72-1.77.27-3.61-.96-4.56-2.33-2.15-3.09-.32-7.63.89-10.62,1.31-3.26,2.99-5.42,4.51-7.34,1.55-1.96,4.07-4.78,7.76-7.47,3-2.18,5.49-3.35,7.36-4.24,7.91-3.77,15.04-7.53,17.41-8.85,3.12-1.73,10.17-5.72,16.71-13.09,3.96-4.46,10.95-12.55,11.39-23.89.11-2.69-.18-4.91-.44-6.36-1.38-1.51-3.59-4.46-3.77-8.43-.11-2.45.51-6.49,2.32-6.95.57-.14,1.33.04,1.61.51Z" fill="#68b669"/>
    <circle cx="775.43" cy="432.85" r="1.55" fill="#c9e6eb"/>
    <circle cx="776.52" cy="435.78" r=".78" fill="#c9e6eb"/>
    <g id="uuid-1accd273-1380-49b0-a059-6b2ef1dfb660" data-name="Nas">
      <path d="M805.04,334.28c-2.83,4.91-1.57,10.69,2.33,14.51,3.82,18.7-9.83,33.23-24.2,42.87-4.71,3.35-9.82,6.23-15.16,8.45-5.22,2.22-10.61,4.09-14.91,7.85-5.75,5.36-12.4,12.8-12.2,21.12.11,2.75,1.23,5.39,2.57,7.87,2.83,4.92,6.11,9.67,9.91,13.96-2.04-2.01-3.95-4.17-5.7-6.46-3.38-4.63-7.42-9.3-7.95-15.3-.44-8.87,6.1-16.79,12.23-22.54,4.38-3.92,10.02-5.99,15.28-8.27,5.22-2.26,10.15-5.03,14.84-8.25,13.92-9.18,27.52-23.11,24.48-41.16,0,0,.12.23.12.23-3.92-3.84-4.75-10.34-1.64-14.87h0Z" fill="#0d565b"/>
      <path d="M930.47,296.08c1.86-22.56-18.62-28.1-37.14-25.92-10.58,1.27-20.47,6.31-28.33,13.42-.22.2-.51.28-.78.23-13.56-1.92-27.54-1.48-40.77,2.2-8.59,2.56-17.73,5.4-24.16,11.91-3.24,3.25-4.52,7.73-4.79,12.21-.7,9.15,3.3,18.42,10.54,24.14-7.62-5.42-12.05-14.85-11.6-24.2.16-4.71,1.51-9.6,4.84-13.07,6.47-6.93,15.85-10.05,24.69-12.71,13.45-3.82,27.73-4.5,41.53-2.36,0,0-.78.23-.78.23,8.18-7.27,18.46-12.49,29.42-13.63,18.96-1.84,40.25,4.44,37.33,27.55h0Z" fill="#0d565b"/>
      <path d="M832.69,296.07c-2.74.08-5.31.86-7.38,2.61-1.58,1.31-3.94,3.66-2.12,5.62,1,1.06,2.63,1.7,4.11,1.47,4.27-.74,7.66-4.41,11.19-6.8,2.46-1.4,5.37-2,8.14-1.78-3.62.58-7.04,2-9.35,4.66-3.36,2.97-7.97,7.3-12.9,5.5-9.48-4.52,1.74-13.27,8.3-11.28h0Z" fill="#0d565b"/>
      <path d="M888.45,289.15c4.11-1.26,8.43-1.92,12.71-2.22,2.16-.22,4.48-.2,6.62.26,1.87.27,3.97,1.28,5.77,1.3-.04.1.03-.03,0-.23-.61-5.27-9.66-5.9-13.8-5.57-2.05.24-4.05,1.02-5.8,2.27,1.45-1.59,3.46-2.71,5.62-3.24,4.04-.77,8.61-.61,12.31,1.26,1.33.73,2.53,1.74,3.17,3.27,1.19,2.79.12,4.92-3.03,4.05-2.55-.67-5.03-1.58-7.65-1.76-5.3-.19-10.6.07-15.91.61h0Z" fill="#0d565b"/>
    </g>
    <g id="uuid-31e3eed4-53a6-4f9b-81d3-39de3804d4a8" data-name="Ull">
      <path d="M775.24,430.01c-2.25-7.38.58-15.85,6.33-20.95,0,0,.64,1.72.64,1.72-6.12-.07-12.17,3.15-15.38,8.41-1.12,1.76-1.94,3.72-2.49,5.79.19-4.29,2.19-8.61,5.54-11.6,3.33-3.03,7.87-4.66,12.38-4.58.87,0,1.29,1.17.63,1.72-5.49,4.81-8.33,12.21-7.65,19.48h0Z" fill="#0d565b"/>
      <g id="uuid-db5e638c-7f38-4c11-83eb-6325e0562607" data-name="Llagrima">
        <g>
          <path d="M775.12,429.3c-2.05.3-2.96,2.16-3.07,2.39-.62,1.32-.29,2.55.34,4.88.42,1.57.64,2.36,1.28,2.82,1.38.99,3.89.43,4.96-1.03.48-.65.52-1.61.6-3.51.09-2.15.13-3.22-.43-4.02-.75-1.08-2.22-1.75-3.69-1.54Z" fill="#b9e1ed"/>
          <path d="M775.13,429.35c-1.24.16-2.18,1.15-2.64,2.2-.72,1.51,0,3.53.24,5.16.21,1.12.39,2.56,1.69,2.86,1.53.44,3.74-.59,4.11-2.05.23-1.6.23-3.66.24-5.36-.04-1.77-1.89-3.05-3.64-2.82h0ZM775.12,429.25c1.81-.31,4.38.68,4.61,2.8.11.67.08,1.3.08,1.92-.15,1.49.14,3.42-.9,4.76-1.45,1.67-4.92,2.08-6.03-.13-.68-1.81-1.54-3.5-1.58-5.46.04-2.02,1.98-3.63,3.83-3.9h0Z" fill="#7dcef3"/>
        </g>
        <path d="M775.13,429.35c-1.24.16-2.18,1.15-2.64,2.2-.72,1.51,0,3.53.24,5.16.21,1.12.39,2.56,1.69,2.86,1.53.44,3.74-.59,4.11-2.05.23-1.6.23-3.66.24-5.36-.04-1.77-1.89-3.05-3.64-2.82h0ZM775.12,429.25c1.81-.31,4.38.68,4.61,2.8.11.67.08,1.3.08,1.92-.15,1.49.14,3.42-.9,4.76-1.45,1.67-4.92,2.08-6.03-.13-.68-1.81-1.54-3.5-1.58-5.46.04-2.02,1.98-3.63,3.83-3.9h0Z" fill="#7dcef3"/>
      </g>
    </g>
    <g id="uuid-3d5cc8f0-e6f3-4b87-a199-4ed9e7de92d7" data-name="dents sota fons">
      <path d="M899.46,477.1c1.48-1.6,1.88-3.3,2.3-5.09.75-3.19.34-5.77-.05-8.03-.61-3.6-.92-5.4-1.91-5.69-1.81-.52-2.89,4.46-9.29,12.17-1.12,1.35-3.11,3.64-2.56,5.98.27,1.15,1.07,1.94,1.29,2.14,1.42,1.31,3.26,1.27,4.22,1.24,3.48-.09,5.73-2.45,5.99-2.73Z" fill="#fff"/>
      <path d="M901.72,463.98c-.61-3.6-.92-5.4-1.91-5.69-1.81-.52-2.89,4.46-9.29,12.17-1.12,1.35-3.11,3.64-2.56,5.98.27,1.15,1.07,1.94,1.29,2.14,1.42,1.31,3.26,1.27,4.22,1.24,3.48-.09,5.73-2.45,5.99-2.73,1.48-1.6,1.88-3.3,2.3-5.09.75-3.19.34-5.77-.05-8.03ZM900.27,471.25c-.31,1.32-.6,2.57-1.69,3.75-.19.2-1.85,1.94-4.4,2.01-.71.02-2.06.05-3.11-.91-.16-.15-.75-.73-.95-1.58-.41-1.72,1.06-3.4,1.88-4.4,4.7-5.67,5.5-9.34,6.83-8.95.73.21.96,1.54,1.41,4.18.28,1.66.58,3.56.03,5.9Z" fill="#e2e2e0"/>
      <path d="M938.15,501.66c-.59-.54-1.65-1.53-2.25-3.15-1.49-3.99,1.11-8.02,1.44-8.51,1.68-2.52,2.87-2,5.18-5.04,1.5-1.99,2.25-3.86,2.86-5.42,1.32-3.34,1.11-4.42,2.56-7.52,1.05-2.26,1.6-3.39,2.56-3.61,2.38-.54,5.38,4.53,6.17,5.87,4.69,7.93,3.87,15.77,3.46,19.71-.24,2.27-.7,4.42-2.26,6.32-1.26,1.54-2.71,2.27-3.61,2.71-4.73,2.31-11.87,2.52-16.1-1.35Z" fill="#fff"/>
      <path d="M956.65,474.27c-.79-1.34-3.79-6.41-6.17-5.87-.96.22-1.5,1.35-2.56,3.61-1.45,3.1-1.24,4.18-2.56,7.52-.59,1.49-1.3,3.29-2.69,5.19.24-.25.51-.55.79-.93,1.08-1.42,1.61-2.77,2.05-3.88.94-2.39.8-3.17,1.83-5.39.76-1.62,1.15-2.43,1.83-2.59,1.7-.39,3.85,3.24,4.42,4.2,3.36,5.68,2.77,11.3,2.48,14.12-.17,1.63-.5,3.16-1.62,4.53-.9,1.1-1.94,1.62-2.59,1.94-3.39,1.66-8.5,1.8-11.53-.97-.43-.39-1.18-1.09-1.61-2.26-.89-2.38.26-4.79.8-5.72-.73.52-1.41,1.04-2.2,2.21-.33.49-2.93,4.53-1.44,8.51.61,1.63,1.66,2.61,2.25,3.15,4.23,3.87,11.37,3.67,16.1,1.35.9-.44,2.35-1.17,3.61-2.71,1.56-1.9,2.02-4.05,2.26-6.32.41-3.94,1.23-11.78-3.46-19.71Z" fill="#e2e2e0"/>
      <path d="M915.11,491.62c2.91,3.58,8.37,2.36,9.04,2.2,2.32-.56,3.85-1.82,4.4-2.32.38-.34,1.64-1.53,2.66-3.86,2.35-5.35,1.01-11.22.7-12.47-1.38-5.61-5.07-11.84-7.18-11.35-1.3.3-.79,2.85-3.24,9.04-1.2,3.03-1.97,4.97-3.59,7.3-2.32,3.34-3.99,4.02-4.29,6.49-.32,2.67,1.3,4.73,1.51,4.98Z" fill="#fff"/>
      <path d="M931.91,475.17c-1.22-4.93-4.21-10.34-6.35-11.24,1.7,1.22,3.83,5.24,4.74,8.94.25,1.03,1.35,5.83-.57,10.2-.83,1.9-1.87,2.88-2.18,3.16-.45.41-1.7,1.44-3.6,1.89-.55.13-5.01,1.13-7.39-1.8-.14-.17-1.06-1.36-1.23-3-.94,1.08-1.56,1.91-1.73,3.32-.32,2.67,1.3,4.73,1.51,4.98,2.91,3.58,8.37,2.36,9.04,2.2,2.32-.56,3.85-1.82,4.4-2.32.38-.34,1.64-1.53,2.66-3.86,2.35-5.35,1.01-11.22.7-12.47Z" fill="#e2e2e0"/>
    </g>
    <g id="uuid-25c7c9f4-bd3e-41d8-9d57-7db62161d45b" data-name="dents dalt fons">
      <path d="M875.44,401.79c3.36-.9,6.33.62,8.01,1.51,8.54,4.53,12.29,15.94,10.1,17.77-1.26,1.06-3.28-2.1-9.06-2.67-6.2-.62-8.79,2.52-12.43.58-3.13-1.67-3.86-5.42-3.95-5.94-.88-4.97,2.85-10.06,7.32-11.25Z" fill="#fff"/>
      <path d="M877.07,418.98c-3.14-1.67-3.86-5.42-3.95-5.94-.86-4.86,2.68-9.81,7.01-11.15-1.39-.39-2.99-.56-4.69-.1-4.46,1.2-8.2,6.28-7.32,11.25.09.52.81,4.26,3.95,5.94,1.86.99,3.45.66,5.38.17-.13-.06-.25-.1-.38-.17Z" fill="#e2e2e0"/>
      <path d="M888.23,373.99c2.88-.55,5.25.55,6.95,1.35,3.69,1.72,5.59,4.39,7.77,7.44,4.13,5.78,4.16,9.56,4.11,10.77-.08,1.85-.54,2.36-.89,2.57-1.25.74-3-1.25-6.88-3.01-2.37-1.08-4.7-2.14-7.66-2.1-3.49.04-4.91,1.56-7.59.55-.45-.17-1.81-.75-2.85-2.11-1.64-2.15-1.34-4.74-1.22-5.77.47-4.06,3.58-8.78,8.27-9.68Z" fill="#fff"/>
      <path d="M902.95,382.78c-1.74-2.44-4.01-5.68-7.77-7.44-1.7-.79-4.06-1.9-6.95-1.35-4.68.9-7.8,5.61-8.27,9.68-.12,1.03-.42,3.63,1.22,5.77,1.04,1.36,2.4,1.94,2.85,2.11.15.06.29.1.43.14-.02-.03-.05-.05-.07-.08-1.37-1.81-1.12-3.99-1.02-4.86.39-3.42,3-7.39,6.92-8.15,1.95-.38,3.49.21,5.81,1.14,3.67,1.46,6.49,3.63,8.56,5.72-.38-.65-.95-1.6-1.72-2.68Z" fill="#e2e2e0"/>
      <path d="M912.84,327.96c3.98,0,6.84,2.09,8.9,3.58,4.46,3.24,6.31,7.28,8.43,11.9,4.01,8.76,3.07,13.8,2.69,15.39-.58,2.44-1.32,3-1.84,3.19-1.86.66-3.68-2.43-8.39-5.78-2.88-2.05-5.71-4.05-9.65-4.77-4.66-.85-6.94.82-10.24-1.22-.56-.35-2.22-1.46-3.25-3.54-1.63-3.28-.56-6.66-.14-8,1.67-5.29,7.03-10.76,13.49-10.75Z" fill="#fff"/>
      <path d="M930.17,343.45c-2.12-4.62-3.97-8.66-8.43-11.9-2.05-1.49-4.92-3.58-8.9-3.58-6.47-.01-11.82,5.46-13.49,10.75-.42,1.34-1.49,4.72.14,8,1.03,2.08,2.69,3.2,3.25,3.54.68.42,1.31.68,1.93.84-.51-1.98.06-3.83.32-4.64,1.24-3.87,5.24-7.87,10.09-7.84,2.99.02,5.15,1.56,6.69,2.66,3.36,2.4,4.76,5.36,6.37,8.76,3.04,6.44,2.36,10.14,2.08,11.3-.06.27-.13.5-.2.71.34.1.67.1,1-.01.52-.19,1.26-.75,1.84-3.19.38-1.59,1.32-6.63-2.69-15.39Z" fill="#e2e2e0"/>
    </g>
    <g id="uuid-f15450be-fb6f-4d18-b481-517529ad4a11" data-name="Llengua">
      <path d="M839.54,434.78c4.37-13.17,21.84-15.89,23.8-16.16,12.53-1.76,15.92,4.95,27.03,5.88,24.36,2.03,58.95-25.99,66.41-56.42,1.8-7.34,3.01-18.64,12.05-25.27,1.69-1.24,8.14-5.59,15.57-3.82,8.38,2,12.47,11.2,13.52,13.52,11.46,25.4-36.58,102.55-102.26,114.6-8.96,1.64-36.54,6.7-49.95-8.52-4.79-5.44-9.1-14.96-6.17-23.8Z" fill="#bb6590"/>
      <path d="M878.6,421.06c-2.3.13-10,.83-16.32,6.79-4.23,3.99-6.95,9.5-7.39,13.64,0,.05-.01.14-.02.25,0,0-.44,4.95,3.25,10.23,5.58,7.99,23.54,8.08,23.54,8.08,27.24.13,52.32-16.07,57.15-19.26,27.64-18.26,45.56-41.44,56.77-60.15-2.74,6.46-6.85,15.01-12.92,24.41-4.73,7.33-13.66,20.94-29.59,34.12-20.66,17.08-40.83,23.3-49.78,25.96-5.2,1.54-18.55,5.19-34.47,3.79-6.09-.53-11.16-1.68-16.14-4.73-2.42-1.48-7.97-4.97-11.22-12-.73-1.57-5.02-10.84-.75-20.12,5.73-12.45,21.59-13.49,23.94-13.6,6.1-.29,11.02,1.34,13.96,2.59Z" fill="#8f4c66"/>
      <path d="M839.54,434.78c4.37-13.17,21.84-15.89,23.8-16.16,12.53-1.76,15.92,4.95,27.03,5.88,24.36,2.03,58.95-25.99,66.41-56.42,1.8-7.34,3.01-18.64,12.05-25.27,1.69-1.24,8.14-5.59,15.57-3.82,8.38,2,12.47,11.2,13.52,13.52,11.46,25.4-36.58,102.55-102.26,114.6-8.96,1.64-36.54,6.7-49.95-8.52-4.79-5.44-9.1-14.96-6.17-23.8Z" fill="none" stroke="#854c78" stroke-linecap="round" stroke-linejoin="round"/>
    </g>
    <g id="uuid-c56b9f05-63f9-40a3-8dc4-2f1a0a9502cf" data-name="dents dalt davant">
      <path d="M853.51,379.45c3.32-.64,6.05.64,8,1.55,4.25,1.99,6.44,5.06,8.95,8.57,4.76,6.66,4.79,11.02,4.73,12.41-.09,2.13-.62,2.72-1.02,2.96-1.44.85-3.46-1.44-7.93-3.47-2.73-1.24-5.42-2.46-8.83-2.42-4.02.05-5.66,1.8-8.74.63-.52-.2-2.08-.86-3.28-2.43-1.89-2.47-1.54-5.46-1.41-6.65.54-4.68,4.12-10.11,9.52-11.15Z" fill="#fff"/>
      <g>
        <path d="M874.61,397.67c.21.97.25,1.69.27,2.12.07,2.13-.41,2.76-.8,3.02-1.38.96-3.56-1.18-8.17-2.87-2.82-1.04-5.58-2.05-8.98-1.76-4.01.34-5.51,2.22-8.67,1.28-.07-.02-.15-.04-.24-.08.28.14.51.23.66.29,3.08,1.17,4.71-.59,8.74-.63,3.41-.04,6.09,1.18,8.83,2.42,4.47,2.03,6.49,4.32,7.93,3.47.4-.24.93-.83,1.02-2.96.03-.7.03-2.17-.58-4.31Z" fill="#e2e2e0"/>
        <path d="M868.2,386.53c-.84-1.06-1.73-2.05-2.75-2.95.96.91,1.86,1.9,2.75,2.95Z" fill="#fff"/>
      </g>
      <path d="M870.47,389.57c-2.51-3.51-4.71-6.58-8.95-8.57-1.95-.91-4.68-2.19-8-1.55-1.31.25-2.51.76-3.58,1.46.51-.19,1.04-.35,1.58-.46.08-.02.18-.03.31-.05,3.37-.52,7.69,1.61,7.69,1.61,7.17,3.53,12.09,10.55,12.48,11.11.23.33,3.29,4.87,2.98,8.29-.07.73-.23,2.5-1.49,3.32-.24.15-.46.24-.62.29.5.15.93.15,1.31-.07.4-.24.93-.83,1.02-2.96.06-1.39.03-5.75-4.73-12.41Z" fill="#e2e2e0"/>
      <path d="M837.87,412.19c3.87-1.04,7.3.71,9.23,1.74,9.84,5.22,14.16,18.36,11.64,20.47-1.45,1.22-3.78-2.42-10.44-3.08-7.14-.71-10.13,2.9-14.32.67-3.61-1.93-4.44-6.24-4.55-6.84-1.02-5.73,3.29-11.58,8.43-12.96Z" fill="#fff"/>
      <path d="M847.11,413.93c-1.93-1.03-5.36-2.78-9.23-1.74-3.41.91-6.43,3.8-7.8,7.3,1.59-2.57,4.07-4.57,6.8-5.3,3.87-1.04,7.3.71,9.23,1.74,8.24,4.37,12.61,14.3,12.33,18.65.11-.04.21-.1.31-.18,2.52-2.11-1.8-15.26-11.64-20.47Z" fill="#e2e2e0"/>
      <path d="M866.1,333.81c3.98,0,6.84,2.09,8.9,3.58,4.46,3.24,6.31,7.28,8.43,11.9,4.01,8.76,3.07,13.8,2.69,15.39-.58,2.44-1.32,3-1.84,3.19-1.86.66-3.68-2.43-8.39-5.78-2.88-2.05-5.71-4.05-9.65-4.77-4.66-.85-6.94.82-10.24-1.22-.56-.35-2.22-1.46-3.25-3.54-1.63-3.28-.56-6.66-.14-8,1.67-5.29,7.03-10.76,13.49-10.75Z" fill="#fff"/>
      <path d="M883.43,349.29c-2.12-4.62-3.97-8.66-8.43-11.9-2.05-1.49-4.92-3.58-8.9-3.58-6.47-.01-11.82,5.46-13.49,10.75-.06.18-.12.39-.19.63,2.49-3.37,6.68-6.05,11.56-5.95,4.05.08,7,2.06,9.11,3.47,4.6,3.07,6.56,6.82,8.8,11.12,3.66,7,3.53,11.4,3.2,13.42.35-.46.72-1.22,1.04-2.56.38-1.59,1.32-6.63-2.69-15.39Z" fill="#e2e2e0"/>
    </g>
    <g id="uuid-149b95a9-a542-43dd-84db-c14aef01380a" data-name="dents baix davant">
      <path d="M839.49,477.11c-1.1-2.2-.99-4.18-.87-6.27.2-3.71,1.48-6.38,2.61-8.71,1.81-3.72,2.72-5.58,3.9-5.57,2.14,0,1.72,5.77,6.2,16.19.79,1.82,2.22,4.95.87,7.31-.66,1.17-1.78,1.76-2.09,1.92-1.96.98-3.95.33-4.98,0-3.75-1.21-5.45-4.49-5.64-4.88Z" fill="#fff"/>
      <path d="M859.91,500.62c-.69-1.02-.65-2.15-.55-4.42.14-3.35,1.03-4.47,2.37-9.48.44-1.65,1.22-4.79,1.81-7.23.83-3.47,1.12-4.86,2.03-5.1,1.27-.35,2.87,1.76,3.85,3.07,1.81,2.42,3.58,5.82,4.97,12.98.93,4.79,1.39,7.19.57,8.62-2.64,4.61-12.55,5.2-15.04,1.55Z" fill="#fff"/>
      <path d="M898.74,509.46c-2.14-.5-4.96-1.16-6.08-3.4-.84-1.68-.34-3.46,0-4.77,1.82-7.06,2.34-14.6,2.71-20.12.32-4.61.05-7.03,1.34-7.56,1.46-.59,3.64,1.72,5.8,4.05,6.12,6.61,8.43,12.87,10.51,18.73,1.17,3.29,1.67,5.39.83,7.56-.99,2.58-3.32,3.87-4.53,4.54-4.38,2.42-8.83,1.38-10.58.97Z" fill="#fff"/>
    </g>
    <path d="M854.53,509.9c2.04-2.73,8.76,1.82,20.85,2.02,6.73.11,6.63-1.27,24.08-4.3,9.39-1.64,15.68-2.33,21.52-2.96,16.87-1.82,20.81-1.05,23.54-.27,4.32,1.24,11.35,3.26,14.93,9.95,2.94,5.49,3.26,13.59-.81,18.02-4.78,5.21-13.89,3.49-21.79,2.29-47.35-7.19-65.1,2.27-77.61-12.64-3.18-3.79-6.49-9.72-4.71-12.1Z" fill="#2d8d64"/>
    <path d="M762.1,485.64c8.06,2.29,15.06,2.93,20.14,3.03,5.41.11,8.22-1.48,14.83-1.08,2.58.16,7.44.48,13.09,2.59,2.7,1.01,7.77,3.14,14.63,8.98,10.95,9.33,9.86,13.88,20.79,24.12,6.01,5.64,11.48,8.87,15.08,10.96,13.45,7.78,25.54,9.97,34.38,11.48,14.79,2.53,25.21,4.32,37.54.03,2.6-.9,21.18-7.6,21.4-18.28.09-4.4-3.03-8.09-4.2-9.48-2.38-2.81-6.46-6.02-16.54-7.96-.63-.12-1.41-.26-2.34-.41-4.88-.77-13.41-1.52-28.72.41-4.3.54-4.91.76-16.38,2.33-7.32,1-8.07,1.05-9.4.91-8.78-.9-16.46-7.05-16.43-7.11,0,0,0,0,.02,0,6.25,2.79,11.48,3.57,15.09,3.76,7.34.4,14.62-1.49,29.17-5.27,3.67-.95,9.73-2.5,18.35-4,1.27-.22,2.59-.42,4.15-.62,2.76-.36,13.5-1.66,26.56.33,5.11.78,7.78,1.63,10.34,3.39,5.95,4.07,7.93,10.64,8.47,12.43.52,1.71,1.42,4.73,1.03,8.62-.72,7.22-5.3,11.93-7.81,14.51-3.94,4.05-7.86,6.02-11.37,7.74-1.6.78-8.66,4.15-20.12,5.57-8.08,1.01-14.16.52-20.29,0-4.25-.36-20.51-1.94-40.4-9.31-9.21-3.42-14.11-6.19-16.4-7.56-5.43-3.24-10.11-6.03-14.64-11.33-3.44-4.02-3.8-5.96-8.02-10.63-3.4-3.76-6.68-6.38-8.95-8.02-9.09-7.22-17.08-10-22.76-11.19-13.69-2.87-21.58-2.83-21.58-2.83-2.54.01-6.86.18-11.85-1.88-3.09-1.28-5.38-2.97-6.86-4.25Z" fill="#1d624d"/>
    <path d="M758.44,481.26c9.68,14.08,23.59,9.13,37.67,11.57,9.16,1.52,17.73,5.48,25.67,10.14,4.03,2.29,7.81,5.12,11.03,8.51,3.23,3.38,5.84,7.21,8.83,10.62,5.91,6.9,13.52,12.19,21.64,16.18,8.21,3.94,17.13,6.37,25.85,8.93,13.16,3.65,26.94,5.23,40.55,3.97,13.45-1.2,27.66-3.7,36.74-14.43,6.42-6.71,7.71-16.25,2.99-24.29-7.28-13.75-22.03-13.36-35.62-12.09-9.13.69-18.1,2.85-27.08,4.53,0,0-13.51,2.71-13.51,2.71-4.05.66-9.55,2.17-13.61,2.45-4.62.45-9.37.08-13.81-1.33-6.56-2.15-12.94-6-16.77-11.88-1.24-2.01-1.92-4.23-3.06-6.18-2.3-3.89-5.74-7.11-9.73-9.27-1.99-1.11-4.11-2.02-6.11-3.2-6.08-3.51-10.16-9.82-12.06-16.47-4.06-21.61-1.28-45.35,14.51-61.79,7.37-8,10.16-19.07,10.28-29.73.07-5.38-.73-10.8-.56-16.38.16-5.58,1.78-11.17,4.68-15.95,5.7-9.33,16.09-17.47,27.55-16.11,5.49.61,10.74,1.96,16.18,2.68,5.37.79,10.78,1.21,16.22,1.4,10.43.07,32.83,2.06,35.56-11.22,1.04-5.25-.85-11.04-4.97-14.53-2.03-1.77-4.46-3.11-7.05-3.9-.13-.03-.07-.23.05-.19,5.27,1.49,10.11,5.24,11.95,10.53,1.86,5.19,1.16,11.82-3.49,15.35-8.47,6.23-22.01,5.27-32.09,5.28-5.47-.12-10.96-.47-16.39-1.22-5.39-.69-10.75-2.02-16.12-2.59-5.35-.64-10.54.99-14.97,3.96-8.89,5.82-15.06,15.87-15.34,26.59-.19,5.34.59,10.79.5,16.33-.14,8.28-1.81,16.73-5.95,23.98-2.76,4.8-6.96,8.49-10.19,12.89-4.81,6.52-7.96,14.19-9.65,22.1-2.27,10.61-1.89,21.68-.03,32.38,1.17,4.19,3.37,8.54,6.42,11.84,3.02,3.55,7.3,5.33,11.36,7.44,4.09,2.2,7.62,5.47,10.02,9.48,1.19,2.02,1.89,4.24,3.08,6.15,6.43,9.4,18.77,13.85,29.87,12.56,3.95-.3,9.53-1.85,13.48-2.57,17.83-3.53,36.26-8.76,54.55-8.3,7.05.21,14.42,2.31,19.35,7.65,4.85,5.21,8.08,12.27,7.21,19.54-.74,6.73-5.05,12.16-9.88,16.49-9.39,8.37-22.26,10.32-34.33,11.43-18.56,1.84-37.02-2.16-54.5-8.14-13.2-4.23-25.92-11.26-34.96-21.95-3.03-3.53-5.59-7.35-8.69-10.64-3.09-3.3-6.68-6.09-10.61-8.39-7.81-4.72-16.14-8.71-25.17-10.34-8.99-1.91-18.57.06-27.23-3.59-4.28-1.78-7.95-4.93-10.43-8.83-.07-.1.1-.22.17-.11h0Z" fill="#0d565b"/>
    <g id="uuid-d6c50445-ea42-44ec-a083-59c4aa633da6" data-name="Orella">
      <path d="M755.24,449.85c-8.17-5.5-15.54-6.66-19.34-6.95-18.49-1.42-33.39,11.34-39.28,22.28-.53.99-3.94,7.32-2.15,8.99,1.5,1.4,5.57-2.08,12.11-4.3,4.5-1.52,12.3-4.13,19.28-1.48,6.5,2.47,5.5,6.93,12.26,9.58,5.17,2.03,13.16,2.34,18.06-2.45,2.37-2.32,3.3-5.14,3.7-6.95" fill="#2d8d64"/>
      <path d="M755.24,449.85c-8.05-5.11-17.84-7.6-27.3-6.03-14.34,2.33-28.19,13.36-32.76,27.26-.18.88-.41,1.78-.01,2.35.11.07.24.06.43.04,3.65-1.09,7.13-3.49,10.88-4.56,9.47-3.35,20.75-4.77,26.92,4.91,4.81,5.65,15.32,6.72,21.37,2.52,2.59-1.8,4.33-4.69,5.11-7.79-1.07,6.88-7.2,11.24-13.98,11.29-3.28.07-6.59-.54-9.59-2.02-3.03-1.33-4.87-4.47-7.12-6.58-2.28-1.98-5.39-2.85-8.38-3.07-6.22-.34-12.44,1.79-18.1,4.28-2.48.97-4.93,3.03-7.75,2.99-2.28-.35-2.21-3.26-1.7-4.86,3.87-11.68,13.78-21,25.04-25.57,12.08-5.04,26.52-2.95,36.92,4.83h0Z" fill="#0d565b"/>
      <path d="M718.5,454.27c12.54-1,16.19.31,16.71,2,.41,1.33-1.23,2.47-.8,4.81.64,3.46,4.99,5.1,5.23,5.19,4.54,1.65,8.68-1.19,9.14-1.52-1.67.19-3.01,0-3.87-.2-1.23-.28-2.12-.48-2.86-1.3-.9-1-.97-2.25-.98-2.59-.01-.28-.02-1.12.44-2.1,1.21-2.62,4.15-2.91,4.1-4.29-.02-.48-.37-.88-1.04-1.4-2.74-2.08-6.09-2.4-7.74-2.51-4.15-.26-7.36.31-8.46.52-2.41.47-5.89,1.4-9.86,3.38Z" fill="#1d624d"/>
      <path d="M751.2,463.47c-2.82,2.22-8.45,2.41-10.29-1.17-.98-2.78,1.02-5.8,3.25-7.28.83-.59,1.44-.85.46-1.64-8.2-4.7-18.77-2.89-26.95,1.1,6.9-4.13,16.48-5.79,24.53-3.19,1.32.5,4.18,1.29,3.82,3.21-.14.41-.41.64-.63.83-1.02.77-2.08,1.51-2.71,2.59-1.98,3.04-1.17,5.62,2.52,6.34,1.98.46,4.12.19,5.95-.88.05-.03.11.05.06.08h0Z" fill="#0d565b"/>
    </g>
  </g>
  <g id="uuid-356dbb72-a0ad-4c88-b0a9-0d4df59ab954" data-name="Cap mig">
    <path d="M457.56,369.99s-.49,8.88-2.03,18.8c-4.74,30.45-18.68,60.84-24.71,73.23-2.07-2.14-5.15-5.11-9.17-8.28-7.29-5.74-20.66-16.28-36.68-17.45-15.65-1.14-17.22,7.87-40.52,8.28-5.17.09-11.16.2-18.93-1.48-12.38-2.67-14.15-6.61-22.48-6.54-8.82.07-19.63,4.6-21.59,12.16-.71,2.73-.34,6.15.89,8.87,1.18,2.61,2.62,3.42,6.8,8.58,1.33,1.47,2.64,3.14,3.85,5.03,7.16,11.24,6.46,23.61,5.6,29.76-4.52-.29-10.07-.19-16.25,1-15.37,2.96-25.99,10.93-31.35,15.68-1.39-1.18-5.78-4.62-12.42-5.03-6.06-.37-10.51,1.99-12.13,2.96-2.29-2.61-11.59-12.58-27.21-14.49-3.91-.48-18.78-1.75-31.65,8.87-11.8,9.74-14.01,22.94-14.49,26.92-1.78,14.53,4.74,25.37,6.8,28.69,1.52,2.44,3.02,4.33,4.14,5.62-3.71,3.88-5.41,7.76-6.21,10.06-.84,2.4-3.18,9.13-.3,15.68.62,1.4,1.74,3.86,4.44,5.62,2.08,1.36,4.16,1.68,5.32,1.77-1.13,1.89-2.68,4.92-3.55,8.87-.69,3.14-.79,6.15,1.18,18.04,2.29,13.83,3.37,15.41,4.44,16.56,3.42,3.7,8.04,4.51,12.72,5.32,1.52.27,6.18.98,20.11-1.18,10.71-1.67,10.84-2.54,17.31-2.96,8.9-.58,15.58.62,17,.89,6.99,1.31,8.28,2.8,15.09,4.44,2.85.69,10.44,2.46,18.93,1.77,14.99-1.22,25.9-9.56,31.06-13.61,6.62-5.19,10.81-9.77,12.42-11.54,20.22-22.18,55.8-26.88,99.36-47.52,0,0,7.36-3.49,23.69-17.85,2.21-1.94,6.11-5.51,7.39-11.24.69-3.09.39-5.82,0-7.69,13.83-5.21,33.09-13.83,53.83-28.1,15.07-10.37,23.45-15.86,32.24-26.62,19.49-23.84,24.02-51.65,26.27-65.45,1.33-8.16,2.45-19.94,3.01-29.79.43-7.52.43-12.51.37-16.57-.38-22.48-4.07-29.31-5.18-43.5-2.46-31.28,10.95-55.49,4.98-72.94-2.15-6.28-5.68-11.67-5.68-11.67-3.68-5.61-7.78-9.42-10.62-11.71-7.46-6.02-14.73-8.4-17.43-9.19-3.75-1.1-13.23-3.74-24.88-.75-11.56,2.96-18.57,9.75-21.6,12.75-5.22,5.18-7.8,9.99-11.46,16.83-6.81,12.71-9.66,23.51-10.25,25.81-3.68,14.38-3.2,25.36-2.4,43.5.81,18.53,2.86,24.01,1.94,40.78Z" fill="#2d8d64"/>
    <path d="M158.71,586.43c1.09.84,2.87,2.07,5.27,3.09,11.1,4.73,18.62-2.21,32.67-2.71,5.02-.18,13.14,2.2,29.39,6.95,18.96,5.55,16.58,6.49,21.59,6.84,16.9,1.18,22.24-11.09,45.26-16.27,15.48-3.49,14.31,1.78,26-1.72,23.64-7.08,23.99-27.28,47.85-33.97,7.23-2.03,14.31-2.16,25.11-2.36,18.91-.35,23.8,2.75,29.13,0,7.08-3.65,12.81-16.52,6.96-56.91,4.25,2.66,7.6,3.01,9.61,2.97,7.39-.14,14.72-5.91,40.41-49.78,9.61-16.41,10.55-17.87,11.4-20.16,7.43-20,3.52-37.99.78-51.85-10.67-53.87-15.84-81.33-7.85-107.2,1.15-3.72,10-32.07,25.52-34.21,3.15-.43,9.35-.17,15.55,1.32,2.31.56,7.53,1.98,13.51,5.35,2.39,1.35,6.79,3.87,11.32,8.56,1.16,1.2,3.87,4.13,6.71,8.92,5.38,9.03,7.25,17.7,7.74,21.23,3.59,26.25-5.7,47.05-3.49,82.03.02.26.14,1.77.28,3.86,0,0,.53,7.82.75,15.23.11,3.54.51,24.61-1.5,41.61-1.91,16.13-5.69,48-28.19,74.63-10.19,12.05-21.91,20.31-28.66,25.06-11.94,8.41-22.65,13.76-31.02,17.95-10.45,5.23-19.56,9.05-26.39,11.7.38,1.77.72,4.54,0,7.69-.95,4.16-3.22,6.69-7.39,11.24-2.96,3.23-6.65,6.67-11.71,10.39,0,0-4.62,3.4-9.66,6.27-8.58,4.89-35.79,15.84-73.19,28.43-8.43,4.02-14.48,8.35-18.48,11.59-6.54,5.31-7.98,8.03-17.07,15.71-5.97,5.05-9.35,7.9-14.02,10.58-4.96,2.85-13.47,6.71-25.99,7.68-13.55-2.46-27.09-4.92-40.64-7.38-13.34,1.53-26.68,3.06-40.02,4.6-3.47.17-11.9.06-16.91-5.65-2.1-2.39-2.88-7.12-4.44-16.56-1.94-11.78-1.33-16.05-.7-18.78.82-3.53,2.09-6.3,3.06-8.14-.97-.46-6.94-3.43-8.67-10.12-.86-3.34-.31-6.21.12-7.74Z" fill="#1d624d"/>
    <path d="M444.72,546.5c-.24-1.78-.77-4.54-2.15-7.62-2.22-4.97-4.65-6.34-5.98-10.3-.7-2.1-1.25-5.38.03-10.06.74,2.26,3.16,8.66,9.47,11.91,4.2,2.16,8.77,2.29,14.96.89,12.72-2.88,22.09-9.3,31.06-15.91,19.62-14.46,28.82-22.49,33.82-28.43,18.21-21.63,24.11-44.39,27.04-56.22,3.87-15.63,4.66-29.55,5.62-46.6.64-11.26.67-20.73.56-27.58.7,12.53.79,23.02.73,30.76-.08,9.59-.14,16.16-1.01,25.34-1.28,13.49-3.49,23.77-4.66,28.79-1.59,6.79-2.87,12.31-5.68,19.63-1.88,4.89-5.12,13.21-11.65,22.55-4.31,6.17-8.26,10.22-11.45,13.47-9.8,9.97-18.65,15.86-30.05,23.36-12.25,8.05-21.91,13.08-24.56,14.45-9.47,4.87-18.3,8.65-26.09,11.59Z" fill="#115666"/>
    <path d="M169.7,633c1.87,1.77,5.83,4.83,14.75,6,10.37,1.36,15.92-1.34,25.99-3,13.21-2.18,23.72-.86,30.59,0,20.69,2.6,23.3,9.21,35.06,6.89,12.01-2.37,23.82-12.13,22.65-19.36-.74-4.55-6.44-7.06-7.2-7.39-6.75-2.88-11.26,1.34-25.28,4.27-8.77,1.83-16.13,3.29-24.62.82-4.45-1.29-8.03-3.53-13.98-7.1-7.99-4.8-8.26-6.18-12.78-8.66-9.75-5.34-19.55-4.94-26.44-4.65-10.28.42-18.71.8-22.98,6.97-3.76,5.43-2.23,12.63-1.9,14.2.35,1.64,1.64,6.77,6.14,11.01Z" fill="#2d8d64"/>
    <path d="M370.69,509.18c-2.52,2.28-12.51-6.88-14.62-4.87-1.54,1.47,1.43,8.61,6.82,13.15,7.3,6.14,16.75,5.6,20.95,5.36,6.63-.38,13.75-.54,18.51-5.85,4.71-5.25,4.52-12.53,4.38-18.03-.06-2.39-.22-6.91-2.44-12.18-1.22-2.9-3.64-8.64-9.26-12.18-8.58-5.41-22.06-4.08-26.8,2.92-1.54,2.28-1.72,4.52-1.95,7.8-.9,13.19,6.71,21.77,4.38,23.87Z" fill="#1d624d"/>
    <circle cx="461.97" cy="506.62" r="9.15" fill="#2d8d64"/>
    <circle cx="480.05" cy="500.25" r="5.13" fill="#2d8d64"/>
    <path d="M276.22,540.88c1.12-1.37,3.05-3.38,5.97-4.92,1.17-.62,8.73-4.45,16.48-.72,4.78,2.3,7.12,6.27,7.98,7.94.35,1.14.85,3.4,0,5.85-1.42,4.11-5.46,5.7-6.15,5.96-3.67,1.43-5.59-.09-11.49.37-3.11.25-5.62.91-7.26,1.44,2.58-3.32,5.18-4.83,7.2-5.57,2.91-1.07,5.08-.75,6.39-2.58,1-1.41,1.16-3.59.27-5.07-.69-1.13-2.06-2.1-7.62-2.67-2.87-.3-6.88-.49-11.75-.02Z" fill="#1d624d"/>
    <path d="M192.46,556.5c-.2.16-4.31,3.37-8.65,1.65-3.26-1.3-4.39-4.49-4.89-5.88-.19-.54-2.27-6.71,1.49-10.71,2.39-2.55,5.73-2.72,7.2-2.8,5.83-.31,9.97,3.42,11,4.4-1.25-.2-3.04-.41-5.2-.4-3.24.01-4.85.02-6.2,1-2.12,1.55-2.75,4.54-2.4,6.8.08.52.32,1.93,1.41,3.29,2.19,2.74,5.75,2.68,6.24,2.66Z" fill="#1d624d"/>
    <path d="M378.93,436.78c-7.28.63-10.32,3.39-16.52,5.72-6.14,2.31-10.99,2.24-20.68,2.1-4.92-.07-14.42-.2-22.02-3.07-.61-.23-4.51-1.72-9.83-3.46-2.72-.89-4.08-1.33-4.8-1.46-5.08-.86-9.23.73-13.01,2.2-3.55,1.37-5.32,2.05-6.59,3.8-1.91,2.63-2.22,6.43-.9,9.26.38.82,2.12,4.1,10.82,6.16,8.24,1.95,11.26-.1,23.51,0,4.53.04,10.1.11,17.21,1.54,4.31.87,5.22,1.44,14.63,3.8,7.15,1.79,10.72,2.68,12.72,2.87,9.1.85,11.75-2.14,19.96-2.87,16.65-1.49,22.78,10.05,32.89,5.44,4.49-2.05,8.48-6.69,8.12-10.89-.3-3.54-4.34-6-12.41-10.79-7.21-4.28-14.11-8.29-24.1-9.83-2.84-.44-5.47-.83-9-.52Z" fill="#68b669"/>
    <path d="M168.25,515.39c-5.76,4.96-7.62,9.58-8.36,12.02-.52,1.72-1.7,5.67,0,7.13,2.04,1.76,7.09-1.04,9.38-2.31,5.6-3.11,5.15-5.03,9.38-7.29,3.92-2.09,7.74-2.27,14.95-2.6,6.32-.29,8.61.43,11.41-1.55.51-.36,3.86-2.81,3.86-6.66,0-3.7-3.08-6.09-3.72-6.58-1.23-.96-4.28-2.86-13.21-1.69-5.29.7-14.92,1.96-23.71,9.54Z" fill="#68b669"/>
    <path d="M274.7,509.9c-2.46.88-5.75,2.22-6.87,5.21-.26.7-.91,2.43-.17,3.47,2.33,3.28,13.85-6.84,24.64-3.2,5.39,1.82,5.76,5.44,14.66,8.62,6.68,2.39,8.63,1.12,9.31.53,2.27-2,1.28-6.24,1.23-6.44-.9-3.65-4.03-5.66-7.43-7.85-.94-.61-2.83-1.86-5.34-2.88-10.69-4.34-21.85-.36-30.04,2.55Z" fill="#68b669"/>
    <g id="uuid-d8d12fc5-80fc-4a1b-b841-9b669e5ea6e1" data-name="Coll">
      <path d="M444.38,546.52c22.23-8.82,42.98-20.9,62.23-35.02,38.29-25.24,49.72-64.15,52.17-107.83.88-11.93,1.14-23.85.69-35.81-.34-11.78-1.43-24.01-1.48-35.84,0,0-.38-17.94-.38-17.94,0-.06.04-.1.1-.1.05,0,.1.05.1.1l.57,17.93c.4,17.9,2.53,35.87,2.23,53.78-.83,49.83-7.85,97.97-52.87,127.34-14.69,10.36-30.1,19.81-46.61,26.98-5.49,2.4-11.06,4.59-16.7,6.6-.12.05-.19-.15-.07-.19h0Z" fill="#0d565b"/>
      <path d="M442.18,405.98c7.43-7.8,13.06-17.69,14.42-28.44.52-4.02.12-8.07-.09-12.13-.16-12.24-1.03-24.46-2.5-36.62-.6-4.61-.96-9.7-1.07-14.37.04-1.28.16-4.87.21-6.2.29-2.39.47-5.87.93-8.2,2.53-16.26,8.39-32.03,16.84-46.13,3.78-5.65,7.77-11.46,13.17-15.77,8.59-7.02,19.97-10.07,30.94-9.34,16.46.83,32.34,10.71,40.36,24.93-12.02-18.95-34.5-28.73-56.4-22.22-10.61,2.99-18.85,10.59-24.69,19.74-3.07,4.39-5.69,9.3-7.9,14.17-5.08,11.05-8.83,22.82-10.49,34.89-.42,2.28-.58,5.73-.82,8.06-.02,1.29-.12,4.8-.14,6.07.14,4.63.54,9.55,1.14,14.15,1.47,12.18,2.17,24.52,2.1,36.8.14,4.1.49,8.26-.19,12.37-.86,5.49-2.79,10.75-5.5,15.54-2.73,4.78-6.24,9.06-10.16,12.86-.09.09-.23-.05-.14-.14h0Z" fill="#0d565b"/>
      <path d="M164.01,571.16c-4.64,4.95-7.46,11.64-7.68,18.41-.23,6.55,3.79,14.06,10.97,14.33.29.01.45.35.3.59-1.96,3.35-3.34,7.11-3.75,10.93-.28,3.87.4,7.8.96,11.65.62,3.89,1.28,7.78,2.08,11.62.64,2.74,1.07,5.79,2.55,8.16,3.08,3.79,8.03,4.76,12.79,5.52,3.8.57,7.76.19,11.6-.18,8-.71,15.48-2.66,23.33-3.92,7.98-.73,16.05-.44,23.83,1.67,30.94,11.95,51.16,2.8,73-20.39,8.28-8.69,18.92-14.74,29.69-19.72,25.07-11.71,52.64-17.17,76.71-30.9,6.52-4.3,12.21-9.94,18.01-15.16,2.81-2.68,5.1-6.01,5.86-9.87,1.11-7.77-1.47-15.79-5.15-22.59,4.49,7.8,8.62,19.98,3.5,28.27-3.19,5.07-8.16,8.64-12.38,12.78-2.92,2.65-5.91,5.29-9.27,7.47-15.78,9.58-37.35,16.18-54.68,22.73-18.15,6.86-37.19,14.1-50.92,28.3-17.35,18.82-37.2,31.26-63.55,24.43-3.85-.82-7.6-2.46-11.32-3.59-7.46-2.06-15.45-2.38-23.14-1.7-7.81,1.24-15.35,3.17-23.36,3.78-4,.34-7.99.69-12.01.04-5.7-.92-13.17-2.71-14.9-9.08-2.07-7.68-3.15-15.54-4.09-23.42-.85-5.99.79-12.16,3.96-17.24,0,0,.3.59.3.59-3.51-.26-6.88-2.21-8.73-5.22-5.6-9.1-1.42-21.13,5.5-28.3h0Z" fill="#0d565b"/>
      <path d="M169.68,603.42c18.65-5.25,39.19-4.48,57.21,2.84,7.31,2.88,14.08,6.92,21.72,8.78,6.41,1.4,13.27.84,19.34-1.64,4.52-1.78,8.05-5.12,12.03-7.85,8.08-5.59,18.04-8.03,27.82-8.1,4.96.02,9.7,1.16,14.25.3,4.57-.79,9-2.66,13.27-4.77,8.52-4.24,16.46-9.8,22.97-16.77,6.23-7.47,15.29-12.9,25.12-13.4.12-.01.14.19.02.2-7.14.99-13.88,4.08-19.11,9.01-1.74,1.62-3.28,3.41-4.87,5.24-6.48,7.32-14.47,13.23-23.18,17.63-4.42,2.17-8.98,4.14-13.9,4.92-4.89.82-9.79-.39-14.61-.48-9.39-.04-19.16,2.04-27.18,7.14-4.03,2.6-7.82,5.82-12.37,7.58-4.52,1.79-9.48,2.47-14.32,2.35-9.82-.32-18.59-5.39-27.61-8.59-8.95-3.38-18.36-5.47-27.91-6.16-9.55-.7-19.2.08-28.65,1.96-.12.03-.17-.17-.05-.19h0Z" fill="#0d565b"/>
    </g>
    <g id="uuid-5254c358-e9e0-4273-9339-efa0f52f5fa9" data-name="Cabell">
      <path d="M385.52,427.18c3.36-9.77-.75-18.48-1.77-20.5.63-.26,4.15-1.67,8.11,0,3.81,1.61,5.28,4.9,5.56,5.57-.95-3.11-1.84-7.61-1.27-12.91,1.52-13.96,12-22.22,14.43-24.04-.16,1.95-.34,7.2,2.78,12.73,3.01,5.32,7.36,7.87,9.11,8.78,5.73-2.89,9.48-6.4,11.64-8.78,3.45-3.79,7.19-7.89,7.59-14,.32-4.84-1.61-8.69-2.78-10.63,2.62.64,6.7,2.04,10.63,5.31,8.37,6.98,9.43,16.99,9.62,19.31,3.36-3.26,10.73-11.37,12.4-23.61.52-3.83.38-7.27,0-10.12,2.7,2.48,6.3,6.37,9.36,11.89,3.73,6.73,5.05,12.98,5.57,16.96,3.55-3.94,8.35-10.23,11.89-18.98,2.55-6.31,3.7-12.05,4.23-16.45,1.43,2.21,3.02,5.08,4.38,8.6,1.36,3.54,2.11,6.76,2.53,9.36.47-2.29,1.75-6.82,5.57-10.88,6.97-7.42,16.64-7.16,18.22-7.09-2.32,4.57-5.01,11.07-6.61,19.2-1.51,7.67-1.56,14.33-1.23,19.27.67-.33,2.37-1.26,3.54-3.29,1.35-2.34,1.11-4.62,1.01-5.31,2.67,1.97,3.92,4.03,4.56,5.57,3.12,7.53-1.83,18.47-12.65,26.83,1.08.81,2.47,2.03,3.8,3.77,1.46,1.91,2.3,3.76,2.78,5.09-1.55-.89-3.91-1.9-6.58-1.52-2.92.42-4.25,2.23-7.09,3.8-2.11,1.17-5.41,2.4-10.38,2.28,1.04,1.01,2.88,2.53,5.57,3.54,1.89.71,3.58.94,4.81,1.01-1.74,1.63-3.91,3.32-6.58,4.81-9.64,5.37-19.44,4.49-23.79,3.8,1.41.82,6.53,4.02,8.86,10.67,2,5.73.76,10.66.25,12.36-.72-1.03-3.28-4.42-8.1-5.82-5.43-1.57-9.87.51-10.88,1.01l-17.97,4.81-19.23,3.8-10.11-4.8-8.11-6.76-14.9-9.74-8.9-3.71c-5.13-.72-10.25-1.45-15.38-2.17,1.73-1.82,4.07-4.79,5.52-9Z" fill="#e9cc86"/>
      <path d="M392.34,438.11c4.41-1.87,10.02-3.27,15.8-1.74,8.54,2.27,10.04,8.94,18.08,9.55,6.41.49,11.94-3.38,13.93-4.77,3.72-2.6,6-5.62,7.27-7.6l2.27-4.93h-8.13c2.07-4.4,4.14-8.8,6.21-13.19-.86,3.42-.69,6.65.8,7.53,1.78,1.05,5.89-1.01,9.19-6.07,1.19,1.9,2.88,5.15,3.53,9.51.42,2.87.27,5.34,0,7.15,5.31-2.57,8.86-7.5,9.15-12.93.25-4.67-2-8.13-2.88-9.35,2.12.43,5.81,1.49,9.34,4.4,1.7,1.41,2.93,2.89,3.8,4.13-.16-2.79-.08-8.29,2.8-14.26,1.88-3.89,4.29-6.61,6.05-8.29-1.07,3.35,0,6.9,2.56,8.81,2.85,2.12,6.24,1.22,6.67,1.09.95-.85,7.75-7.13,6.99-16.28-.34-4.04-2.01-7.07-3.15-8.74,1.32.21,3.71.77,6.17,2.48,2.09,1.45,3.36,3.14,4.04,4.21.43-.7,1.67-2.91,1.38-5.92-.33-3.4-2.4-5.47-2.95-6l4.68,1.38c.04-2.75.47-6.95,2.48-11.55,3.61-8.28,10.03-12.56,12.64-14.1-1.07,2.93-2.11,6.18-3.04,9.72-1.07,4.1-1.82,7.95-2.34,11.45-.09,3.82-.18,7.64-.27,11.45l3.6-2.34,1.01-5.31,5.48,7.01-.59,7.72-3.4,7.49-7.16,8.17-2.42,2,3.8,3.77,1.86,2.98.92,2.11-5.14-1.79-4.4,1.65-8.24,4.04-6.06.22,3.11,2.91c2.26.79,4.51,1.57,6.77,2.36-1.61,1.22-3.22,2.45-4.84,3.67l-10.53,4.29c-1.67.3-3.52.55-5.54.68-3.22.2-6.11.06-8.55-.22,2.32,2.57,4.64,5.13,6.96,7.7.65,1.4,1.34,3.21,1.81,5.4.39,1.8.53,3.42.56,4.76-.28,1.69-.55,3.39-.83,5.08-1.62-1.44-3.25-2.87-4.87-4.31-1.17-.53-2.34-1.06-3.51-1.58-.71-.16-1.51-.29-2.38-.37-1.4-.13-2.65-.08-3.69.03l-7.77.34-21.68-.55-19.68,4.9c-.49.48-.98.96-1.48,1.44-3.44-2.86-6.88-5.72-10.32-8.58-3.88-2.37-7.75-4.75-11.63-7.12-2.47-1.51-4.99-2.79-7.41-4.07" fill="#c3a45c"/>
      <path d="M408.8,397.84c2.28,2.85,5.01,2.59,6.71,5.8.11.21,2.23,4.37,0,7.72-1.89,2.83-5.85,3.54-8.69,2.52-2.79-1-4.04-3.5-4.95-5.31-2.48-4.96-1.4-9.86-1.09-11.17,1.26-5.37,4.7-8.55,6.01-9.65-.68,5.53.69,8.46,2.01,10.1Z" fill="#edd8aa"/>
      <path d="M446.26,378.09c.91,1.02,3.29,3.94,3.43,8.13.16,4.69-2.51,10.17-6.97,11.43-2.29.65-5.78.38-7.15-1.78-1.3-2.05-.09-4.82,0-5.01,1.73-3.81,6.07-3.29,8.85-7.18,1.38-1.93,1.75-4.06,1.84-5.59Z" fill="#edd8aa"/>
      <path d="M430.72,432.41c1.32.55,3.74-1.78,4.85-4.04,1.32-2.68,1.41-6.45,0-7.11-1.26-.59-3.6,1.37-4.76,3.3-1.76,2.95-1.58,7.23-.1,7.85Z" fill="#edd8aa"/>
      <path d="M475.29,390.86c-.65,1.98-1.74,5.32-4.14,5.72-2.01.33-4.57-1.47-5.05-3.6-.62-2.79,2.67-4.56,5.41-9.73,1.79-3.39,2.43-6.53,2.7-8.47,1.6,4.07,3.06,10.05,1.08,16.09Z" fill="#edd8aa"/>
      <path d="M379.93,436.12c7.45-7.69,8.47-19.99,3.38-29.2-.14-.25-.02-.58.25-.69,5.42-2.41,12.16.31,14.43,5.78,0,0-1.16.42-1.16.42-3.4-10.26-1.03-21.89,5.69-30.29,2.19-2.8,4.72-5.35,7.57-7.5.36-.27.88-.2,1.15.16.13.17.18.37.16.57-.16,2.08-.02,4.19.43,6.23,1.28,6.15,5.48,11.55,11.06,14.41,0,0-.82,0-.82,0,6.19-3.04,11.37-7.86,15.46-13.36,4.28-5.46,4.42-13.05.77-18.88-.21-.34-.1-.79.24-.99.17-.1.37-.12.55-.08,2.83.72,5.55,1.87,8.01,3.44,4.92,3.13,8.68,7.96,10.66,13.42,1.01,2.71,1.64,5.56,1.85,8.44,0,0-.76-.29-.76-.29,6.7-6.35,11.4-14.92,12.49-24.15.36-3.06.33-6.17-.07-9.23-.04-.26.31-.46.5-.26,8.25,7.5,13.66,17.97,15.12,29.02,0,0-.68-.21-.68-.21,4.35-4.9,7.96-10.45,10.62-16.42,2.68-5.96,4.41-12.34,5.15-18.82.04-.57.88-.79,1.18-.28,3.6,5.48,6.04,11.72,7.13,18.21,0,0-1.51-.03-1.51-.03,2.14-11.65,12.93-19.27,24.58-18.74.66,0,1.11.77.79,1.35-5.89,11.68-8.56,24.95-7.63,37.98l-1.5-.87c2.78-1.32,4.42-4.48,3.96-7.52-.08-.58.32-1.12.9-1.2.28-.04.56.04.78.2,1.38,1.02,2.65,2.25,3.64,3.7,1.01,1.45,1.68,3.14,1.99,4.87,1.54,10.34-6.13,19.48-13.73,25.48,0,0-.01-1.62-.01-1.62,3.14,2.35,5.58,5.64,6.91,9.33.33.84-.67,1.7-1.44,1.22-2.55-1.49-5.61-2.11-8.23-.65-2.68,1.7-5.45,3.86-8.7,4.54-2.18.56-4.42.75-6.63.69,0,0,.64-1.52.64-1.52,2.6,2.57,6.14,4.16,9.8,4.36.46.02.81.41.78.87-.01.22-.11.42-.26.56-8.16,7.76-20.11,10.54-31.03,8.6,0,0,.4-1.13.4-1.13,8.03,4.62,12.07,14.84,9.15,23.66-.07.28-.48.35-.63.1-4.28-6.28-12.06-7.89-18.78-4.97,6.2-3.77,15.25-1.45,19.36,4.56,0,0-.63.1-.63.1,1.2-4.21.99-8.8-.66-12.81-1.61-4.02-4.68-7.43-8.41-9.59-.29-.17-.39-.54-.22-.83.13-.22.38-.34.62-.3,10.56,1.67,21.94-1.1,29.71-8.61,0,0,.52,1.43.52,1.43-4.06-.19-8.02-1.91-10.95-4.75-.6-.54-.13-1.57.64-1.52,2.08.04,4.15-.16,6.12-.69,3.17-.72,5.5-2.74,8.24-4.46,3.12-1.85,7.25-1.15,10.16.62,0,0-1.44,1.21-1.44,1.21-1.21-3.32-3.41-6.28-6.25-8.39-.54-.39-.54-1.22-.01-1.62,7.01-5.58,14.26-13.96,12.92-23.48-.47-2.96-2.36-5.46-4.82-7.26,0,0,1.68-1,1.68-1,.27,1.94-.05,3.96-.98,5.69-.44,1.25-4.95,6.12-5.66,3.13-.87-13.41,1.95-27.01,8.06-38.96,0,0,.79,1.35.79,1.35-10.78-.52-20.87,6.35-23,17.19-.17.84-1.39.78-1.51-.03-.97-6.28-3.27-12.37-6.7-17.74l1.18-.27c-.83,6.6-2.68,13.08-5.48,19.1-2.79,6.03-6.52,11.62-10.99,16.51-.21.26-.65.11-.68-.21-.67-5.44-2.33-10.76-4.83-15.64-2.51-4.88-5.88-9.31-9.91-13.04,0,0,.5-.26.5-.26.42,3.11.48,6.26.13,9.38-1.03,9.41-5.81,18.12-12.52,24.71-.25.27-.74.08-.76-.28-.73-8.31-5.09-16.44-12.32-20.82-2.36-1.45-4.96-2.51-7.66-3.15l.79-1.07c1.9,3.07,3.07,6.69,2.99,10.39,0,5.64-3.38,10.43-7.03,14.35-3.5,4.04-7.85,7.42-12.63,9.84-.26.13-.57.12-.82,0-8.13-4.11-13.17-13.32-12.3-22.38,0,0,1.32.73,1.32.73-8.16,6.09-14.12,15.64-14.39,25.98-.11,3.41.35,6.84,1.33,10.13.1.33-.08.67-.41.77-.3.09-.63-.06-.75-.35-1.94-4.94-8.03-7.44-12.91-5.35,0,0,.25-.69.25-.69,1.24,2.41,2.08,4.99,2.56,7.63,1.56,7.92-.98,16.46-6.68,22.17-.08.09-.24-.05-.14-.14h0Z" fill="#d1ab51"/>
      <path d="M427.82,427.41c2.18-9.05,11.03-15.86,20.36-16.05.76-.05,1.28.85.88,1.49-1.45,2.5-2.8,5.06-3.9,7.74-1.15,2.65-2.08,5.4-2.88,8.2l-.93-.91c2.81-.67,5.79-.53,8.47.37.2.07.3.28.24.47-1.22,1.35-2.27,2.92-2.65,4.82.07-1.84.77-3.7,1.97-5.19l.19.64c-2.63-.54-5.33-.4-7.84.35-.54.18-1.09-.37-.93-.91.6-2.92,1.49-5.78,2.57-8.57,1.12-2.77,2.42-5.47,3.98-8.02l.88,1.49c-8.82.15-16.97,5.98-20.42,14.08h0Z" fill="#d1ab51"/>
    </g>
    <g id="uuid-75bf3d41-163e-4f2b-8a16-b9f726f9e025" data-name="Ull dret">
      <path d="M359.92,488.27c.36-1.32,2.46-8.94,9.03-12.71,10.4-5.95,28.87-.46,32.34,12.81,2.3,8.78-2.63,18.42-9.99,23.02-5.69,3.55-11.49,3.26-13.47,3.06-1.48-.15-11.27-1.28-16.28-9.95-4.13-7.14-2.13-14.41-1.63-16.23Z" fill="#fff"/>
      <path d="M401.3,488.37c-2.88-10.99-16.03-16.63-26.38-14.87,8.47-.01,17.79,4.9,20.04,13.49,2.04,7.8-2.34,16.36-8.87,20.44-5.05,3.16-10.2,2.89-11.96,2.72-1.21-.12-8.74-1-13.38-7.22.24.52.5,1.05.8,1.57,5.01,8.67,14.81,9.81,16.28,9.95,1.99.2,7.79.49,13.47-3.06,7.35-4.6,12.29-14.24,9.99-23.02Z" fill="#e2e2e0"/>
      <path d="M359.92,488.27c.36-1.32,2.46-8.94,9.03-12.71,10.4-5.95,28.87-.46,32.34,12.81,2.3,8.78-2.63,18.42-9.99,23.02-5.69,3.55-11.49,3.26-13.47,3.06-1.48-.15-11.27-1.28-16.28-9.95-4.13-7.14-2.13-14.41-1.63-16.23Z" fill="none" stroke="#0d565b" stroke-linecap="round" stroke-linejoin="round"/>
      <path d="M372.87,482.8c3.93-.51,7.86-.93,11.8-1.3.3.28,2.24,1.99,2.59,2.3,1.28,1.38,4.35,4.73,5.69,6.14,0,0,.6.64.6.64l-.26.83-5.11,16.28s-.39,1.24-.39,1.24c0,0-1.29-.21-1.29-.21l-14.74-2.44-.61-.1c-.4-.55-5.62-7.77-6.01-8.31,0,0,.14-.65.14-.65l1.44-6.82s.16-.74.16-.74l.69-.31,6.66-3.05.63-.29.63.29,6.56,3.05.9.42c-.02.17-.34,9.56-.37,10.05,0,0-.07,1.88-.07,1.88-2.04-.61-4.28-1.02-6.27-1.77,0,0-4.34-1.66-4.34-1.66l-1.27-.49c.39-.54,3.48-4.94,3.94-5.59,0,0,.39-.56.39-.56l.26.53,1.42,2.86-2.06-2.44.66-.02-2.21,5.23-.6-1.44,4.58.79c1.53.23,2.97.81,4.48,1.17,0,0-1.9,1.39-1.9,1.39l.33-9.05.87,1.42-6.56-3.05h1.26s-6.66,3.05-6.66,3.05l.84-1.05-1.44,6.82-.25-1.19,5.26,7.27-.97-.6,14.74,2.44-1.68,1.03,5.11-16.28.33,1.47c-1.36-1.43-4.4-4.73-5.73-6.1,0,0-1.71-2.22-1.71-2.22l.92.4c-3.8-.36-7.59-.77-11.38-1.26h0Z" fill="#ec7376"/>
      <path d="M430.74,462.09c-5.71-5.49-12.11-10.26-18.7-14.6-13-8.55-29.29-14.17-44.02-6.76-11.13,4.83-23.6,5.3-35.55,4.21-3.99-.45-7.94-1.25-11.78-2.42-3.82-1.08-7.43-3-11.11-4.37-9.26-3.35-27.61,1.53-28.19,13.09-.08,1.94.25,3.91.95,5.73,1.48,3.67,4.87,6.2,7.13,9.39,0,0,3.58,4.77,3.58,4.77.09.1-.1.23-.16.12,0,0-3.65-4.7-3.65-4.7-1.84-2.36-4.01-4.41-5.87-6.75-2.95-4.06-3.6-10.05-.83-14.36,4.68-6.74,13.52-9.37,21.4-9.41,4.08-.05,7.93,1.72,11.57,3.28,5.45,2.27,11.25,3.59,17.11,4.19,7.77.64,15.82.47,23.5-.99,7.89-1.31,14.76-6.25,22.77-7.15,16.53-1.55,31.34,8.16,43.39,18.31,3.05,2.58,5.95,5.33,8.61,8.29.09.09-.06.23-.14.14h0Z" fill="#0d565b"/>
    </g>
    <g id="uuid-e1500c76-7444-40d9-936c-19dade91f099" data-name="Ull esquerra">
      <path d="M277.27,502.79c-1.73-2.38-4.47-6.94-5.09-13.19-.29-2.88-.67-11.65,5.5-18.8,2.27-2.63,4.81-5.57,8.41-5.82,9.11-.63,20.22,16.25,17.36,29.68-.62,2.91-1.78,5.11-2.51,6.33l-12.15-.27-11.53,2.06Z" fill="#fff"/>
      <path d="M286.09,464.99c-1.88.13-3.47,1-4.88,2.16,8.61,1.78,17.88,17.11,15.24,29.52-.35,1.65-.87,3.06-1.39,4.2l5.89.13c.73-1.22,1.89-3.41,2.51-6.33,2.86-13.43-8.25-30.31-17.36-29.68Z" fill="#e2e2e0"/>
      <g clip-path="url(#uuid-d06f154a-26f7-433f-920a-a81f1d126925)">
        <path d="M277.27,502.79c-1.73-2.38-4.47-6.94-5.09-13.19-.29-2.88-.67-11.65,5.5-18.8,2.27-2.63,4.81-5.57,8.41-5.82,9.11-.63,20.22,16.25,17.36,29.68-.62,2.91-1.78,5.11-2.51,6.33l-12.15-.27-11.53,2.06Z" fill="#ec7376"/>
      </g>
      <path d="M277.27,502.79c-4.65-5.96-6.51-13.94-5.07-21.38.95-5.69,4.27-10.67,8.53-14.48,4.97-4.72,11.4-1.78,15.35,2.68,7.42,8.18,11.17,21.57,4.86,31.39,5.67-9.92,1.78-22.77-5.53-30.77-3.64-4.03-9.49-6.88-14.07-2.57-4.13,3.62-7.34,8.43-8.4,13.91-1.58,7.29.06,15.1,4.32,21.23h0Z" fill="#0d565b"/>
    </g>
    <g id="uuid-597b96d3-ed7e-403d-a138-92bc6cc4e6ad" data-name="Nas">
      <path d="M275.67,541.08c5.72-7.58,17.37-10.98,25.86-6,4.14,2.71,7.31,7.72,6.4,12.81-.76,4.21-4.2,7.75-8.35,8.7-.88.17-1.76.13-2.55.05-3.11-.38-6.12-.57-9.23-.5-3.1-.09-6.2.46-8.37,2.89,2.86-4.18,8.5-3.91,13.02-4.12,2.25-.13,4.61.44,6.79.04,2.03-.51,3.86-1.92,5.1-3.59,3.86-4.82.82-11.65-3.83-14.69-7.81-4.75-18.65-1.91-24.83,4.42h0Z" fill="#0d565b"/>
      <path d="M200.02,544.14c-5.67-5.81-18.7-7.4-20.48,2.64-.77,3.98.84,8.74,4.75,10.31,1.9.87,4.08,1.15,6,.21,2.03-1.04,4.39-1.57,6.64-1.52-2.24.4-4.32,1.14-6.18,2.39-1,.62-2.26.98-3.48,1.02-3.72.05-7.39-2.14-8.84-5.6-2.01-4.48-1.15-10.3,2.78-13.49,5.9-4.46,14.79-1.56,18.82,4.04h0Z" fill="#0d565b"/>
      <path d="M250.97,517.63c-6.81-5.55-16.84-6.24-24.25-1.57-.24.15-.55.09-.73-.12-25.14-27.28-70.39-13.4-72.51,24.57-.54,10.98,3.58,21.99,10.53,30.65-1.89-2.05-3.59-4.29-5.04-6.67-14.75-22.53-4.62-54.54,21.55-62.67,16.52-5.31,35.17.12,46.34,13.35,0,0-.73-.12-.73-.12,7.72-4.62,18.28-3.53,24.85,2.57h0Z" fill="#0d565b"/>
      <path d="M328.8,552.27c9.3-27.95-5.18-52.09-35.93-50.53-15.31.39-30.28,5.63-41.9,15.89,9-9.16,21.23-15.32,34.08-16.98,12.72-2.01,27.18-.98,37.09,8.13,11.9,10.86,12.97,29.4,6.65,43.49h0Z" fill="#0d565b"/>
    </g>
    <g id="uuid-a0a9cc52-e849-4b0f-a728-f83ba3dbd554" data-name="Orella">
      <path d="M426.22,468.11c1.64-8.52,5.56-12.89,7.77-14.89,12.31-11.11,33.01-3.9,40.4-1.32,12.19,4.25,18.25,10.6,19.52,11.98,2.43,2.62,9.14,9.88,8.7,19.34-.13,2.85-1,7.82-3.38,8.39-2.54.61-3.98-4.5-9.79-7.96-.4-.24-8.39-4.86-15.95-2.24-6.06,2.1-5.29,6.58-13.09,11.09-1.97,1.14-6.87,3.89-13.53,3.77-6.6-.12-11.42-2.98-13.53-4.42" fill="#2d8d64"/>
      <path d="M448.63,484.13c5.41-.8,7.48-3.42,8.09-4.29,1.26-1.82,1.71-4.08,2.22-6.66.8-4.05.18-4.59,1.05-5.72.73-.95,2.2-1.89,10.5-1.76,3.56.06,6.58.29,8.89.52-1.84-1.39-4.37-3.04-7.58-4.48-1.19-.53-3.9-1.67-7.58-2.5-3.49-.78-6.01-1.35-9.22-.95-1.93.24-7.26.9-10.22,5.08-2.42,3.41-2.56,8.17-1.23,8.87.98.52,2.15-1.49,4.48-1.21,2.23.27,3.54,2.4,3.7,2.67,1.51,2.53.44,5.34.09,6.29-.84,2.21-2.37,3.53-3.19,4.13Z" fill="#1d624d"/>
      <path d="M447.28,484.63c3.21-2.69,5.74-7.42,3.19-11.31-1.87-3.1-3.29-.95-5.78-.15-1.77.53-3.28-1.06-3.57-2.67-1.06-4.22,1.73-8.39,5-10.75,5.48-3.47,12.37-2.51,18.32-1,5.87,1.58,11.92,4.26,16.33,8.37-4.93-3.45-10.53-6.23-16.56-7.4-6.71-1.51-15.95-2.33-19.97,4.49-1.07,1.8-1.72,3.76-1.14,5.77.28.83.47,1.3,1.13,1.19,1.05-.31,1.82-1.04,3.12-1.36,3.03-.73,5.03,2.47,5.51,5.01.81,4.13-2.08,8.01-5.46,9.97-.1.06-.21-.08-.12-.16h0Z" fill="#0d565b"/>
      <path d="M426.22,468.11c3.17-19.34,19.39-24.13,36.67-20.37,15.44,3.23,31.82,10.49,38.77,25.63,1.68,3.73,2.3,8.03,1.69,12.1-.62,5.26-3.84,10.39-8.37,4.4-2.44-3.02-5.27-5.55-8.93-6.86-5.12-1.98-11.68-2.67-15.97,1.26-1.35,1.27-2.46,2.95-3.86,4.42-2.78,2.95-6.36,5.02-10.13,6.43-7.54,2.81-16.33,1.49-22.75-3.27,3.32,2.13,7.09,3.54,10.98,3.96,5.85.67,11.71-1.09,16.58-4.28,3.54-2.05,5.49-5.26,8.21-8.27,4.63-4.49,12.02-4.03,17.57-1.86,3.88,1.34,7.15,4.18,9.68,7.29.86.87,1.53,2.06,2.64,2.02,1.05-.39,1.49-1.64,1.87-2.76,1.33-4.52.92-9.46-1.04-13.77-6.52-14.59-22.53-21.5-37.26-24.93-16.83-4.04-32.38.23-36.35,18.87h0Z" fill="#0d565b"/>
    </g>
    <circle cx="535.58" cy="314.62" r="8.43" fill="#2d8d64"/>
    <circle cx="537.69" cy="296.44" r="5.58" fill="#2d8d64"/>
  </g>
  <path d="M639.59,155.07c-.3-.6-.84-1.77-1.16-3.31-.86-4.09.43-7.56.83-8.68,5.78-16.36,20.44-40.88,24.87-64.29.9-4.77,1.47-13.02,7.02-21.4,5.23-7.89,9.91-8.67,11.05-8.81,3.8-.48,8.5,1.15,10.61,4.59,1.84,3.01.8,6.13-1.91,15.96-1.03,3.72-2.64,9.66-4.59,17.22.52.67,1.24,1.76,1.69,3.24.8,2.67.26,5.17-.4,7.18-1.42,4.33-6.54,16.05-14.24,31.44.18.3.44.77.63,1.39.83,2.71-.51,5.34-.99,6.3-3.45,6.9-6.09,14.18-9.61,21.05-3.08,6.01-5.09,10.04-9.51,14.42-.77.76-1.44,1.37-1.9,1.77" fill="#e94176"/>
  <path d="M633.59,164.07c-.3-.6-.84-1.77-1.16-3.31-.86-4.09.43-7.56.83-8.68,6.12-17.3,19.81-41.71,24.87-64.29.22-.99,2.62-11.76,9.01-23.97,3.16-6.04,5.48-8.95,9.09-9.85,4.67-1.16,10.53,1.14,12.46,5.2,1.26,2.66.43,5.25-.91,9.67-1.36,4.46-3.34,11.15-5.74,19.79.81.74,1.88,1.92,2.53,3.59,2.06,5.23-1.58,11.02-2.98,13.57-3.67,6.68-8.32,16.37-14.24,31.44.18.3.44.77.63,1.39.81,2.64-.58,5.11-.99,6.3-2.76,8.04-5.73,16.7-14.18,24.2-1.16,1.03-2.14,1.79-2.69,2.2" fill="#ed7376"/>
  <path d="M627.59,170.07c-.3-.6-.84-1.77-1.16-3.31-.86-4.09.43-7.56.83-8.68,18.99-53.71,25.39-66.31,38.18-91.51.63-1.24,2.4-4.75,5.99-5.99,4.33-1.5,10.36.65,12.48,4.79,1.31,2.55.79,5.17,0,8.38-1.29,5.27-3.36,12.45-6.81,20.96,1.28-.25,2.92-.34,3.91.6,2.42,2.3-.76,9.25-2.6,13.17-3.22,6.88-8.66,18.14-16.79,33.59.39.35.92.9,1.33,1.69,1.66,3.19-.24,6.99-1.9,10.65-5.99,13.21-5.44,17.18-10.04,19.23-1.94.87-3.77.93-4.75.9" fill="#2d8d64"/>
  <path d="M492.44,169.12c.09.58,1.64,9.82,7.77,11.65,6.58,1.96,13.82-6.03,16.77-11.57.31-.58,5.17-10.07.88-19.84-1.01-2.3-3.48-7.96-7.77-8.47-5.81-.69-10.66,8.08-13.41,13.06-2.59,4.68-5.11,9.25-4.24,15.18Z" fill="#1d624d"/>
  <path d="M487.06,161.08c-.66-.1-1.92-.34-3.37-.98-3.83-1.67-5.9-4.73-6.59-5.71-9.97-14.2-21.44-40.37-37.93-57.55-3.36-3.5-9.75-8.76-13.35-18.14-3.39-8.84-1.31-13.1-.77-14.11,1.81-3.38,5.87-6.26,9.89-5.98,3.52.24,5.46,2.91,11.89,10.82,2.43,2.99,6.34,7.76,11.36,13.73.84-.03,2.15.01,3.62.51,2.64.9,4.36,2.79,5.62,4.49,2.71,3.67,9.28,14.64,17.34,29.84.35.02.88.09,1.5.3,2.69.9,4.05,3.52,4.56,4.46,3.61,6.81,8.02,13.19,11.57,20.03,3.1,5.99,5.22,9.97,6.22,16.11.18,1.07.28,1.97.34,2.57" fill="#e94176"/>
  <path d="M490.91,171.19c-.66-.1-1.92-.34-3.37-.98-3.83-1.67-5.9-4.73-6.59-5.71-10.54-15.02-22.48-40.34-37.93-57.55-.68-.76-8.06-8.96-14.3-21.24-3.08-6.07-4.11-9.66-2.75-13.12,1.76-4.47,7.04-7.92,11.46-7.13,2.9.52,4.53,2.69,7.35,6.35,2.85,3.69,7.14,9.19,12.79,16.16,1.08-.23,2.65-.42,4.39.02,5.46,1.36,8.06,7.68,9.32,10.3,3.31,6.86,8.51,16.28,17.34,29.84.35.02.88.09,1.5.3,2.62.87,3.82,3.44,4.56,4.46,4.94,6.91,10.28,14.36,11.48,25.59.17,1.54.21,2.78.23,3.47" fill="#ed7376"/>
  <path d="M493.43,177.4c-.93.15-2.37.38-4.18,0-3.39-.71-5.63-3.04-6.9-4.52-7.97-9.35-26.37-37.65-37.93-57.55-5.14-8.84-9.28-16.77-14.45-26.64-.64-1.23-2.47-4.71-1.4-8.35,1.29-4.39,6.54-8.06,11.14-7.39,2.83.41,4.67,2.36,6.83,4.86,3.55,4.11,8.18,9.96,13.12,17.71.54-1.18,1.42-2.58,2.76-2.84,3.28-.64,7.09,5.99,9.22,9.76,3.74,6.62,9.75,17.58,17.61,33.17.51-.12,1.27-.23,2.15-.1,3.56.5,5.55,4.25,7.57,7.73,7.22,12.45,10.9,14.14,9.83,19.33-.3,1.46-.87,2.44-2.02,4.39-1.21,2.07-5.8,9.21-13.36,10.45Z" fill="#2d8d64"/>
  <path d="M685.14,199.23c-1.43,2.62-3.33,6.64-4.54,11.83-1.35,5.79-1.23,10.33-.93,19.06.14,3.97.44,9.34,1.16,15.73-.79-2.91-1.88-7.31-2.79-12.73-1.87-11.14-2.85-17.46-.09-24.14.97-2.35,2.93-6.03,7.2-9.74Z" fill="#115666"/>
  <path d="M670.28,354.88c-2.73-6.63,1.14-14.47,5.43-19.56.08-.09.23.02.16.12-1.8,2.94-3.13,6.11-3.85,9.39-.58,3.4-.8,6.59-1.54,10.03-.02.1-.16.11-.2.02h0Z" fill="#0d565b"/>
  <path d="M682.98,69.49c-15.01,32.55-24.77,67.03-34.05,101.55-.03.11-.22.08-.2-.04,2.66-17.74,7.43-35.12,13.45-52,5.96-16.65,12.75-34.41,20.79-49.51h0Z" fill="#0d565b"/>
  <path d="M450.89,92.74c11.1,19.58,23.66,38.26,38.27,55.4,2.35,2.91,4.75,5.79,7.13,8.68,2.41,2.84,4.72,5.84,8.25,7.24.11.04.05.23-.06.19-3.76-.87-6.62-3.83-9.23-6.5-2.63-2.69-5.16-5.49-7.63-8.32-9.82-11.39-18.19-24.02-25.94-36.9-3.83-6.47-7.49-13.03-10.97-19.69-.06-.11.12-.21.18-.1h0Z" fill="#0d565b"/>
  <path d="M564.98,316.06c1.32,7.2-.15,16.17-6.71,20.46-.05.03-.1-.03-.07-.08,2.42-2.83,4.36-5.9,5.62-9.4,1.3-3.5,1.24-7.6,1.16-10.99h0Z" fill="#0d565b"/>
  <path d="M588.46,86.4c-1.93-.85-2.28-1.52-2.27-1.96.02-.97,1.82-1.27,1.88-2.35.07-1.14-1.86-1.53-1.88-2.75-.03-1.31,2.2-1.67,2.27-3.06.08-1.51-2.51-2.2-2.27-3.45.2-1.09,2.29-1.32,2.75-3.29,0-.03.01-.05.02-.08.3-1.59-1.79-2.34-1.9-3.68-.12-1.53,2.47-2.11,2.35-3.61-.1-1.31-2.15-1.49-2.27-2.82-.15-1.51,2.38-2.19,2.27-3.69-.11-1.56-2.91-1.93-2.9-3.29.01-1.33,2.67-1.59,2.9-3.29.2-1.44-1.56-2.24-1.18-3.45.36-1.15,2.14-1.06,2.27-1.96.17-1.14-2.67-1.76-2.75-3.29-.07-1.41,2.29-1.87,2.35-3.53.06-1.55-1.98-2.15-1.76-3.45.23-1.4,2.72-1.48,2.86-2.75.16-1.35-2.58-2.04-2.51-3.53.07-1.48,2.8-1.87,2.82-3.37.02-1.25-1.83-1.76-1.66-2.81.19-1.14,2.48-1.12,2.68-2.21.24-1.32-2.9-2.62-2.59-3.61.25-.78,2.43-.52,2.59-1.25.12-.58-1.17-.94-1.18-1.84-.01-.88,1.2-1.16,1.18-2.08-.02-.79-.91-1.04-.8-1.63.15-.75,1.69-.79,1.74-1.43.05-.54-1.03-.8-.98-1.36.05-.65,1.57-.72,1.68-1.47.09-.6-.82-.93-.7-1.49.14-.62,1.37-.61,1.48-1.25.07-.43-.43-.66-.31-.95.21-.52,2.13-.43,2.26.06.08.27-.49.4-.61.97-.18.81.79,1.28.61,1.96-.17.68-1.22.63-1.32,1.25-.09.58.76.85.71,1.57-.04.55-.57.6-.63,1.18-.07.71.7.97.63,1.57-.09.74-1.32.73-1.49,1.48-.19.84,1.23,1.48,1.02,2.29-.17.65-1.17.56-1.33,1.18-.21.82,1.43,1.38,1.41,2.51-.02,1.06-1.46,1.29-1.49,2.35-.03,1.1,1.51,1.42,1.49,2.51-.02,1.09-1.58,1.24-1.8,2.51-.23,1.28,1.22,1.73,1.18,3.22-.05,1.55-1.66,1.73-1.8,3.29-.15,1.72,1.72,2.39,1.41,4-.22,1.11-1.17,1.06-1.41,2.2-.32,1.54,1.31,2.11,1.25,3.92-.05,1.62-1.39,1.89-1.25,3.37.14,1.49,1.56,1.94,1.33,2.98-.23,1.01-1.66.94-1.88,1.88-.3,1.3,2.28,2.17,2.2,3.84-.07,1.33-1.73,1.36-2.12,3.06-.37,1.64,1,2.41.48,4-.39,1.19-1.27,1.08-1.5,2.12-.35,1.61,1.68,2.41,1.5,4.16-.16,1.52-1.76,1.58-1.93,3.06-.22,1.86,2.22,2.7,1.93,4.47-.21,1.35-1.7,1.32-1.93,2.75-.27,1.69,1.69,2.53,1.3,4.16-.27,1.12-1.32,1.24-1.3,2.27.02.92.86,1.22.91,2.2.04.8-.48,1.47-.91,1.9l-3.09-.18Z" fill="#ed7376"/>
  <path d="M704.21,378.94c-2.66.08-5.31-3.41-6-6.52-.88-3.98,1.46-7.27,2.27-8.42,2.1-2.96,3.91-2.87,5.83-5.56,1.89-2.64,2.21-5.64,2.21-7.67,1.37,2.41,3.76,7.42,3.29,13.77-.45,6.1-3.59,14.27-7.61,14.39Z" fill="#20212e"/>
  <path d="M691.91,386.5c.16.97,2.68,14.97,9.87,16.24.26.05,3.37.55,4.93-1.23,1.71-1.95.93-5.85-1.11-7.78-1.7-1.61-3.39-1.01-6.49-2.08-2.28-.79-4.78-2.3-7.19-5.14Z" fill="#20212e"/>
  <path d="M685.72,414.35c1.24,2.82,4.15,8.19,10.02,10.78,1.76.78,6.21,2.74,8.47.61,1.79-1.68,1.77-5.53,0-7.36-1.91-1.97-4.76-.54-10.26-1.35-3.57-.53-6.38-1.72-8.22-2.67Z" fill="#20212e"/>
  <path d="M193.7,349.5c3.18-5.34,8-11.87,15.19-17.82,2.24-1.86,4.46-3.45,6.59-4.81.91,1.57,2.43,3.71,4.85,5.63,5.02,3.98,10.56,4.32,12.64,4.34,1.85-1.97,2.32-4.82,1.21-7.05-1.35-2.72-4.8-4.1-7.98-2.92,1.22-1.11,3.96-3.26,7.98-3.85,1.64-.24,3.08-.16,4.21,0,.03-1.02.23-3.59,2.03-6.09,2.32-3.24,5.68-4.09,6.55-4.29-.22,1.51-.41,3.83,0,6.61.47,3.17.77,5.2,2.26,6.49,2.8,2.42,6.57-.59,10.3,1.35,1.64.86,3.63,2.86,4.6,8.11.56-.63,2.33-2.79,2.48-6.08.18-3.86-2.01-6.46-2.48-7,.85.16,3.13.46,5.64-.68,2.12-.96,3.33-2.44,3.84-3.16.42.07,2.85.49,4.29,2.71,1.29,1.98,1.28,4.62,0,6.77.02.01.06.03.1.06,1.29.75,2.39,1.03,2.73,1.14.7.22,1.67.74,2.82,2.11.51-.75,1.48-2.41,1.64-4.73.21-3.08-1.16-5.31-1.64-6.03,1.29-.98,2.86-2.03,4.71-3.03,1.72-.93,3.34-1.63,4.77-2.16.58-.52,1.47-1.47,2.07-2.91,1.06-2.58.42-4.93.19-5.67.32.09,3.65,1.07,4.74,4.29.62,1.82.2,3.43,0,4.06.49-.17,3.81-1.4,5.19-4.97,1.12-2.9.24-5.46,0-6.09.85.25,3.92,1.28,6.01,4.46,1.94,2.94,1.84,5.9,1.78,6.83.69-.15,1.64-.28,2.76-.22,1.34.07,2.42.39,3.15.67.54-.86,1.91-3.28,1.69-6.59-.16-2.47-1.14-4.28-1.69-5.15,2.34-.4,4.95-.98,7.75-1.81,2.79-.83,5.28-1.77,7.45-2.71-.01.33-.08.95-.45,1.6-.22.39-.49.66-.69.85,1.41-.26,3.58-.47,6.15,0,3.61.67,6.13,2.35,7.4,3.34-1.42.07-2.85.13-4.27.2l-7.63,1.77-3.12,1.77-1.02,1.76,1.19,2.61,3.44,2.55,4.29.84-1.26,2.45-3.76,4.44-8.25,4.81-8.33,1.78-5.24.94,2.04,2.06,1.26,5.46-1.34,4.06-3.22-.86-4.03-.75-3.23,1.67-4.12,3.73-1.67,2.63-3.38-.11-4.48-2.17-3.29-1.94-1.12-.97-2.88,1.1-4.72,1.27-.02,1.95-.45,6.82-2.51,5.02-4.07-3.38-6.05-3.59-5.01-2.76-3.96-1.15.08,3.62-2.31,8.33-1.06.72c-1.77-1.72-3.54-3.45-5.31-5.17-1.42-1.15-2.84-2.29-4.26-3.44l-5.87-1.83-5.34-1.01-4.46,8.75,1.06,4.06.99,3.59-4.96-1.24-4.74-4.78-1.49-3.51-1.69,3.98-3.09,5.25-.45,2.13-1.94-4.19-.67-3.81-17.09-11.06Z" fill="#050607"/>
  <path d="M201.13,311.02c-2.36,3.22-4.1,8.42-2.36,9.93,1.35,1.17,4.85.23,5.9-1.72.66-1.23.07-2.33-.2-4.58-.21-1.78-.2-4.28.73-7.41-1.12.71-2.69,1.9-4.07,3.78Z" fill="#20212e"/>
  <path d="M228.91,309.3c-.14.79-1.03,5.41-4.85,6.81-2.81,1.03-6.57.07-7.11-1.7-.46-1.51,1.41-3.51,2.79-4.98,1.11-1.19,1.75-1.52,2.47-2.19,1.32-1.23,2.76-3.47,3.03-7.93.47.45,4.6,4.55,3.67,9.99Z" fill="#20212e"/>
  <path d="M250.29,294.1c-1.76.36-4.6.93-7.18,3.41-2.57,2.47-3.26,5.28-3.59,6.68-.3,1.3-.65,2.79,0,3.27.99.73,3.78-1.31,5.38-2.85,2.16-2.07,1.86-2.92,3.92-5.3,3-3.47,6.06-4.45,5.76-5.21-.31-.81-3.89-.08-4.3,0Z" fill="#20212e"/>
  <path d="M281.83,289.26c-.11,3.01-.21,5.58-1.96,8.12-2.64,3.81-7.07,4.7-9.77,5.24-1.18.24-2.9.58-3.2,0-.41-.8,2.26-2.53,5.76-6.16,2.52-2.6,4.66-4.82,6.03-7.86.81-1.8,1.87-5.05,1.31-9.83.88,2.23,2,5.9,1.83,10.48Z" fill="#20212e"/>
  <path d="M292.01,288.36c-1.91,1.15-3.47,1.6-4.02,3.18-.36,1.03-.28,2.48.5,3.34,1.81,1.98,7.53.96,10.39-2.33,1.41-1.63,1.77-3.95,2.43-8.54.57-3.99.94-9.03.34-9.13-.53-.09-.59,3.78-3.6,7.79-2.84,3.78-6.03,5.7-6.03,5.7Z" fill="#20212e"/>
  <circle cx="665.86" cy="279.35" r="2.97" fill="#2d8d64"/>
  <circle cx="666.56" cy="294.39" r="8.42" fill="#2d8d64"/>
  <circle cx="675.79" cy="281.3" r="4.93" fill="#2d8d64"/>
  <circle cx="638.93" cy="185.02" r="3.95" fill="#2d8d64"/>
  <circle cx="651.77" cy="183.52" r="5.92" fill="#2d8d64"/>
</svg>