<?xml version="1.0" encoding="UTF-8"?>
<svg id="a" data-name="Capa 1" xmlns="http://www.w3.org/2000/svg" viewBox="0 0 971.91 976.7">
  <g id="b" data-name="Logo + corona + any">
    <g id="c" data-name="Amb Arc">
      <path d="M296.68,572.23c-1.96-1.11-4.04-2.36-5.56-3.87-2.04-1.94-3.14-4.48-4.96-7.6-2.68-5.18-10.85-12.14-15.52-13.42-1.12-.33-1.42-.03-1.1,1.08,1.33,3.92,3.83,11.57-.78,14.46-2.06.97-5.5-.19-9.39-.32-4.25-.02-9.89.72-12.91,3.71-.95,1.87,4.74,3.74,6.54,5.24,2.64,1.8,5.68,3.99,7.44,6.56,1.85,2.94-3.99,3.84-6.57,6.65-1.2,1.08-2.24,2.38-2.99,3.8-2.01,3.68-1.72,9.05.65,12.34,2.44,2.52,5.41-1.13,8.37-2.19,1.89-.87,4.05-1.43,6.1-1.61,6.05-.4,6.99,1.03,5.65,5.88-.96,3.95-.53,8.99,1.34,12.5,4.44,8.38,4.98-12.05,24.48-11.04,7.66.31,15.3,6.79,14.54,14.93.16,2.44-1.61,6.35.75,7.47,1.66.76,5.92-.62,7.95-2.06,2.47-1.59,4.06-3.78,5.89-4.75,3.13-1.67,6.67.14,9.95,1.3,2.89,1.13,5.61,2.26,8.21,3.38-12.24-15.65-21.4-29.2-28.13-40.93-6.7-3.96-13.4-7.83-19.96-11.5Z" fill="#fff"/>
      <path d="M261.03,389.74c2.42,1.21,4.64.71,7.22-.44,1,2.8,2.6,6.33,4.3,6.27.34-.01,1.02-.18,1.4-.7.65-.89.01-2.25-.33-3.42-.32-1.08-.55-2.62-.29-4.66,2.12-1.03,4.55-2.06,7.45-2.81.93,2.85,2.76,7.63,4.74,7.56.34-.01,1.02-.18,1.4-.7.65-.89.01-2.25-.33-3.42-.3-1.03-.53-2.47-.32-4.37,2.58-.23,5.1-.16,7.49.1.99,2.85,2.65,6.69,4.42,6.62.34-.01,1.02-.18,1.4-.7.65-.89.01-2.25-.33-3.42-.13-.45-.25-.99-.33-1.6,7.54,1.8,12.8,5.21,12.59,6.34-.23,1.27-7.1-1.4-15.6,1.77-11.59,4.32-11.08,13.86-20.85,15.97-7.85,1.7-14.59-3.06-17.21.45-.96,1.28-.94,3.11-.49,4.38,1.99,5.65,15.56,9.07,25.7,4.92,8.92-3.65,8.72-10.53,18.8-13.92,4.21-1.41,11.65-2.7,13.59.25,1.41,2.15-1.92,5.05-6.41,11.38-.15-.18-.29-.36-.42-.52-.72-.98-1.41-2.32-2.52-2.34-.64-.01-1.19.42-1.4.68-.93,1.13.3,3.82,1.69,6.14-1.3,2.09-2.64,4.47-3.94,7.19-1.43-.93-2.34-1.9-2.93-2.7-.72-.98-1.41-2.32-2.52-2.34-.64-.01-1.19.42-1.4.68-1.58,1.91,3.06,8.32,4.16,9.81.15-.15.3-.29.45-.44-1.15,2.69-2.08,4.73-4.29,7.35-.22.26-.43.5-.65.74-1.76-1.02-2.82-2.14-3.48-3.04-.72-.98-1.41-2.32-2.52-2.34-.64-.01-1.19.42-1.4.68-1.28,1.55,1.52,6.04,3.22,8.49-2.83,2.11-4.84,2.96-4.76,4.64.2,4.05,12.31,9.79,20.71,5.91,6.54-3.02,6.44-9.78,13.08-18.69,3.21-4.31,6.88-7.61,10.44-10.15.07,1.55.15,3.11.12,4.62.07,7.15-.11,13.37-.81,21.2-.82,9.04-2.17,17.37-4.21,25.71-4.88,19.9-11.57,31.87-14.99,46.26-7.41,28.22,9.33,60.87,29.36,86.65-18.49-39.36-17.58-88.85-5.37-125.82,9.52-28.79,25.98-50.24,41.29-69.75-.82-14.17-3.5-24.97-6.42-33.37-.84-2.43-1.79-4.88-2.81-7.3-3.02,2.96-6.13,4.74-9.72,4.69-.08,0-.16-.01-.24-.01,6.93-1.02,12.21-8.94,18.78-18.81.53-.8,11.02-16.67,8.67-18.59-1.53-1.24-5.88,5.51-16.69,10.17-10.06,4.34-15.92,2.88-19.88,6.31,2.1-2.43,4.76-3,8.41-3.69-5.75-8.31-11.96-13.81-17.16-12.95-2.72.45-3.62,1.55-13.28,6.64-2.1,1.1-5.62,2.53-9.57,3.89-8.84,3.02-18.8,6.43-28.76,3.17-5.36-1.76-5.24-3.65-10.07-4.32-5.89-.82-14.46.84-17.23,6.16-1.81,3.48.2,5.95-2.41,12.5-1.18,2.95-1.73,2.81-2.29,4.73-1.63,5.54.86,13.83,5.76,16.29ZM331.02,354.8c2.89,0,5.24,2.35,5.24,5.24s-2.35,5.24-5.24,5.24-5.24-2.35-5.24-5.24,2.35-5.24,5.24-5.24Z" fill="#fff"/>
      <path d="M390.42,379.21c-1.57-2.14-3.22-3.75-4.64-4.92.96.19,2.02.51,3.12,1.02,4.73,2.22,6.84,6.62,7.56,8.37.06-1.71-.02-6.25-3.04-10.63-1.74-2.52-3.8-4.05-5.18-4.89.81.24,1.89.44,3.15.34,3.85-.32,6.19-3.25,6.71-3.92-4.16.61-7.32.17-9.49-.38-2.58-.65-4.64-1.68-8.45-2.09-1.76-.19-3.24-.17-4.22-.12-.82,1.2-1.69,2.44-2.63,3.69-1.07,1.43-2.14,2.78-3.18,4.05,2.53,5.99,5.04,13.12,7.01,21.3,1.52,6.35,2.47,12.32,3.03,17.83,3.95-4.89,7.89-10.09,11.78-15.61,1.03-1.46,2.03-2.91,3.01-4.36-.61-2.41-1.86-6.01-4.55-9.67Z" fill="#fff"/>
      <path d="M718.22,541.28c-40.52-11.04,20.08-66.9,4.8-103.5-.48-1.49-1.03-2.94-1.66-4.36-.79-2.02-1.78-4.25-3.05-6.59-1.43-2.65-2.92-4.93-4.33-6.86-.66-.74-1.42-1.25-1.93-1.96-.57-.75-.8-1.57-1.43-2.16-.62-.61-1.58-.83-2.24-1.39-.89-.73-1.23-1.71-2.24-2.19-1.49-.55-2.59-1.56-3.88-2.52-2.4-.91-3.54-2.24-5.65-3.12-.62-.22-1.29-.38-1.83-.76-1-.72-1.47-2.07-2.54-2.42-1.36-.45-3.43.47-4.81-.53-.76-.45-1.4-1.15-2.22-1.51-1.35-.66-3.21.38-4.52-.29-.97-.41-1.8-1.19-2.88-1.28-1.46-.11-2.94.75-4.42.45-1.57-.15-2.97-1.66-4.49-1.85-2.25-.4-4.42,1.87-6.71,2.18-1.87.45-3.88-.99-5.6-.7-1.71.16-2.86,2.13-4.42,2.71-1.36.6-2.88-.05-4.27.35-1.64.41-2.64,2.47-4.2,3.01-1.29.57-2.88,0-4.1.72-1.11.59-1.65,2.35-2.78,3.07-1.22.93-3,.48-4.24,1.32-1.18.7-1.35,2.79-2.43,3.47-.69.48-1.59.43-2.38.63-1.84.34-1.78,2.56-2.86,3.73-.91,1.07-2.78,1-3.53,2.11-.92,1.2-.52,3.32-1.3,4.61-.68,1.5-2.78,1.76-3.8,2.91-1.34,1.42-.61,3.81-1.36,5.52-.54,1.57-2.48,2.39-3.09,3.89-.61,1.26-.18,2.79-.64,4.07-.55,1.56-2.63,2.08-2.61,3.78.1,1.9.86,4.08-.84,5.54-2.27,2.02.11,3.85-.63,6.13-.44,1.11-1.59,1.94-1.72,3.18-.29,1.82,1.72,4.01,1.15,5.92-.26,1.12-1.28,2.06-1.17,3.26.07,1.14,1.36,2.35,1.54,3.65.51,2.15-1.75,4.52-1.32,6.43.22,1.51,2.1,2.29,2.88,3.61,1.45,2.17-.9,5.43-.06,7.53.46,1.27,1.98,1.76,3,2.5,3.67,3.01-.9,6.92,4.81,9.6,2.41,1.41.91,4.6,1.87,6.62,1.66,2.11,4.23.91,3.59,4.82-1.05,4.73,5.67,5,2.36,8.56-3.1,2.94,1.07,6.42.2,8.56-.92.77-2.65-.06-3.79-.07-3.72-.53-1.56,5.77-3.23,7.5-1.1.58-2.49-.81-3.61-1.1-1.98-.69-3.3.97-4.81,2.54-1.02,1.07-1.95,2.03-2.5,1.66-1.29-1.27-1.16-4.49-3.01-5.19-1.36-.15-2.83,1.4-4.2,1.73-2.98,1.15-2.19-1.6-2.62-4.45-.41-1.75-.49-5.08-3.07-4.5-1.79.34-4.18,1.39-6.01.63-1.07-.58-.04-2.7.03-5.1,0-.51.02-1.06.03-1.63-1.87,4.71-2.34,4.1-2.37,5.86-.04,2.35.77,4.74.45,7.49,2.98,3.45,6.1,6.74,9.99,9.15,4.31,2.37,9.12,4.58,14.14,4.33,7.78-.33,13.83-6.66,16.67-13.52-2.59,7.13-8.68,13.72-16.62,14.27-5.24.41-10.23-1.7-14.75-4.11-3.75-2.21-6.84-5.25-9.76-8.45-.11.39-.25.79-.42,1.2,0,0,0,0,0,0-1.04,2.45-2.4,5.55-4.19,8.75.44.09.86.15,1.23.18-1.13,6.9,5.35,11.92,11.72,8.94,2.86,4.4,8.77,6.33,13.65,4.35,2.48,1.35,5.61,1.67,8.21.46,2.65-1.18,4.59-3.77,5.38-6.53,5.99-.08,9.09-5.74,8.49-11.23-.15-1.77-.56-3.54-1.2-5.23.47.99,1.06,2.46,1.41,4.32.25,1.32.77,4.12-.1,6.68-1.44,4.26-6.08,6.06-7.64,6.56-.94,2.92-2.9,5.5-5.71,6.83-2.8,1.35-6.14,1.25-8.95-.02-4.99,1.74-10.88.06-14.18-4.07-3.03.97-6.53.45-9.02-1.58-2.54-2.01-3.71-5.31-3.43-8.49-.16-.05-.31-.09-.47-.14-1.41,2.41-3.08,4.85-5.08,7.12-.92,1.04-1.8,1.93-1.91,2.03-3.17,3-6.3,5.9-11.44,8.24-6.1,2.78-11.77,3.28-15.33,3.25l-.51-.27c5.6-.68,9.64-2.43,10.84-2.98,5.14-2.34,8.27-5.25,11.44-8.24,11.51-10.87,14.84-22.15,13.96-26.09-.1-.46-.37-1.68-1.37-2.29-1.77-1.08-4.46.56-4.96.87.91-1.18,6.56-8.57,9.76-14.14.66-1.14,1.68-3.03,1.14-5.03-.41-1.55-1.58-2.52-1.81-2.7-.3-.24-1.4-1.11-3-1.19-1.98-.1-3.44,1.07-4.13,1.78,5.82-6.6,9.76-11.97,10.79-14.48.28-.68.87-2.1.35-3.56-.41-1.18-1.37-1.89-1.58-2.04,0,0-.83-.59-2.01-.79-1.89-.32-5.29,1.28-8.69,4.44,6.6-6.26,11.11-11.7,12.74-14.84,1.24-2.39,1.17-4.09,1.09-4.78-.07-.62-.24-2.08-1.34-3.3-1.28-1.42-3.05-1.66-3.85-1.76-3.51-.46-6.86,2.25-8.79,4.23,3.53-4.09,11.37-13.43,14.12-18.82.76-1.49,1.47-3.34.92-5.27-.66-2.28-2.74-3.48-3.23-3.76-.42-.24-2.36-1.31-4.79-.93-1.97.3-3.33,1.41-3.9,1.88-20.22,17-47.83,46.68-47.83,46.68-7.26,7.8-13.48,13.89-19.91,24.71-5.57,9.38-6.18,14.56-6.41,17.39-.18,2.3-.7,10.13,3.66,18.08-2.61-3.23-8.05-10.96-7.66-21.08.08-2.07.36-7.22,6.41-17.39.75-1.26,1.49-2.44,2.23-3.58-.15-.02-.29-.02-.44-.04-.61-.08-1.16-.2-1.67-.32-2.25,5.71-8.42,9.35-14.51,8.7-.21,1.89-1,5.47-4.04,8.54-2.93,2.96-6.35,3.83-8.25,4.1,3.42,8.73,8.96,14.37,10.1,15.51-3.5-2.78-9.49-8.35-12.91-17.21,0,0-4.72-12.23-.65-27.36,8.1-30.08,56.65-31.47,95.71-67.37,16.55-15.22,32.17-53.69,32.65-95.4.17-2.94.15-5.92-.03-8.89-1.05.18-2.12.22-3.21.1-2.33-.25-4.71-1.2-6.71-2.68,1.03.38,2.09.64,3.14.75,8.66.92,15.78-7.85,24.8-18.99.68-.83,14.06-17.46,11.63-19.84-1.57-1.55-7.14,5.53-19.71,9.6-13.23,4.29-19.68.84-24.68,6.62-.13.15-.25.31-.37.46.54-.99,1.17-1.91,1.86-2.71,1.51-1.74,3.15-2.64,5.07-3.17-2.69-4.39-5.85-7.27-9.23-7.74-2.73-.37-3.91.41-14.65,2.41-2.33.43-6.12.76-10.29.88-9.34.27-19.87.58-28.41-5.49-4.6-3.27-3.93-5.04-8.34-7.11-5.38-2.52-14.06-3.48-18.28.78-2.76,2.79-1.57,5.75-6.01,11.23-2,2.47-2.48,2.17-3.59,3.84-3.19,4.81-3.28,13.46.68,17.26,1.53,1.47,3.25,1.9,5.28,1.85.27,2.99.94,6.96,2.63,7.32.33.07,1.03.08,1.53-.33.85-.7.57-2.18.53-3.39-.04-1.07.09-2.53.77-4.32,2.33-.4,4.98-.81,8.04-.83.21,3.02.84,7.78,2.7,8.18.33.07,1.03.08,1.53-.33.85-.7.57-2.18.53-3.39-.04-1.01.08-2.37.66-4.03.22.03.44.07.66.11,2.36.42,4.6,1.08,6.71,1.89.28,2.97.95,6.82,2.62,7.18.33.07,1.03.08,1.53-.33.85-.7.57-2.18.53-3.39-.01-.38,0-.82.04-1.3,7.62,4.08,12.33,9.59,11.75,10.69-.6,1.14-6.37-3.44-15.42-2.93-12.35.7-14.68,9.96-24.64,9.08-8-.7-13.03-7.25-16.57-4.67-1.29.94-1.82,2.69-1.77,4.04.22,5.99,12.18,13.27,23.09,12.31,9.6-.85,11.45-7.48,22.08-7.73,4.44-.1,11.93.87,12.9,4.26.69,2.4-3.08,4.14-8.92,8.53-.32-.53-.57-1.03-.74-1.47-.45-1.13-.8-2.59-1.86-2.89-.62-.17-1.26.12-1.53.32-1.29.94-.54,4.32.34,7.07-1.8,1.53-3.72,3.31-5.71,5.4-1.23-1.3-1.89-2.5-2.27-3.45-.45-1.13-.8-2.59-1.86-2.89-.62-.17-1.26.12-1.53.32-2,1.46.91,8.82,1.61,10.53.04-.02.07-.04.11-.06-2.05,2.43-3.55,4.18-6.58,6.13-1.3-1.34-1.99-2.59-2.39-3.57-.45-1.13-.8-2.59-1.86-2.89-.62-.17-1.26.12-1.53.32-1.55,1.13-.15,5.81.88,8.65-3.95,1.56-6.55,1.63-7.01,3.43-1.01,3.92,8.86,12.99,18.03,11.77,7.14-.95,9.05-7.43,18.03-13.98,4.23-3.08,8.58-5.13,12.65-6.5-1.42,4.73-3.22,9.31-5.3,13.22-25.27,47.57-79.63,47.21-116.98,81.37-15.71,14.36-33.74,40.02-39.29,89.28.07-2.87.26-7.17.82-12.36,3.93-36.44,20.55-63.34,30.49-75.89,6.44-8.13,13.7-14.85,16.65-17.47,1.51-2.73,3.71-6.81,6.24-11.81,12.64-25.04,30.44-60.86,33.06-101.93,1.07-16.84,0-43.98-14.51-78.19h0c-.29-.81-.61-1.64-.93-2.46-2.68,2.54-5.82,4.28-9.41,4.33-2.41.03-4.94-.73-7.16-2.03-.1-.06,2.07,1.01,4.81,1.03,6.08.04,10.73-5.42,11.75-6.61,1.69-1.98,2.6-3.89,4.42-7.7.62-1.29,2.6-5.54,3.78-9.48,2.69-9.03,2.71-21.78-.55-22.72-2.54-.73-3.16,6.85-11.93,12.21-3.33,2.04-8.62,4.24-13.99,9.84-.15.15-.22.23-.33.35-.62.67-2.75,2.99-4.18,6.15,1.04-4.64,4.37-8.28,5.18-9.15.11-.12.19-.2.33-.35.45-.47.9-.91,1.35-1.33-6.17-6.78-18.16-18.95-33.29-18.49-9.51.29-12.68,5.52-24.59,9.92-9.28,3.43-22.93,6.04-41.97,2.32-.89-1.28-5.3-7.32-13.17-8.39-1.8-.25-7.14-.98-11.16,2.36-4.35,3.62-5.59,10.74-2.88,17.57-1.21,2.17-2.82,5.71-3.29,10.31-.1.96-1.23,13.04,3.96,15.67,2.35,1.19,4.54-.31,7.78-2.42,1.03,2.81,2.68,6.4,4.39,6.32.34-.02,1.02-.19,1.39-.71.64-.89-.01-2.25-.36-3.42-.36-1.17-.63-2.88-.26-5.21,1.95-.98,4.19-1.89,6.87-2.58.57-.15,1.13-.27,1.68-.38.48,2.65,1.82,8.82,4.02,8.99.34.03,1.03-.06,1.47-.53.75-.81.27-2.24.07-3.43-.22-1.28-.27-3.15.52-5.62,3.26,0,6.75.45,11.13,1.17.29,2.94.97,6.62,2.6,6.97.33.07,1.03.08,1.53-.33.85-.7.57-2.18.53-3.39-.02-.66.02-1.47.21-2.42.17.03.34.06.51.09,8.92,1.55,21.61,4.82,21.37,6.9-.22,1.93-11.1-1.33-23.2,4.09-13.62,6.1-13.08,16.17-24.65,18.39-8.37,1.6-15.61-2.32-18.45,1.7-1.09,1.54-1.19,3.78-.47,5.42,2.33,5.3,14.54,7.18,24.26,4.01,12.17-3.98,12.76-13.4,27.37-18.92,1.28-.48,12.49-4.64,14.62-1.48,1.84,2.73-3.32,10.71-11.08,18.08-1-1.14-1.57-2.2-1.91-3.05-.45-1.13-.8-2.59-1.86-2.89-.62-.17-1.26.12-1.53.32-1.68,1.23.09,6.59,1.12,9.31-1.31,1.07-2.66,2.11-4.04,3.09-1.16.82-2.3,1.57-3.42,2.26-1.86-1.64-2.76-3.2-3.23-4.37-.45-1.13-.8-2.59-1.86-2.89-.62-.17-1.26.12-1.53.32-1.81,1.32.38,7.42,1.34,9.86-3.32,1.64-6.3,2.76-8.84,3.67-1.05-1.18-1.65-2.28-2-3.15-.45-1.13-.8-2.59-1.86-2.89-.62-.17-1.26.12-1.53.32-1.37,1-.45,4.73.5,7.56-2.47,1.07-3.99,2.19-4.3,4.18-1.07,6.83,12.97,18.03,25.89,16.83,9.35-.87,13.52-7.82,24.16-16.83,4.17-3.53,9.66-7.64,16.73-11.72,3.51,6.85,7.29,16.34,8.76,27.84,7.39,57.84-54.25,84.78-76.82,153.07-15.59,47.17-12.77,114.73,25.26,155.6,19.23,20.67,43.63,29.48,70.43,33.2-11.75-9.92-23.25-20.97-29.07-35.6-1.77-4.38-3.48-10.07-4.28-15.79,8.01,21.76,31.42,44.73,38.59,49.44,4.4,2.89,8.18,6.63,12.29,9.91,1.41,1.12,5.57,3.86,1.9,4.2-15.7-.46-29.81-2.21-45.1-3.23-11.17-.82-28.71-2.52-36.82,2.1-9.48,4.6-16.88,15.7-14.93,26.56.64,2.95,1.28,6.26,3.44,5.82,1.34-.54,2.37-1.98,3.47-3.06,2.4-2.65,6.1-5.69,8.57-5.98,3.8-.34,4.6,4.38,6.44,6.97,1.48,2.28,4.44,7.41,7.25,5.82,2.66-2.08,2.48-12.08,8.2-12,2.53.17,4.62,2.7,6.69,3.93,3.28,2.09,5.34-1.7,7.09-4.1,1.5-2.19,3.54-4.15,6.09-5.05,5.37-2.06,10.75.63,15.1,3.62.82.45,1.59.72,2.32.75,1.87.12,3.48-1.59,5.98-3.02,3.08-1.85,6.82-1.75,10.43-1.22,14.79,2.11,25.01,4.05,34.94,6.17,8.47,2.07,14.91,2.33,17.4-.88,2.85-3.67-.56-11.13-2.4-14.97-8.37-17.41-14.12-28.04-23.56-48.14-1.57-3.34-2.94-6.33-3.27-7.04,9.23,11.41,16.27,24.27,22.57,37.49,9.2-.02,18.45-.07,27.66.07,9.24.14,18.9.05,28.69-.44.25-.16.49-.33.75-.48,1.37-.75,1.92-1.33,1.81-2.02-.13-1.02-1.22-2.08-2.03-2.83-2.08-1.85-4.6-3.3-7.17-4.85-1.29-.8-2.27-2.76-1.49-4.31.26-.55.63-.98,1.06-1.31,2.15-1.47,4.66-2.21,7.13-2.48,6.14-.66,12.5,1.08,17.34,4.91,1.89,1.48,3.44,3.31,5.3,4.74,2.74,2.28,6.35,2.03,9.73,1.92,4.61-.34,9.24-1.65,13.2-4.04,2.82-2.3,5.8-5.83,8.16-9.04,4.84-6.68,9.15-13.78,13.18-20.98,1.14-2.22,2.58-4.61,3.63-7.04-3.62,3.9-7.69,8.3-11.61,12.01-17.71,17.17-36.9,22.39-54.56,1.75,0,0-.42-.49-.42-.49l-.21-.24c-.35-.39-.48-.82-.47-1.24,2.16,1.96,5.27,4.48,9.36,6.87,4.69,2.75,9.44,5.41,13.98,5.84,17.41,1.64,32.87-16.8,44.78-29.38,1.77-1.68,3.77-.86,3.13,1.81-.85,3.36-2.54,6.35-4.11,9.37-4.31,7.86-8.92,15.47-14.15,22.77-2.68,3.63-5.55,7.21-9.14,10.16-4.43,2.87-9.53,4.16-14.62,4.61-9.36.8-10.66-1.55-17.05-7.26-4.69-3.59-11.04-5.11-16.83-3.79-2.12.44-5.39,1.81-3.61,2.34,3.24,2.01,7.74,4.1,9.95,7.96,2.96,5.55-3.93,7.14-6.88,9.97-4.65,3.87-7.46,9.75-7.63,15.77-.02.99.03,1.98.26,2.9.21.85.62,1.6,1.2,2,1.5.01,2.48-1.6,3.69-2.52,1.72-1.69,4.03-3.68,6.24-5.17,2.21-1.37,5.66-3.7,8.23-1.94,1.48,2.77-.51,5.88-.49,8.65-.4,2.99-.07,6.11.59,9.1.69,2.88,1.61,5.98,3.61,8.21.82,1.07,2.24,1.43,2.93.02,2.05-3.85,3.17-8.17,5.96-11.67,1.38-1.83,3.18-3.8,5.4-4.78,2.08-.79,3.16,1.8,3.55,3.37.9,3.95,2.69,7.62,5.64,10.44,1.8,1.79,4.14,3.56,6.81,3.13.47-.19,1.22-1.22,1.36-2.19.72-5.33.85-10.62,5.95-13.88,3.44-2.26,7.55-3.3,10.59-6.04,2.96-2.66,4.84-6.4,5.74-10.25.45-1.99,1.14-4.06,1.93-5.95,6.65-15.1,16.01-28.68,22.85-43.63,3.38-7.46,6.63-14.98,9.57-22.63,2.89-7.59,6.18-15.22,7.34-23.26.76-3.88-1.29-8-4.98-9.4-3.51-1.33-6.87-1.52-11.86-.39-5.82,1.32-14.03,3.62-23.81,7.84.03-.03.07-.05.1-.08.03-.1.08-.19.17-.25,10.07-4.62,24.82-11.82,35.88-8.33,3.04,1.06,5.23,3.87,5.91,6.96.72,3.12-.33,6.24-.89,9.29-1.88,8.77-5.8,18.04-8.94,26.47-4.11,11.28-9.14,22.24-14.79,32.83,16.56-8.84,30.59-21.27,40.07-38.59,9.17-15.05,20.01-55.46,8.66-79.53-6.91-18.38-21.24-33.6-28.65-50.2-5.42-11.73-6.22-26.31,1.42-37.24,6.56-10.29,22.45-10.14,30.32-1.29,3.2,3.52,5.33,7.99,6.22,12.62,5.09,26.51-26.89,61.14-3.19,83.45,6.4,6.74,17.58,6.77,24.78,1.56,1.75-1.12,2.81-3.21.31-4.45ZM575.73,305.26c2.89,0,5.24,2.35,5.24,5.24s-2.35,5.24-5.24,5.24-5.24-2.35-5.24-5.24,2.35-5.24,5.24-5.24ZM412.57,241.49c-3.72,0-6.74-3.02-6.74-6.74s3.02-6.74,6.74-6.74,6.74,3.02,6.74,6.74-3.02,6.74-6.74,6.74Z" fill="#fff"/>
      <path d="M614.82,326.66c1.17-.95,2.22-1.89,3.15-2.79,1.58,1.18,3.87,3.09,6.17,5.85,2.93,3.53,3.86,6.05,5.31,8.26,1.99,3.02,5.82,6.75,14,9.22-1.2.75-3.41,1.92-6.42,2.31-3.57.46-6.4-.42-7.76-.95,1.43,1.64,3.37,4.27,4.54,7.89,1.59,4.96.77,8.81.39,14.2-.27,3.91-.37,9.63.59,16.76-1.03-.32-2.8-1.02-4.54-2.56-1.8-1.6-2.72-3.34-3.16-4.34.2,3.17.17,6.88-.35,10.98-1.07,8.47-3.8,15.19-6.15,19.77.28-6.34-1.11-10.78-2.18-13.34-1.08-2.58-1.63-2.72-1.87-2.71-1.47.08-1.81,6.39-3.07,11.93-1.08,4.71-3.34,11.11-8.55,18.32.22-4.95-.98-8.71-2.72-9.06-1.99-.41-4.94,3.6-5.44,7.51-.38,3.05.8,5.5,1.42,6.6-.93.09-2.25.06-3.5-.62-1.34-.72-2-1.78-2.36-2.37-2.3-3.74-.88-9.67-.67-10.49,7.75-15.25,16.2-37.05,18.55-64.05.73-8.34.78-16.14.43-23.28,1.32-.85,2.73-1.86,4.18-3.04Z" fill="#fff"/>
      <g>
        <path d="M485.15,358.6c3.38,7.93,8.92,12.63,11.61,14.64-.99-1.43-2.33-3.77-3.08-6.93-.98-4.16-.43-7.64,0-9.49.57,1.81,1.51,4.16,3.08,6.67,1.47,2.34,3.05,4.12,4.36,5.39-.04-1.85-.14-6.14-.26-11.8,0-.14,0-.27,0-.41-5.48-1.6-10.64-4.46-14.13-8.13-.44,3.4-.97,6.76-1.58,10.07Z" fill="#fff"/>
        <path d="M480.69,236.14c1.05.18,2.32.28,3.75.13,3.12-.33,5.34-1.65,6.38-2.38-4.4.34-7.37-.17-9.41-.97-.22,1.14-.46,2.22-.72,3.22Z" fill="#fff"/>
        <path d="M488.84,244.19c-.55-.88-1.85-3.09-4.36-5.27-1.32-1.15-2.67-1.95-3.87-2.5-.11.41-.22.81-.33,1.19-1.22,4.1-3.14,8.34-4.17,10.5-1.38,2.88-2.37,4.95-3.63,6.87.13.33.25.67.38,1.01,10.31,24.37,15.44,48.62,15.29,72.22,1.45-.76,3.05-1.16,4.72-1.16,2.78,0,5.17,1.05,7.44,2.21-.72-1.25-1.21-2.63-1.56-3.96-1.46-.63-2.78-1.51-3.97-2.65-6.86-6.58-6.38-19.08-1.67-26.19.99-1.49,1.84-2.28,2.69-3.02.39-.34.67-.59,1.3-1.35,1.62-2,2.05-3.28,2.59-4.9.46-1.37,1.05-3.1,2.27-4.89-.38-1.06-.79-2.14-1.25-3.24.98.09,2.39.09,4-.33,2.94-.78,4.8-2.53,5.61-3.41-4.86-1.08-7.05-3.1-8.15-4.83-1.29-2.02-1.17-3.78-2.99-6.32-1.45-2.02-3.21-3.25-4.49-3.99,2.15.58,5.14,1.64,8.32,3.66,3.61,2.3,6.03,4.92,7.5,6.79-2.43-10.16-6.69-15.06-10.26-17.65-3.86-2.81-8.47-4.05-11.39-8.77Z" fill="#fff"/>
        <path d="M441.89,217.34c1.03-.34,2.68-.82,4.74-1.05,4.48-.52,7.04.64,11.49.85,3.86.18,6.99-.15,8.94-.43-1.04.88-2.43,1.87-4.21,2.68-4.24,1.93-8.18,1.71-10.18,1.46,2.18-.41,4.94-.66,8.1-.3,1.04.12,2.01.29,2.9.49-.37.25-.94.63-1.66,1.07-2.28,1.42-3.45,1.91-5.23,2.96-.85.5-2.07,1.27-3.48,2.33-1.33-1.6-2.97-3.36-4.94-5.14-2.28-2.05-4.5-3.66-6.47-4.92Z" fill="#fff"/>
      </g>
      <path d="M495.95,499.84c-6.22,3.41-11.79,7.59-17.21,12.15-.11.8-.18,1.45-.22,1.87-.69,6.26.29,11.88,1.95,16.68,1.7-.24,4.69-1.01,7.25-3.59,3.48-3.51,3.64-7.81,3.66-8.69,0,0,.07-1.13.07-1.13l1.12.18c6.3,1.08,12.38-2.96,13.93-9.13,0,0,.99.29.99.29,1.32.15,2.65.29,3.97.44,4.36-6.29,8.74-10.97,13.52-16.07-9.72-1.09-19.45,1.13-29.03,7.02Z" fill="#fff"/>
      <path d="M527.64,489.99s3.85-4.14,9.73-10.21c-.73-.34-1.54-.38-2.48.13-2.81,1.13-8.65,4.67-11.29,2.56-1.53-1.37-4.86-4.4-7.7-5.41-1.63.63-3.24,1.28-4.84,1.92-2.3,2.76-4.55,5.98-7.56,7.51-1.77.33-3.23-1.36-4.9-1.8-3.79,2.07-7.36,4.47-10.43,7.49-.52.51-1.01,1.03-1.48,1.56-.68,1.35-1.4,2.59-2.1,3.53-.36.58-.75.87-1.17.97-2.48,4.14-3.68,8.28-4.28,11.35,6.89-5.88,14.52-11.01,22.76-14.84,7.78-3.79,16.36-4.81,24.7-3.63.34-.37.69-.73,1.04-1.11Z" fill="#fff"/>
    </g>
    <path id="d" data-name="Corona mitjana" d="M923.29,558.66c19.79-14.11,36.85-40.35,45.27-69.54,5.36-18.48,4.37-25.59-3.5-25.37-11.7.33-44.07,24.49-59.15,44.07-10.82,14.11-23.84,39.47-26.57,51.83-.87,4.26-1.86,8.75-2.08,9.95-.22,1.31-2.19,4.26-4.26,6.56l-3.94,4.37.66-3.28c.44-1.86,2.19-9.73,3.83-17.49,3.83-17.39,7.22-39.91,8.97-59.59,1.2-14.11,1.42-15.31,6.67-26.79,2.95-6.67,6.23-14.32,7.22-17.28,1.42-3.94,3.28-6.34,7.76-9.95,17.06-13.34,30.94-28.87,37.4-41.44,8.42-16.84,15.09-45.6,15.09-65.5,0-15.09-3.06-21.65-9.4-20.12-4.05,1.09-22.52,19.35-30.18,29.96-10.61,14.65-19.24,35.32-23.18,55.55-.98,4.81-2.08,10.06-2.41,11.92-.33,1.75-.87,9.84-1.2,17.93-.55,12.68-.87,15.09-3.17,19.14l-2.62,4.48v-11.15c0-18.81-2.19-43.52-5.8-66.48-1.6-10.31-2.55-16.88-2.92-21.81-3.56-2.64-5.87-6.86-5.87-11.62,0-6.03,3.7-11.2,8.94-13.38.11-1.21.18-2.33.18-3.26,0-3.39.44-6.45,1.09-6.78.55-.33,4.37-5.69,8.42-11.81,19.03-29.09,24.06-47.02,22.96-81.68-1.09-32.15-6.23-45.6-15.64-41.22-3.39,1.42-13.45,14.76-18.26,23.95-5.58,10.61-8.31,17.93-11.26,29.85-5.25,21.21-4.48,43.41,2.19,67.68,1.97,7.11,2.41,10.39,1.64,12.36-.55,1.42-.98,4.26-.98,6.12,0,2.19-2.3-3.28-6.45-15.09-8.64-25.15-15.53-43.08-23.18-60.14-9.62-21.65-12.36-40.57-7.65-53.58,7.11-19.57,9.62-45.16,6.23-63.2-3.06-16.29-12.36-38.27-19.35-45.71-10.06-10.82-18.15,6.12-20.23,42.75-1.2,21.76,1.75,34.22,14.32,59.81,5.69,11.7,7.65,16.84,7.33,19.14-.44,2.84-1.42,1.75-11.04-12.47-13.23-19.68-21.98-31.27-34.22-45.38-5.25-6.12-9.62-11.81-9.62-12.68,0-6.78-12.57-35.32-20.78-47.24-18.59-26.79-65.72-55.44-74.9-45.38-1.42,1.64-1.75,3.28-1.31,6.78.87,6.23,8.97,21.98,18.04,34.66,14.63,20.62,28.41,32.84,50.98,44.99,2.66-3.2,6.67-5.24,11.14-5.24,7.99,0,14.49,6.5,14.49,14.49,0,2.22-.52,4.31-1.41,6.19,2.68,2.95,5.76,6.92,10.41,12.93,7,9.08,18.37,26.24,21.76,32.8.77,1.53-2.73-1.31-7.76-6.12-5.03-4.92-12.03-11.15-15.53-14-14-11.15-39.04-20.01-54.02-19.03-9.4.66-24.6,4.81-27.55,7.54-3.83,3.5-2.95,7.87,2.19,12.36,7.11,6.01,28.54,20.01,38.49,25.15,15.09,7.65,24.71,8.75,47.24,5.14l12.03-1.86,5.47,3.17c9.95,5.8,17.06,11.81,20.88,17.82,11.15,17.39,27.66,56.31,35.97,84.63,2.19,7.44,3.72,13.56,3.5,13.89-.33.22-1.53-1.2-2.84-3.17-1.2-1.97-2.73-4.37-3.39-5.25-.55-.87-2.95-6.23-5.36-11.81-6.45-15.31-10.61-21.65-21.43-32.58-7.98-8.09-11.59-10.72-19.14-14.54-10.93-5.36-21.21-7.76-33.57-7.76-9.95,0-13.89,1.09-15.53,4.26-2.84,5.14,5.03,17.82,21.76,35.43,12.47,13.01,21.1,20.01,30.4,24.38,6.89,3.28,24.38,8.53,32.26,9.73,2.59.43,4.03.83,5.85,2.42,1.22-.33,2.5-.53,3.82-.53,7.99,0,14.49,6.5,14.49,14.49,0,2.82-.82,5.45-2.22,7.68,3.57,6.33,5.76,12.28,7.14,19.13,1.97,9.51,4.48,26.02,6.12,39.91,1.09,9.08,1.64,52.16.77,57.41l-.87,4.92-.77-4.37c-.55-2.41-2.08-6.89-3.39-9.84-1.86-3.94-2.73-8.31-3.17-15.31-2.41-37.18-26.13-70.42-58.28-81.46-7.44-2.62-12.79-2.73-14.65-.55-4.59,5.47,9.29,46.25,21.43,63.2,7.11,9.84,25.81,25.7,37.18,31.49,2.95,1.42,5.9,3.39,6.67,4.26,1.57,1.95,4.68,9.47,7.43,17.67,6.57,1.38,11.52,7.21,11.52,14.18,0,4.69-2.25,8.85-5.71,11.5.05,2.33-.05,4.99-.23,8.58-1.2,24.16-9.84,65.28-19.03,90.76l-4.37,12.03-.55-9.84c-.44-5.47-.77-10.39-.87-10.93,0-.66.55-4.05,1.2-7.65.87-4.37,1.09-13.01.77-26.24-.66-22.31-3.17-34.44-10.06-49.42-7.98-17.17-23.29-36.3-30.62-38.16-7.33-1.86-9.84,7.76-8.97,34.55.55,14.54,1.2,20.23,3.5,28.98,4.16,16.4,12.68,32.58,24.82,47.67l10.17,12.47v15.82c4.33,2.51,7.26,7.19,7.26,12.54s-2.93,10.04-7.26,12.54v3.93l-9.18,16.4c-14.43,25.91-34.88,56.09-48,70.53l-4.48,4.92,3.28-10.28c1.86-5.69,5.25-13.56,7.54-17.49,10.06-17.17,16.4-38.49,16.4-55.55,0-20.12-4.59-43.63-11.48-58.83-6.89-15.2-13.23-18.81-18.48-10.72-3.5,5.47-8.64,22.09-12.25,39.36-2.41,11.15-2.95,17.06-2.95,29.3-.11,20.12,2.62,32.69,11.59,53.58l3.72,8.75-4.26,12.57c-1.28,3.69-2.46,6.98-3.59,9.93,2.59,2.62,4.19,6.22,4.19,10.18,0,7.99-6.5,14.49-14.49,14.49-1.11,0-2.19-.14-3.23-.37-.34.36-.68.73-1.04,1.09-16.84,17.28-48.55,42.1-70.75,55.44l-4.37,2.73,2.08-3.28c1.2-1.86,3.39-5.36,4.81-7.87,1.42-2.62,4.16-5.8,6.01-7.11,5.69-3.94,17.17-15.2,21.54-21.21,15.09-20.23,23.84-54.34,20.78-80.8-1.53-13.78-3.72-21.54-7-25.37-2.3-2.62-2.95-2.84-5.69-1.97-4.7,1.64-14.43,15.85-23.95,34.99-14.43,28.98-17.6,42.75-16.51,72.82l.66,19.14-5.36,7.65c-2.95,4.16-8.64,11.37-12.68,16.07-6.56,7.54-8.53,9.18-18.48,14.11-18.26,9.18-48.66,21.43-66.81,27.01-4.16,1.31-8.53,2.62-9.73,2.95-1.75.55-1.53,0,.98-3.28,1.64-2.19,3.5-3.94,4.16-3.94,2.41,0,22.2-10.17,28.65-14.65,14.54-10.5,26.9-27.12,34.77-47.13,4.92-12.36,9.51-29.63,10.28-38.82.55-6.23.22-7.54-1.86-10.17-3.17-4.05-6.78-3.83-15.31,1.09-9.62,5.58-34.01,29.85-41.22,41-8.86,13.56-16.84,34.99-21.1,56.75-.98,5.14-2.08,7.11-6.34,11.48-6.12,6.23-16.18,13.78-20.56,15.53-1.75.66-13.89,3.94-27.01,7.33l-23.84,6.12-24.49-6.12c-28.1-7-36.41-10.72-47.35-21.1l-6.45-6.23-1.86-10.39c-4.81-27.01-13.67-48.33-26.9-64.73-11.59-14.43-33.68-32.8-41.22-34.33-5.03-.98-9.08,3.5-9.08,9.95,0,12.03,7.33,38.27,14.76,53.14,11.81,23.4,27.55,38.71,50.95,49.42,5.14,2.41,8.97,5.03,10.61,7.22,1.31,1.86,1.97,3.39,1.31,3.39s-6.67-1.75-13.34-3.94c-28.21-9.18-73.59-29.74-78.84-35.76-6.12-7-15.75-20.01-18.37-24.82-2.51-4.59-2.73-5.47-1.75-13.12.44-4.48.66-15.85.33-25.15-.55-14.32-1.09-18.7-3.72-27.88-5.8-20.01-14.87-38.93-27.23-56.86-5.58-7.98-9.73-10.72-13.23-8.64-7.98,4.81-12.47,37.72-8.2,60.36,5.14,27.12,15.96,47.13,34.44,63.97,4.81,4.37,9.4,9.18,10.17,10.72.87,1.64,3.28,5.14,5.47,7.98,2.08,2.73,3.5,5.03,3.17,5.03-.98,0-18.59-11.7-27.66-18.37-13.45-9.84-33.9-27.66-43.85-38.16-1.1-1.16-2.11-2.25-3.05-3.3-1.13.28-2.3.45-3.51.45-7.99,0-14.49-6.5-14.49-14.49,0-3.99,1.62-7.61,4.24-10.23-1.22-3.21-2.55-6.9-4.07-11.23l-4.16-11.7,3.83-10.17c10.5-27.23,13.56-44.83,11.37-65.93-2.19-20.67-8.42-46.47-13.23-54.67-4.7-7.87-10.61-5.9-17.6,6.12-5.36,9.08-8.97,20.23-11.92,36.52-2.95,16.62-2.51,39.69,1.09,53.58,2.3,8.64,11.15,28.43,15.53,34.55,2.19,3.17,7.87,18.48,7.11,19.24-.55.66-17.49-20.23-25.48-31.38-10.93-15.31-20.45-30.51-27.55-43.85l-6.67-12.57-.18-4.71c-4.48-2.47-7.53-7.24-7.53-12.7,0-5.09,2.65-9.58,6.63-12.16-.27-14.97,1.31-17.75,8.72-26.96,15.75-19.46,22.09-31.49,26.35-49.75,1.86-7.54,2.3-14.21,2.62-32.47.44-24.93-.22-29.63-4.26-30.73-3.83-.87-8.42,1.86-16.84,10.39-12.79,12.79-21.87,28.21-26.57,45.49-3.06,11.37-4.16,46.8-1.86,59.15.98,4.81,1.2,8.86.66,10.93-.55,1.75-.66,5.9-.33,9.08.33,3.28.44,5.8.11,5.47-.22-.22-2.51-6.34-5.03-13.56-5.47-15.96-10.17-34.66-12.57-50.52-.98-6.45-1.97-13.01-2.3-14.54-.22-1.53-.98-9.51-1.64-17.71-.51-6.4-.81-10.08-.71-13.27-3.44-2.65-5.66-6.8-5.66-11.47,0-6.88,4.83-12.65,11.28-14.12,3.59-12.13,7.27-19.7,9.97-20.4,3.94-.98,21.1-12.79,29.74-20.45,10.39-9.18,15.85-16.62,22.42-30.29,6.01-12.68,13.12-36.08,12.68-41.66-.22-2.3-1.2-4.26-2.51-5.03-3.28-2.08-13.89.55-25.48,6.12-7.98,3.83-11.15,6.12-20.01,15.09-5.69,5.8-12.14,13.45-14.21,17.06-7.87,13.45-12.57,28.98-13.67,44.83-.44,5.36-1.42,11.26-2.41,13.01-.87,1.86-2.51,5.8-3.61,8.75l-2.08,5.58.55-24.6c.55-25.91,1.42-35.97,4.92-57.41,3.37-20.22,5.06-26.9,10.21-36.15-1.81-2.42-2.89-5.4-2.89-8.65,0-7.99,6.5-14.49,14.49-14.49,1.46,0,2.86.22,4.19.62,2.26-1.58,4.68-2.17,8.33-2.78,11.59-1.97,27.12-7.33,35.97-12.47,5.58-3.28,12.14-8.86,22.63-19.46,16.51-16.51,24.27-27.34,24.49-33.79.11-3.61-.33-4.26-3.72-6.01-5.8-3.06-24.82-2.08-36.85,1.86-16.29,5.25-31.6,17.71-42.43,34.44-5.25,8.09-13.67,25.26-13.67,27.77,0,.87-1.31,2.62-2.84,4.16-1.64,1.42-2.62,1.86-2.3.98.33-.87,2.62-7.87,5.14-15.53,7.87-24.49,23.73-60.79,33.57-77.09,5.8-9.62,10.82-14.21,21.1-19.46l6.01-3.06,12.57,1.42c22.96,2.62,31.82,1.53,46.47-5.8,8.2-4.05,37.72-22.96,40.13-25.59,3.72-4.16,2.51-10.39-2.62-13.01-10.61-5.47-27.12-7.22-41.33-4.37-19.35,3.94-31.82,10.83-49.1,27.45-6.12,5.9-11.37,10.5-11.59,10.17-1.53-1.53,19.9-32.91,30.29-44.39.43-.5.85-.99,1.26-1.46-.78-1.78-1.22-3.74-1.22-5.81,0-7.99,6.5-14.49,14.49-14.49,4.22,0,8.02,1.83,10.67,4.72,19.01-11.29,37.07-26.65,47.84-41.02,9.29-12.36,18.59-32.37,18.59-40.13,0-6.01-7.11-9.29-14.21-6.56-19.68,7.44-43.19,26.02-58.17,45.92-7.65,10.17-14.76,24.49-19.46,38.82-2.62,8.09-4.37,11.37-7.98,15.31-11.04,11.92-27.55,33.57-41.55,54.56l-10.17,15.2-.22-4.92c-.11-3.83.55-6.23,3.5-11.04,6.23-10.39,12.25-23.18,15.53-32.91,2.73-8.42,3.06-10.72,3.06-25.15,0-22.31-4.05-45.27-9.29-52.59-2.41-3.5-6.89-4.26-9.95-1.86-7.11,5.9-17.82,31.27-21.1,49.97-3.28,18.7-1.64,34.66,5.58,55.33,4.7,13.12,4.81,19.46.98,39.25-1.86,9.4-4.26,17.06-8.2,26.35-6.12,14.11-17.49,45.27-22.52,61.23l-3.06,9.84-.87-6.01c-.55-4.7-.22-8.42,1.97-17.17,6.12-25.26,6.67-44.94,1.97-66.81-4.81-22.52-18.48-48.88-27.34-52.92-8.97-4.16-14.65,11.04-16.4,43.96-1.53,31.93,5.25,55,23.73,80.59,4.81,6.67,6.45,9.84,6.45,12.57,0,1.24.39,4.57,1.01,8.56,4.85,2.35,8.21,7.3,8.21,13.04,0,4.61-2.18,8.72-5.55,11.38-.19,1.09-.43,2.3-.73,3.75-5.03,23.84-9.51,65.39-9.51,87.58v9.08l-3.06-5.9c-2.95-5.58-3.17-6.89-3.83-23.95-1.2-36.41-9.18-61.34-27.12-85.07-7.54-10.17-21.87-23.84-25.91-24.93-8.31-2.08-11.59,10.06-8.97,33.57,2.73,25.15,8.64,44.61,18.15,59.81,6.01,9.62,23.84,28.1,31.49,32.58,2.73,1.64,5.03,3.61,5.03,4.48s2.51,6.78,5.58,13.23c9.18,19.35,9.51,20.45,10.72,38.82,1.64,23.29,6.12,51.83,11.48,71.95.87,3.28,1.42,6.12,1.31,6.34-.22.11-2.19-1.75-4.37-4.16-2.84-3.17-3.94-5.36-3.94-7.98,0-9.84-11.15-35.76-23.07-53.8-11.04-16.62-32.47-36.19-50.19-45.71-9.84-5.25-13.67-5.8-17.06-2.41-3.5,3.61-3.39,8.2.66,22.74,8.86,31.6,24.71,56.42,45.16,70.53,9.73,6.67,23.73,13.67,31.6,15.64,5.03,1.31,6.45,2.51,14.76,11.92,1.62,1.83,3.05,3.5,4.36,5.09,7.4.65,13.22,6.87,13.22,14.43,0,2.03-.42,3.96-1.18,5.72,1.11,2.56,2.29,5.44,3.62,8.76,6.45,16.4,23.18,47.13,37.29,68.45l2.3,3.61-4.59-2.62c-2.95-1.64-7.76-6.67-13.78-14.43-29.96-38.6-48.22-51.17-87.37-60.03-18.59-4.16-24.6-3.39-24.6,3.28,0,13.23,28.1,49.86,47.78,62.54,17.93,11.48,32.37,15.64,53.91,15.64,13.34,0,15.2.22,16.84,2.08,1.09,1.2,6.56,4.92,12.25,8.31,9.29,5.69,11.81,7.98,25.15,23.07,13.23,14.98,43.63,44.28,54.34,52.27,4.92,3.72,4.7,4.59-.66,2.3-2.19-.87-5.47-1.64-7.33-1.64-2.3,0-7.11-2.62-16.84-9.51-21.1-14.76-36.96-22.96-52.7-27.12-13.67-3.72-48.11-3.06-58.06,1.09-4.7,1.97-7.22,6.01-6.23,9.95.98,4.16,16.18,19.03,27.45,27.01,10.61,7.44,23.95,14,36.41,18.04,7.87,2.41,11.26,2.95,22.42,2.95,14.11,0,19.57-1.31,35.32-8.31l6.89-3.17,6.78,2.08c3.72,1.2,11.59,3.39,17.6,5.03,7.91,2.2,12.07,3.95,19.25,8.43,2.05-1.11,4.4-1.75,6.89-1.75,7.99,0,14.49,6.5,14.49,14.49,0,.07,0,.13,0,.19,15.13,8.56,32.45,17.27,50.12,25.21l10.83,4.81-10.06.77c-9.95.66-10.5.55-21.32-3.39-23.73-8.86-38.27-12.14-53.58-12.14-19.35,0-36.74,4.81-52.27,14.54-20.45,12.79-21.43,19.9-3.72,28.1,21.21,9.84,57.95,14.65,78.51,10.39,10.39-2.19,18.7-6.12,34.12-16.29l12.57-8.2,17.82-.98c2.77-.13,5.16-.23,7.26-.29,2.36-4.81,7.29-8.13,13-8.13,7.28,0,13.3,5.39,14.32,12.39,2.36.6,4.84,1.22,7.29,1.83,26.35,6.23,73.7,18.48,73.26,18.92-.22.33-4.37,2.08-9.08,4.05-28.21,11.48-65.61,36.3-84.74,56.2-11.04,11.37-13.45,16.95-9.73,21.87,2.73,3.83,7.87,4.26,12.79,1.2,2.08-1.31,6.78-5.9,10.28-10.28,20.01-24.49,54.02-48.11,91.63-63.42l9.95-4.16,10.5,3.94c13.12,4.92,22.31,9.51,38.71,19.35,25.04,15.2,41.77,28.87,61.12,50.52,2.51,2.84,5.8,5.69,7.33,6.34,6.67,3.06,12.79-3.28,10.39-10.83-5.03-15.85-40.79-43.63-85.07-66.04-10.39-5.25-18.59-9.62-18.15-9.62s8.97-2.3,18.92-5.03c10.06-2.73,30.62-8.2,45.6-12.14,5.81-1.53,10.38-2.73,14.12-3.66,1.4-6.54,7.22-11.47,14.17-11.47,5.76,0,10.73,3.38,13.07,8.26,23.98.41,22.45.09,35.3,8.62,22.09,14.87,29.52,17.6,49.1,18.37,23.62.98,53.8-5.14,69.21-14,6.12-3.5,7.87-6.78,6.12-11.81-2.51-7.11-25.48-20.88-42.53-25.48-7.33-1.97-11.7-2.3-27.34-2.3-21.43,0-27.45,1.2-48,9.73-7.54,3.17-13.56,5.03-15.96,4.92-2.08-.11-6.89-.22-10.61-.33-7.22-.33-7.44-.77-1.42-3.06,2.08-.77,12.25-5.47,22.52-10.39,13-6.25,23.1-11.54,33.86-17.93.41-7.62,6.73-13.7,14.45-13.7,1.98,0,3.86.4,5.58,1.12,11.11-7.25,10.03-6.73,39.27-13.22l6.89-1.53,9.51,4.16c14.11,6.12,19.03,7.22,31.38,7,25.04-.33,49.64-12.03,73.48-34.66,9.62-9.08,12.79-13.89,11.92-17.71-1.75-6.89-14.65-9.73-40.02-8.86-14.32.44-18.37.98-26.24,3.5-15.2,4.81-31.38,13.67-51.61,27.99-8.86,6.34-11.26,7.54-14.98,7.54-2.41,0-5.58.44-7.11,1.09-1.53.55-2.84.66-2.84.11s.66-1.2,1.42-1.53c2.3-.87,21.98-17.71,33.13-28.32,5.69-5.47,16.4-17.17,23.95-25.91,11.26-13.34,14.87-16.84,20.99-20.45,4.05-2.3,9.51-5.9,12.03-7.87l4.7-3.5h14.54c17.49,0,27.34-2.19,41.77-9.18,17.71-8.64,33.02-22.52,46.25-41.99,11.37-16.51,14.98-26.79,11.15-31.38-2.19-2.62-13.12-1.64-29.63,2.62-22.74,5.9-38.38,14-52.81,27.55-8.09,7.54-26.9,29.52-32.58,37.94-2.08,3.17-5.25,6.01-8.2,7.54l-4.7,2.41,3.72-5.8c12.25-19.14,26.68-47.02,34.66-66.92,1.63-4.1,2.92-7.33,4.04-10-.32-1.2-.51-2.46-.51-3.77,0-7.03,5.03-12.9,11.68-14.21.95-1.13,1.99-2.35,3.16-3.73,8.86-10.5,9.73-11.15,15.85-12.9,8.31-2.41,24.49-10.5,32.91-16.51Z" fill="#fff"/>
    <g id="e" data-name="olives">
      <circle cx="223.48" cy="145.4" r="11.49" fill="#fff"/>
      <circle cx="87.56" cy="347.04" r="11.49" fill="#fff"/>
      <circle cx="142.26" cy="622.05" r="11.49" fill="#fff"/>
      <circle cx="271.4" cy="822.57" r="11.49" fill="#fff"/>
      <circle cx="217.48" cy="741.19" r="11.49" fill="#fff"/>
      <circle cx="97.77" cy="606.06" r="11.49" fill="#fff"/>
      <circle cx="109.58" cy="489.42" r="11.49" fill="#fff"/>
      <circle cx="124.48" cy="341.09" r="11.49" fill="#fff"/>
      <circle cx="369.17" cy="871.66" r="11.49" fill="#fff"/>
      <circle cx="748.46" cy="145.35" r="11.49" fill="#fff"/>
      <circle cx="884.38" cy="346.99" r="11.49" fill="#fff"/>
      <circle cx="829.68" cy="622.01" r="11.49" fill="#fff"/>
      <circle cx="700.54" cy="822.53" r="11.49" fill="#fff"/>
      <circle cx="754.46" cy="741.15" r="11.49" fill="#fff"/>
      <circle cx="874.17" cy="606.02" r="11.49" fill="#fff"/>
      <circle cx="862.36" cy="489.37" r="11.49" fill="#fff"/>
      <circle cx="847.46" cy="341.05" r="11.49" transform="translate(208.06 993.49) rotate(-67.5)" fill="#fff"/>
      <circle cx="602.77" cy="871.62" r="11.49" fill="#fff"/>
    </g>
    <g>
      <path d="M353.86,117l11.33-2.47c.93-.22,1.64-.67,2.13-1.33.49-.67.73-1.49.73-2.47v-36.8l.13-9-16.8,3.87v-3.93l24.47-11.93h11c-.09,1.42-.17,3.03-.23,4.83-.07,1.8-.12,3.66-.17,5.57-.04,1.91-.08,3.81-.1,5.7-.02,1.89-.03,3.59-.03,5.1v36.6c0,1.02.25,1.86.77,2.5.51.65,1.21,1.08,2.1,1.3l10.53,2.47v3.93h-45.87v-3.93Z" fill="#fff"/>
      <path d="M429.79,147.73c-2.49,0-4.69-.11-6.6-.33-1.91-.22-3.62-.52-5.13-.9-1.51-.38-2.88-.78-4.1-1.2-1.22-.42-2.37-.83-3.43-1.23l2.8-13.73h2.4c1.11.62,2.47,1.38,4.07,2.27,1.6.89,3.39,1.74,5.37,2.57,1.98.82,4.08,1.52,6.3,2.1,2.22.58,4.51.87,6.87.87,2,0,3.73-.44,5.2-1.33,1.47-.89,2.75-2.04,3.87-3.47.58-.76,1.19-1.76,1.83-3,.64-1.24,1.3-2.93,1.97-5.07.67-2.13,1.31-4.8,1.93-8,.62-3.2,1.2-7.11,1.73-11.73,0-.22.03-.57.1-1.03.07-.47.12-.97.17-1.5.04-.53.1-1.04.17-1.53.07-.49.1-.84.1-1.07-1.91,2.62-3.84,4.73-5.8,6.33-1.96,1.6-3.91,2.83-5.87,3.7-1.96.87-3.87,1.44-5.73,1.73-1.87.29-3.67.43-5.4.43-3.33,0-6.56-.67-9.67-2-3.11-1.33-5.87-3.23-8.27-5.7-2.4-2.47-4.31-5.44-5.73-8.93-1.42-3.49-2.13-7.41-2.13-11.77s.88-8.52,2.63-12.37c1.75-3.84,4.17-7.2,7.23-10.07,3.07-2.87,6.67-5.12,10.8-6.77,4.13-1.64,8.58-2.47,13.33-2.47,5.47,0,10.29.98,14.47,2.93,4.18,1.96,7.68,4.71,10.5,8.27,2.82,3.56,4.96,7.86,6.4,12.9,1.44,5.04,2.17,10.63,2.17,16.77,0,5.33-.43,10.2-1.3,14.6-.87,4.4-2.08,8.41-3.63,12.03-1.56,3.62-3.44,6.88-5.67,9.77-2.22,2.89-4.69,5.47-7.4,7.73-1.73,1.47-3.59,2.82-5.57,4.07-1.98,1.24-4.08,2.32-6.3,3.23-2.22.91-4.56,1.62-7,2.13-2.45.51-5,.77-7.67.77ZM440.66,102c1.11,0,2.3-.1,3.57-.3,1.27-.2,2.54-.54,3.83-1.03,1.29-.49,2.54-1.16,3.77-2,1.22-.84,2.34-1.93,3.37-3.27.04-.58.09-1.19.13-1.83.04-.64.08-1.3.1-1.97.02-.67.03-1.35.03-2.07v-2.07c0-4.71-.43-8.81-1.3-12.3-.87-3.49-2.03-6.39-3.5-8.7-1.47-2.31-3.15-4.04-5.03-5.2-1.89-1.16-3.86-1.73-5.9-1.73-4.45,0-7.84,1.87-10.2,5.6-2.36,3.73-3.53,9.11-3.53,16.13s1.24,12.12,3.73,15.57c2.49,3.44,6.13,5.17,10.93,5.17Z" fill="#fff"/>
      <path d="M536.25,69.47l-7.87.2h-31.2c-1.11,0-2.06.3-2.83.9s-1.34,1.52-1.7,2.77l-3.4,12h-4.2v-30.6h63.47v7.53l-41.53,86.27h-13.93l43.2-79.07Z" fill="#fff"/>
      <path d="M556.05,111.87c6.58-4.71,12.23-8.83,16.97-12.37,4.73-3.53,8.62-6.78,11.67-9.73,3.04-2.96,5.28-5.82,6.7-8.6,1.42-2.78,2.13-5.77,2.13-8.97,0-1.64-.19-3.22-.57-4.73-.38-1.51-.97-2.84-1.77-4-.8-1.16-1.79-2.09-2.97-2.8-1.18-.71-2.57-1.07-4.17-1.07-1.47,0-2.92.18-4.37.53-1.44.36-2.86.86-4.23,1.5-1.38.64-2.74,1.39-4.1,2.23-1.36.85-2.69,1.76-4,2.73-1.31.98-2.6,2-3.87,3.07-1.27,1.07-2.5,2.11-3.7,3.13h-2.4l-2.8-13.33c1.2-.67,2.78-1.48,4.73-2.43,1.96-.96,4.19-1.87,6.7-2.73,2.51-.87,5.25-1.61,8.23-2.23,2.98-.62,6.11-.93,9.4-.93,3.69,0,7.3.37,10.83,1.1,3.53.73,6.67,1.88,9.4,3.43,2.73,1.56,4.93,3.54,6.6,5.97,1.67,2.42,2.5,5.3,2.5,8.63,0,2.93-.4,5.6-1.2,8-.8,2.4-1.99,4.62-3.57,6.67-1.58,2.04-3.52,3.94-5.83,5.7-2.31,1.76-4.97,3.48-7.97,5.17-3,1.69-6.34,3.38-10.03,5.07-3.69,1.69-7.69,3.49-12,5.4l9.8-.13h24.6c1.51,0,2.63-.38,3.37-1.13.73-.76,1.28-1.6,1.63-2.53l2.73-7.2h4.53l-1.73,25.67h-61.27v-9.07Z" fill="#fff"/>
    </g>
  </g>
</svg>